<?xml version="1.0" encoding="UTF-8" standalone="no"?>
<!-- Created with Inkscape (http://www.inkscape.org/) -->

<svg
   version="1.1"
   id="svg2"
   xml:space="preserve"
   width="513.33331"
   height="416"
   viewBox="0 0 513.33331 416"
   sodipodi:docname="stressrelax.svg"
   inkscape:version="1.1.1 (3bf5ae0d25, 2021-09-20)"
   xmlns:inkscape="http://www.inkscape.org/namespaces/inkscape"
   xmlns:sodipodi="http://sodipodi.sourceforge.net/DTD/sodipodi-0.dtd"
   xmlns="http://www.w3.org/2000/svg"
   xmlns:svg="http://www.w3.org/2000/svg"><defs
     id="defs6" /><sodipodi:namedview
     id="namedview4"
     pagecolor="#ffffff"
     bordercolor="#666666"
     borderopacity="1.0"
     inkscape:pageshadow="2"
     inkscape:pageopacity="0.0"
     inkscape:pagecheckerboard="0"
     showgrid="false"
     inkscape:zoom="1.4312113"
     inkscape:cx="235.11552"
     inkscape:cy="107.95052"
     inkscape:window-width="1920"
     inkscape:window-height="1027"
     inkscape:window-x="-8"
     inkscape:window-y="1072"
     inkscape:window-maximized="1"
     inkscape:current-layer="g8" /><g
     id="g8"
     inkscape:groupmode="layer"
     inkscape:label="stressrelax"
     transform="matrix(1.3333333,0,0,-1.3333333,0,416)"><g
       id="g10"
       transform="scale(0.1)"><path
         d="m 527.5,502.5 h 3255 V 2910 h -3255 z"
         style="fill:#ffffff;fill-opacity:1;fill-rule:nonzero;stroke:none"
         id="path12" /><path
         d="m 527.5,502.5 h 3255"
         style="fill:none;stroke:#262626;stroke-width:5.0025;stroke-linecap:square;stroke-linejoin:round;stroke-miterlimit:10;stroke-dasharray:none;stroke-opacity:1"
         id="path14" /><path
         d="m 527.5,2910 h 3255"
         style="fill:none;stroke:#262626;stroke-width:5.0025;stroke-linecap:square;stroke-linejoin:round;stroke-miterlimit:10;stroke-dasharray:none;stroke-opacity:1"
         id="path16" /><path
         d="m 527.5,502.5 v 32.551"
         style="fill:none;stroke:#262626;stroke-width:5.0025;stroke-linecap:square;stroke-linejoin:round;stroke-miterlimit:10;stroke-dasharray:none;stroke-opacity:1"
         id="path18" /><path
         d="m 1070,502.5 v 32.551"
         style="fill:none;stroke:#262626;stroke-width:5.0025;stroke-linecap:square;stroke-linejoin:round;stroke-miterlimit:10;stroke-dasharray:none;stroke-opacity:1"
         id="path20" /><path
         d="m 1612.5,502.5 v 32.551"
         style="fill:none;stroke:#262626;stroke-width:5.0025;stroke-linecap:square;stroke-linejoin:round;stroke-miterlimit:10;stroke-dasharray:none;stroke-opacity:1"
         id="path22" /><path
         d="m 2155,502.5 v 32.551"
         style="fill:none;stroke:#262626;stroke-width:5.0025;stroke-linecap:square;stroke-linejoin:round;stroke-miterlimit:10;stroke-dasharray:none;stroke-opacity:1"
         id="path24" /><path
         d="m 2697.5,502.5 v 32.551"
         style="fill:none;stroke:#262626;stroke-width:5.0025;stroke-linecap:square;stroke-linejoin:round;stroke-miterlimit:10;stroke-dasharray:none;stroke-opacity:1"
         id="path26" /><path
         d="m 3240,502.5 v 32.551"
         style="fill:none;stroke:#262626;stroke-width:5.0025;stroke-linecap:square;stroke-linejoin:round;stroke-miterlimit:10;stroke-dasharray:none;stroke-opacity:1"
         id="path28" /><path
         d="m 3782.5,502.5 v 32.551"
         style="fill:none;stroke:#262626;stroke-width:5.0025;stroke-linecap:square;stroke-linejoin:round;stroke-miterlimit:10;stroke-dasharray:none;stroke-opacity:1"
         id="path30" /><path
         d="m 527.5,2910 v -32.55"
         style="fill:none;stroke:#262626;stroke-width:5.0025;stroke-linecap:square;stroke-linejoin:round;stroke-miterlimit:10;stroke-dasharray:none;stroke-opacity:1"
         id="path32" /><path
         d="m 1070,2910 v -32.55"
         style="fill:none;stroke:#262626;stroke-width:5.0025;stroke-linecap:square;stroke-linejoin:round;stroke-miterlimit:10;stroke-dasharray:none;stroke-opacity:1"
         id="path34" /><path
         d="m 1612.5,2910 v -32.55"
         style="fill:none;stroke:#262626;stroke-width:5.0025;stroke-linecap:square;stroke-linejoin:round;stroke-miterlimit:10;stroke-dasharray:none;stroke-opacity:1"
         id="path36" /><path
         d="m 2155,2910 v -32.55"
         style="fill:none;stroke:#262626;stroke-width:5.0025;stroke-linecap:square;stroke-linejoin:round;stroke-miterlimit:10;stroke-dasharray:none;stroke-opacity:1"
         id="path38" /><path
         d="m 2697.5,2910 v -32.55"
         style="fill:none;stroke:#262626;stroke-width:5.0025;stroke-linecap:square;stroke-linejoin:round;stroke-miterlimit:10;stroke-dasharray:none;stroke-opacity:1"
         id="path40" /><path
         d="m 3240,2910 v -32.55"
         style="fill:none;stroke:#262626;stroke-width:5.0025;stroke-linecap:square;stroke-linejoin:round;stroke-miterlimit:10;stroke-dasharray:none;stroke-opacity:1"
         id="path42" /><path
         d="m 3782.5,2910 v -32.55"
         style="fill:none;stroke:#262626;stroke-width:5.0025;stroke-linecap:square;stroke-linejoin:round;stroke-miterlimit:10;stroke-dasharray:none;stroke-opacity:1"
         id="path44" /><g
         id="g46"
         transform="scale(10)"><text
           transform="matrix(1,0,0,-1,46.375,31.2)"
           style="font-variant:normal;font-weight:normal;font-size:14.0002px;font-family:'CMU Serif';-inkscape-font-specification:'CMU Serif';writing-mode:lr-tb;fill:#262626;fill-opacity:1;fill-rule:nonzero;stroke:none;font-style:normal;font-stretch:normal"
           id="text50"><tspan
             x="0 4.6620665 54.249794 58.911861 108.49959 113.16166 164.99936 219.24915 273.49893 327.74875"
             y="0"
             sodipodi:role="line"
             id="tspan48">-3-2-10123</tspan></text><text
           transform="matrix(1,0,0,-1,193,10.5)"
           style="font-variant:normal;font-weight:normal;font-size:15.3997px;font-family:'CMU Serif';-inkscape-font-specification:'CMU Serif';writing-mode:lr-tb;fill:#262626;fill-opacity:1;fill-rule:nonzero;stroke:none;font-style:normal;font-stretch:normal"
           id="text54"><tspan
             x="0"
             y="0"
             id="tspan52"
             style="-inkscape-font-specification:'CMU Serif';font-family:'CMU Serif';font-weight:normal;font-style:normal;font-stretch:normal;font-variant:normal">u</tspan></text><text
           transform="matrix(1,0,0,-1,202,3)"
           style="font-variant:normal;font-weight:normal;font-size:12.3202px;font-family:'CMU Serif';-inkscape-font-specification:'CMU Serif';writing-mode:lr-tb;fill:#262626;fill-opacity:1;fill-rule:nonzero;stroke:none;font-style:normal;font-stretch:normal"
           id="text58"><tspan
             x="0 2.7350843"
             y="0"
             sodipodi:role="line"
             id="tspan56">in</tspan></text><text
           transform="matrix(1,0,0,-1,216.03112,10.5)"
           style="font-variant:normal;font-weight:normal;font-size:15.3997px;font-family:'CMU Serif';-inkscape-font-specification:'CMU Serif';writing-mode:lr-tb;fill:#262626;fill-opacity:1;fill-rule:nonzero;stroke:none;font-style:normal;font-stretch:normal"
           id="text62"><tspan
             x="0 4.2811165 17.109066"
             y="0"
             sodipodi:role="line"
             id="tspan60">[m]</tspan></text></g><path
         d="m 3428.48,86.6016 c 0,0.7812 0.23,1.4453 0.7,1.9961 l 29.65,29.5273 -29.65,29.648 c -0.47,0.469 -0.7,1.094 -0.7,1.875 0,0.704 0.27,1.348 0.82,1.934 0.54,0.586 1.21,0.879 1.99,0.879 0.62,0 1.33,-0.273 2.11,-0.82 l 29.53,-29.532 29.42,29.532 c 0.78,0.547 1.48,0.82 2.11,0.82 0.77,0 1.44,-0.273 1.98,-0.82 0.55,-0.547 0.83,-1.215 0.83,-1.993 0,-0.781 -0.24,-1.406 -0.71,-1.875 l -29.65,-29.648 29.65,-29.5273 c 0.47,-0.5508 0.71,-1.2149 0.71,-1.9961 0,-0.7774 -0.28,-1.4453 -0.83,-1.9922 -0.54,-0.5469 -1.21,-0.8203 -1.98,-0.8203 -0.71,0 -1.41,0.3515 -2.11,1.0586 l -29.42,29.2933 -29.53,-29.2933 c -0.63,-0.7071 -1.33,-1.0586 -2.11,-1.0586 -0.78,0 -1.45,0.2929 -1.99,0.8789 -0.55,0.5859 -0.82,1.2304 -0.82,1.9336"
         style="fill:#262626;fill-opacity:1;fill-rule:nonzero;stroke:none"
         id="path64" /><g
         id="g66"
         transform="scale(10)"><text
           transform="matrix(1,0,0,-1,352,8.25)"
           style="font-variant:normal;font-weight:normal;font-size:14.0002px;font-family:'CMU Serif';-inkscape-font-specification:'CMU Serif';writing-mode:lr-tb;fill:#262626;fill-opacity:1;fill-rule:nonzero;stroke:none;font-style:normal;font-stretch:normal"
           id="text70"><tspan
             x="0 7.784111"
             y="0"
             sodipodi:role="line"
             id="tspan68">10</tspan></text><text
           transform="matrix(1,0,0,-1,367.75,15)"
           style="font-variant:normal;font-weight:normal;font-size:11.1997px;font-family:'CMU Serif';-inkscape-font-specification:'CMU Serif';writing-mode:lr-tb;fill:#262626;fill-opacity:1;fill-rule:nonzero;stroke:none;font-style:normal;font-stretch:normal"
           id="text74"><tspan
             x="0 3.7295001"
             y="0"
             sodipodi:role="line"
             id="tspan72">-3</tspan></text></g><path
         d="M 527.5,502.5 V 2910"
         style="fill:none;stroke:#262626;stroke-width:5.0025;stroke-linecap:square;stroke-linejoin:round;stroke-miterlimit:10;stroke-dasharray:none;stroke-opacity:1"
         id="path76" /><path
         d="M 3782.5,502.5 V 2910"
         style="fill:none;stroke:#262626;stroke-width:5.0025;stroke-linecap:square;stroke-linejoin:round;stroke-miterlimit:10;stroke-dasharray:none;stroke-opacity:1"
         id="path78" /><path
         d="m 527.5,502.5 h 32.551"
         style="fill:none;stroke:#262626;stroke-width:5.0025;stroke-linecap:square;stroke-linejoin:round;stroke-miterlimit:10;stroke-dasharray:none;stroke-opacity:1"
         id="path80" /><path
         d="m 527.5,903.75 h 32.551"
         style="fill:none;stroke:#262626;stroke-width:5.0025;stroke-linecap:square;stroke-linejoin:round;stroke-miterlimit:10;stroke-dasharray:none;stroke-opacity:1"
         id="path82" /><path
         d="m 527.5,1305 h 32.551"
         style="fill:none;stroke:#262626;stroke-width:5.0025;stroke-linecap:square;stroke-linejoin:round;stroke-miterlimit:10;stroke-dasharray:none;stroke-opacity:1"
         id="path84" /><path
         d="m 527.5,1706.25 h 32.551"
         style="fill:none;stroke:#262626;stroke-width:5.0025;stroke-linecap:square;stroke-linejoin:round;stroke-miterlimit:10;stroke-dasharray:none;stroke-opacity:1"
         id="path86" /><path
         d="m 527.5,2107.5 h 32.551"
         style="fill:none;stroke:#262626;stroke-width:5.0025;stroke-linecap:square;stroke-linejoin:round;stroke-miterlimit:10;stroke-dasharray:none;stroke-opacity:1"
         id="path88" /><path
         d="m 527.5,2508.75 h 32.551"
         style="fill:none;stroke:#262626;stroke-width:5.0025;stroke-linecap:square;stroke-linejoin:round;stroke-miterlimit:10;stroke-dasharray:none;stroke-opacity:1"
         id="path90" /><path
         d="m 527.5,2910 h 32.551"
         style="fill:none;stroke:#262626;stroke-width:5.0025;stroke-linecap:square;stroke-linejoin:round;stroke-miterlimit:10;stroke-dasharray:none;stroke-opacity:1"
         id="path92" /><path
         d="m 3782.5,502.5 h -32.55"
         style="fill:none;stroke:#262626;stroke-width:5.0025;stroke-linecap:square;stroke-linejoin:round;stroke-miterlimit:10;stroke-dasharray:none;stroke-opacity:1"
         id="path94" /><path
         d="m 3782.5,903.75 h -32.55"
         style="fill:none;stroke:#262626;stroke-width:5.0025;stroke-linecap:square;stroke-linejoin:round;stroke-miterlimit:10;stroke-dasharray:none;stroke-opacity:1"
         id="path96" /><path
         d="m 3782.5,1305 h -32.55"
         style="fill:none;stroke:#262626;stroke-width:5.0025;stroke-linecap:square;stroke-linejoin:round;stroke-miterlimit:10;stroke-dasharray:none;stroke-opacity:1"
         id="path98" /><path
         d="m 3782.5,1706.25 h -32.55"
         style="fill:none;stroke:#262626;stroke-width:5.0025;stroke-linecap:square;stroke-linejoin:round;stroke-miterlimit:10;stroke-dasharray:none;stroke-opacity:1"
         id="path100" /><path
         d="m 3782.5,2107.5 h -32.55"
         style="fill:none;stroke:#262626;stroke-width:5.0025;stroke-linecap:square;stroke-linejoin:round;stroke-miterlimit:10;stroke-dasharray:none;stroke-opacity:1"
         id="path102" /><path
         d="m 3782.5,2508.75 h -32.55"
         style="fill:none;stroke:#262626;stroke-width:5.0025;stroke-linecap:square;stroke-linejoin:round;stroke-miterlimit:10;stroke-dasharray:none;stroke-opacity:1"
         id="path104" /><path
         d="m 3782.5,2910 h -32.55"
         style="fill:none;stroke:#262626;stroke-width:5.0025;stroke-linecap:square;stroke-linejoin:round;stroke-miterlimit:10;stroke-dasharray:none;stroke-opacity:1"
         id="path106" /><g
         id="g108"
         transform="scale(10)"><text
           transform="matrix(1,0,0,-1,27.7,45)"
           style="font-variant:normal;font-weight:normal;font-size:14.0002px;font-family:'CMU Serif';-inkscape-font-specification:'CMU Serif';writing-mode:lr-tb;fill:#262626;fill-opacity:1;fill-rule:nonzero;stroke:none;font-style:normal;font-stretch:normal"
           id="text124"><tspan
             x="0 4.6620665 12.446177"
             y="0"
             sodipodi:role="line"
             id="tspan110">-15</tspan><tspan
             x="0 4.6620665 12.446177"
             y="-40.125"
             sodipodi:role="line"
             id="tspan112">-10</tspan><tspan
             x="7.5 12.162066"
             y="-80.25"
             sodipodi:role="line"
             id="tspan114">-5</tspan><tspan
             x="12"
             y="-120.375"
             id="tspan116"
             style="-inkscape-font-specification:'CMU Serif';font-family:'CMU Serif';font-weight:normal;font-style:normal;font-stretch:normal;font-variant:normal">0</tspan><tspan
             x="12"
             y="-160.5"
             id="tspan118"
             style="-inkscape-font-specification:'CMU Serif';font-family:'CMU Serif';font-weight:normal;font-style:normal;font-stretch:normal;font-variant:normal">5</tspan><tspan
             x="4.5 12.284111"
             y="-200.625"
             sodipodi:role="line"
             id="tspan120">10</tspan><tspan
             x="4.5 12.284111"
             y="-240.75"
             sodipodi:role="line"
             id="tspan122">15</tspan></text><text
           transform="matrix(0,1,1,0,14.5,149.25)"
           style="font-variant:normal;font-weight:normal;font-size:15.3997px;font-family:'CMU Serif';-inkscape-font-specification:'CMU Serif';writing-mode:lr-tb;fill:#262626;fill-opacity:1;fill-rule:nonzero;stroke:none;font-style:normal;font-stretch:normal"
           id="text128"><tspan
             x="0"
             y="0"
             id="tspan126"
             style="-inkscape-font-specification:'CMU Serif';font-family:'CMU Serif';font-weight:normal;font-style:normal;font-stretch:normal;font-variant:normal">F</tspan></text><text
           transform="matrix(0,1,1,0,22,159)"
           style="font-variant:normal;font-weight:normal;font-size:12.3202px;font-family:'CMU Serif';-inkscape-font-specification:'CMU Serif';writing-mode:lr-tb;fill:#262626;fill-opacity:1;fill-rule:nonzero;stroke:none;font-style:normal;font-stretch:normal"
           id="text132"><tspan
             x="0 2.7350843"
             y="0"
             sodipodi:role="line"
             id="tspan130">in</tspan></text><text
           transform="matrix(0,1,1,0,14.5,173.03112)"
           style="font-variant:normal;font-weight:normal;font-size:15.3997px;font-family:'CMU Serif';-inkscape-font-specification:'CMU Serif';writing-mode:lr-tb;fill:#262626;fill-opacity:1;fill-rule:nonzero;stroke:none;font-style:normal;font-stretch:normal"
           id="text136"><tspan
             x="0 4.2811165 15.3997"
             y="0"
             sodipodi:role="line"
             id="tspan134">[N]</tspan></text></g><g
         id="g138"
         transform="scale(10)"><text
           transform="matrix(1,0,0,-1,114.625,297.629)"
           style="font-variant:normal;font-weight:bold;font-size:15.3997px;font-family:'CMU Serif';-inkscape-font-specification:'CMU Serif Bold';writing-mode:lr-tb;fill:#000003;fill-opacity:1;fill-rule:nonzero;stroke:none;font-style:normal;font-stretch:normal"
           id="text142"><tspan
             x="0 5.1280999 14.537317 20.5278 29.090033 37.652267 42.780365 52.189583 56.470699 65.032936 74.442146 78.723267 87.2855 95.847733 104.40997 118.1003 126.66253 136.07175 141.19984 145.48097 151.47145 160.03368 164.3148 172.87703 178.00513 182.28625 191.69547"
             y="0"
             sodipodi:role="line"
             id="tspan140">force-displacement relation</tspan></text></g><path
         d="m 2154.97,1704.16 v 0 0 0 h 4.99 v 0 0 l 4.82,11.28 v 0 l 6.66,13.16 v 0 0 l 7.46,15.04 v 0 l 6.69,16.93 v 0 0 l 6.66,16.91 v 0 l 6.55,15.05 v 0 0 l 6.63,15.04 v 0 l 7.58,16.93 v 0 0 l 7.5,16.91 v 0 l 6.55,16.93 v 0 0 l 6.67,15.04 v 0 0 l 6.58,15.04 v 0 l 6.65,15.04 v 0 0 l 6.64,16.92 v 0 l 7.5,13.17 v 0 0 l 6.63,16.92 v 0 l 6.66,15.04 v 0 0 l 7.52,16.93 v 0 l 6.6,16.92 v 0 0 l 6.63,13.16 v 0 l 6.57,15.04 v 0 0 l 6.72,15.04 v 0 l 4.84,15.05 v 0 0 l 7.41,11.28 v 0 l 6.64,15.04 v 0 0 l 6.64,15.04 v 0 l 6.56,13.16 v 0 0 l 7.43,15.05 v 0 l 6.68,15.03 v 0 0 l 6.55,11.29 v 0 l 4.95,15.04 v 0 0 l 7.37,11.28 v 0 l 7.56,15.05 v 0 0 l 6.46,16.91 v 0 l 6.53,13.17 v 0 0 l 6.61,15.04 v 0 0 l 6.6,15.04 v 0 l 6.53,15.04 v 0 0 l 6.64,15.05 v 0 l 7.5,13.16 v 0 0 l 4.8,16.92 v 0 l 8.31,9.4 v 0 0 l 5.81,18.8 v 0 l 7.34,11.29 v 0 0 l 6.67,16.92 v 0 l 6.53,15.05 v 0 0 l 4.93,13.16 v 0 l 7.29,9.39 v 0 0 l 6.65,16.93 v 0 l 4.94,13.16 v 0 0 l 8.24,11.29 v 0 l 4.86,16.92 v 0 0 l 4.9,9.39 v 0 l 7.46,11.29 v 0 0 l 4.95,15.04 v 0 l 4.85,9.4 v 0 0 l 7.32,9.4 v 0 l 4.1,15.04 v 0 0 l 4.73,9.4 v 0 l 3.6,9.4 v 0 0 l 7.54,7.53 v 0 0 l 4.89,15.04 v 0 l 3.93,9.4 v 0 0 l 4.83,7.53 v 0 l 7.53,9.39 v 0 0 l 5,15.05 v 0 l 4.89,9.4 v 0 0 l 6.5,9.4 v 0 l 5.74,15.04 v 0 0 l 5.08,9.4 v 0 l 4.81,9.4 v 0 0 l 7.32,9.4 v 0 l 4.96,15.05 v 0 0 l 5.7,7.52 v 0 l 4.96,11.28 v 0 0 l 7.41,7.52 v 0 l 4.99,15.04 v 0 0 l 4.84,7.52 v 0 l 5.68,7.53 v 0 0 l 7.46,11.28 v 0 l 4.92,11.28 v 0 0 l 5.05,7.52 v 0 l 4.71,7.52 v 0 0 l 5.66,7.52 v 0 l 4.07,9.4 v 0 0 l 4.96,5.64 v 0 0 l 4.84,5.65 v 0 l 2.96,3.75 v 0 0 l -0.01,3.77 v 0 -1.88 0 0 l -0.01,-1.89 v 0 -1.87 0 0 -1.88 0 0 0 0 -1.89 0 -1.88 0 0 0 0 -1.88 0 0 -1.88 0 0 0 0 -1.88 0 0 0 0 -1.88 0 -1.87 0 0 0 0 0 0 0 -1.89 0 0 0 0 -1.88 0 0 0 0 -1.87 0 0 0 0 0 0 0 -1.89 0 0 0 0 0 0 -1.88 0 0 0 0 0 0 0 -1.88 0 0 0 0 -1.88 0 0 0 0 0 0 -1.88 0 0 0 0 0 0 0 -1.88 0 0 0 0 0 0 0 0 0 0 0 -1.87 0 0 0 0 0 0 0 -1.9 0 0 0 0 0 0 0 0 0 -1.87 0 0 0 0 0 0 0 0 0 -1.88 0 0 0 0 0 0 0 0 0 -1.89 0 0 0 0 0 0 0 0 0 -1.87 0 0 0 0 0 0 0 0 0 -1.88 0 0 0 0 0 0 0 -1.89 0 0 0 0 0 0 0 0 0 0 0 0 0 0 0 0 0 -1.87 0 0 0 0 0 0 0 0 0 0 0 -1.88 0 0 0 0 0 0 0 -1.88 0 0 0 0 0 0 0 0 0 0 0 0 0 0 -1.89 0 0 0 0 0 0 0 0 0 0 0 0 0 0 0 0 0 -1.87 0 0 0 0 0 0 0 0 0 -1.88 0 0 0 0 0 0 0 0 0 0 0 0 0 0 0 0 -1.89 0 0 0 0 0 0 0 0 0 0 0 0 0 0 -1.87 0 0 0 0 0 0 0 0 0 0 0 0 0 0 0 0 0 -1.88 0 0 0 0 0 0 0 0 0 0 0 0 0 0 -1.89 0 0 1.89 0 -1.89 0 0 0 0 0 0 0 0 0 0 0 0 -1.87 0 0 0 0 0 0 0 0 0 0 0 0 0 0 0 0 -1.89 0 0 0 0 0 0 0 0 0 0 0 0 0 0 0 0 0 -1.87 0 0 1.87 0 -1.87 0 0 0 0 0 0 0 0 0 -1.89 0 0 1.89 0 -1.89 0 0 0 0 0 0 0 0 0 0 0 0 0 0 0 0 0 0 0 0 0 0 -1.88 0 0 0 0 0 0 0 0 0 -1.87 0 0 0 0 0 0 0 0 0 0 0 0 0 0 0 0 0 0 0 0 0 0 0 0 -1.89 0 0 1.89 0 -1.89 0 0 1.89 0 -1.89 0 0 0 0 0 0 0 0 0 0 0 0 0 0 -1.88 0 0 1.88 0 0 0 0 -1.88 0 0 0 0 0 0 0 0 0 0 0 0 0 0 0 0 0 0 0 -1.88 0 0 0 0 0 0 0 0 0 0 0 0 0 0 0 0 0 0 0 0 0 0 -1.88 0 0 0 0 0 0 0 0 0 0 0 0 0 0 0 0 0 0 0 0 0 0 0 0 0 0 0 0 0 0 0 0 0 0 -1.87 0 0 0 0 0 0 0 0 0 0 0 0 0 0 -1.89 0 0 0 0 0 0 0 0 0 0 0 0 0 0 0 0 0 0 0 0 0 0 -1.87 0 0 0 0 1.87 0 -1.87 0 0 0 0 0 0 0 0 0 0 0 0 0 0 0 0 0 0 0 0 -1.89 0 0 0 0 0 0 0 0 0 0 0 0 0 0 0 0 0 0 0 0 0 0 0 0 0 0 0 0 0 0 0 0 0 0 0 0 0 0 0 -1.88 0 0 0 0 1.88 0 -1.88 0 0 0 0 0 0 0 0 0 0 0 0 -1.87 0 0 1.87 0 -1.87 0 0 0 0 0 0 0 1.87 0 -1.87 0 0 0 0 0 0 0 0 0 0 0 0 0 0 0 0 0 0 0 -1.89 0 0 1.89 0 -1.89 0 0 0 0 0 0 0 0 0 0 0 0 0 0 0 0 0 0 0 0 0 0 0 0 0 -1.88 0 1.88 0 0 0 0 -1.88 0 0 0 0 0 0 0 0 0 0 0 0 0 0 0 0 0 0 0 0 0 0 0 0 0 0 0 0 0 0 0 0 -1.88 0 1.88 0 0 -1.88 0 0 0 0 0 0 0 0 0 0 0 0 0 0 0 0 0 0 0 0 0 0 0 0 -1.88 0 0 0 0 0 0 0 1.88 0 -1.88 0 0 0 0 0 0 0 0 0 0 0 0 0 0 0 0 0 0 0 0 0 0 0 0 0 0 0 -1.88 0 0 0 0 0 0 0 0 0 0 0 0 0 0 0 0 0 0 0 0 0 0 0 0 0 0 0 0 0 0 0 0 0 0 0 0 0 -1.88 0 0 0 0 0 0 0 0 0 1.88 0 0 0 0 -1.88 0 0 0 0 0 0 0 0 0 0 0 0 0 0 0 0 0 0 0 0 0 0 0 0 -1.88 0 0 0 0 0 0 0 1.88 0 -1.88 0 0 0 0 0 0 0 0 0 0 0 0 0 0 0 0 0 0 0 0 0 0 -1.89 0 1.89 0 0 0 0 -1.89 0 0 1.89 0 -1.89 0 0 0 0 0 0 0 0 0 0 0 0 0 0 0 0 0 0 0 0 0 0 0 0 0 0 0 0 0 0 0 0 0 0 0 -1.87 0 1.87 0 0 -1.87 0 0 0 0 0 0 0 0 0 0 0 0 0 0 0 0 0 0 0 0 0 -1.88 0 0 0 0 1.88 0 0 0 0 0 -1.88 0 1.88 0 0 -1.88 0 0 0 0 0 0 0 0 0 0 0 0 0 0 0 0 0 0 0 0 0 0 0 0 0 0 0 0 0 0 0 0 0 0 0 0 0 0 0 0 0 0 0 0 0 0 -1.88 0 0 1.88 0 -1.88 0 0 0 0 0 0 0 0 0 0 0 0 0 0 0 0 0 0 0 0 0 0 0 0 0 0 0 0 0 0 0 0 -1.88 0 0 0 0 1.88 0 0 -1.88 0 0 0 0 0 0 0 0 0 0 0 0 0 0 0 0 0 0 0 0 0 0 0 0 0 0 0 0 0 0 0 0 0 0 0 0 0 -1.88 0 0 0 0 1.88 0 -1.88 0 0 0 0 0 0 0 0 0 0 0 0 0 0 0 0 0 0 0 0 0 0 0 0 0 0 0 0 0 0 0 0 0 0 0 0 0 0 0 -1.88 0 0 1.88 0 0 -1.88 0 0 0 0 0 0 0 0 0 0 0 0 0 0 0 0 0 0 0 0 0 0 0 0 0 0 0 0 0 0 0 0 0 0 0 0 0 0 0 0 0 0 0 0 0 0 0 0 0 0 0 0 0 0 -1.88 0 1.88 0 0 0 0 0 0 0 0 0 0 0 0 -1.88 0 0 0 0 0 0 0 0 0 0 0 0 0 0 0 0 0 0 0 0 0 0 0 0 0 0 0 0 0 0 0 0 0 0 0 0 0 -1.88 0 1.88 0 0 0 0 0 0 0 -1.88 0 0 0 0 0 0 0 0 0 1.88 0 0 -1.88 0 0 0 0 0 0 0 0 0 0 0 0 0 0 0 0 0 0 0 0 0 -1.88 0 0 1.88 0 0 0 0 -1.88 0 1.88 0 0 -1.88 0 0 0 0 0 0 0 0 0 0 0 1.88 0 0 -1.88 0 0 0 0 0 0 0 0 0 0 0 0 0 0 0 0 0 0 0 0 0 0 0 0 0 0 0 0 0 0 0 0 0 0 0 0 0 0 0 0 0 0 0 0 -1.89 0 0 1.89 0 -1.89 0 0 0 0 0 0 0 0 0 0 0 0 0 0 0 0 0 0 0 0 0 0 0 0 0 0 0 0 0 0 0 0 0 0 0 0 0 0 0 0 0 0 0 0 0 0 0 0 0 0 0 0 -1.87 0 0 1.87 0 -1.87 0 0 0 0 0 0 0 0 0 0 0 0 0 0 0 0 0 0 0 0 0 0 0 0 0 0 0 0 0 0 0 0 0 0 0 0 0 0 0 0 0 0 -1.88 0 0 0 0 1.88 0 0 -1.88 0 0 0 0 0 0 0 0 0 0 0 0 0 0 0 0 0 0 0 0 0 0 0 0 0 0 0 0 0 0 0 0 0 0 0 0 0 0 0 0 0 0 0 0 0 0 0 -1.89 0 1.89 0 0 0 0 -1.89 0 0 1.89 0 0 0 0 -1.89 0 0 0 0 0 0 0 0 0 0 0 0 0 0 0 0 0 0 0 0 0 0 0 0 0 0 0 0 0 0 0 0 0 0 0 0 0 0 0 0 0 0 0 0 -1.87 0 0 0 0 1.87 0 0 0 0 -1.87 0 0 0 0 0 0 0 0 0 0 0 0 0 0 0 0 0 0 0 0 0 0 0 0 0 0 0 0 0 0 0 0 0 0 0 0 0 0 0 0 0 0 0 0 0 0 0 0 0 0 0 0 0 0 0 0 0 0 0 0 0 0 0 0 0 0 0 -1.89 0 0 1.89 0 0 0 0 0 0 -1.89 0 0 1.89 0 -1.89 0 0 1.89 0 0 0 0 0 0 -1.89 0 0 1.89 0 -1.89 0 0 0 0 0 0 0 0 0 0 0 0 0 0 0 0 0 0 0 0 0 0 0 0 0 0 0 0 0 0 0 0 0 0 0 0 0 0 0 0 0 0 0 0 0 0 0 0 0 0 0 0 -1.88 0 0 1.88 0 -1.88 0 0 0 0 0 0 0 0 0 0 0 0 0 0 0 0 0 0 0 0 0 0 0 0 0 0 0 0 0 0 0 0 0 0 0 0 0 0 0 0 0 0 -1.88 0 0 1.88 0 -1.88 0 0 0 0 0 0 0 1.88 0 -1.88 0 0 0 0 0 0 0 0 0 0 0 0 0 0 0 0 0 0 0 0 0 0 0 0 0 0 0 0 0 0 0 0 0 0 0 0 0 0 0 0 0 0 0 0 0 0 0 0 0 0 0 0 0 0 0 0 0 -1.88 0 0 1.88 0 0 0 0 0 0 -1.88 0 0 0 0 0 0 0 0 0 0 0 0 0 0 0 0 0 0 0 0 0 0 0 0 0 0 0 0 0 0 0 0 0 0 0 0 0 0 0 0 0 0 0 0 0 0 0 0 0 0 0 0 0 0 0 0 0 0 0 0 0 0 0 0 0 0 0 0 0 0 -1.88 0 0 1.88 0 0 0 0 0 0 0 0 0 -1.88 0 0 0 0 0 0 1.88 0 0 -1.88 0 0 0 0 0 0 0 0 0 0 0 0 0 0 0 0 0 0 0 0 0 0 0 0 0 0 0 0 0 0 0 0 0 0 0 0 0 0 0 0 0 0 0 0 -1.88 0 0 1.88 0 -1.88 0 0 1.88 0 0 0 0 -1.88 0 0 0 0 0 0 1.88 0 0 -1.88 0 0 0 0 0 0 0 0 0 0 0 0 0 0 0 0 0 0 0 0 0 0 0 0 0 0 0 0 0 0 0 0 0 0 0 0 0 0 0 0 0 0 0 0 0 0 0 0 0 0 0 0 0 0 0 0 0 0 0 0 0 0 0 0 0 0 0 -1.88 0 0 0 0 0 0 1.88 0 0 -1.88 0 0 0 0 0 0 0 0 0 0 0 0 0 0 1.88 0 -1.88 0 0 1.88 0 0 -1.88 0 0 0 0 0 0 0 0 0 0 0 0 0 0 0 0 0 0 0 0 0 0 0 0 0 0 0 0 0 0 0 0 0 0 0 0 0 0 0 0 0 0 0 0 -1.87 0 1.87 0 0 0 0 -1.87 0 0 0 0 0 0 0 0 0 0 0 0 0 0 0 0 0 0 0 0 0 0 0 0 0 0 0 0 0 0 0 0 0 0 0 0 0 0 0 0 0 0 0 0 0 0 0 0 0 0 0 0 0 0 0 0 0 0 0 0 0 0 0 0 0 0 0 0 0 0 0 0 0 0 0 0 0 0 0 0 0 0 0 0 0 0 0 0 0 0 0 0 0 0 0 0 0 0 0 0 0 0 0 0 0 0 0 0 0 0 0 0 0 -1.89 0 1.89 0 0 -1.89 0 1.89 0 0 0 0 -1.89 0 0 0 0 0 0 0 0 0 0 0 0 0 0 0 0 0 h -5.08 v 0 0 l -3.82,-5.64 v 0 l -5.06,-5.64 v 0 0 l -4.89,-7.52 v 0 l -4.83,-7.53 v 0 0 l -4.81,-5.63 v 0 l -4.97,-9.4 v 0 0 l -4.92,-7.53 v 0 l -4.9,-7.52 v 0 0 l -4.82,-7.52 v 0 l -4.96,-7.51 v 0 0 l -4.82,-9.41 v 0 l -4.94,-9.4 v 0 0 l -4.87,-9.4 v 0 l -4.91,-7.52 v 0 0 l -4.84,-9.4 v 0 l -4.94,-9.41 v 0 0 l -4.88,-7.51 v 0 l -4.87,-11.29 v 0 0 l -4.92,-9.4 v 0 0 l -4.83,-9.4 v 0 l -4.91,-9.4 v 0 0 l -4.81,-9.41 v 0 l -4.91,-9.39 v 0 0 l -4.85,-11.29 v 0 l -4.96,-9.4 v 0 0 l -4.8,-9.4 v 0 l -4.85,-11.28 v 0 0 l -4.93,-7.52 v 0 l -4.85,-11.29 v 0 0 l -4.8,-9.39 v 0 l -4.98,-11.29 v 0 0 l -3.93,-9.4 v 0 l -3.48,-9.4 v 0 0 l -4.98,-7.52 v 0 l -4.89,-9.4 v 0 0 l -3.9,-11.28 v 0 l -4.87,-7.53 v 0 0 l -4.88,-9.39 v 0 l -4.75,-11.29 v 0 0 l -4.97,-11.28 v 0 l -4.82,-9.4 v 0 0 l -4.78,-11.28 v 0 l -3.53,-9.4 v 0 0 l -5,-9.41 v 0 0 l -4.8,-9.39 v 0 l -4.8,-9.41 v 0 0 l -4.83,-9.4 v 0 l -3.82,-13.16 v 0 0 l -4.98,-7.52 v 0 l -4.77,-9.4 v 0 0 l -4.84,-11.29 v 0 l -4.78,-11.28 v 0 0 l -4.93,-9.4 v 0 l -4.79,-11.28 v 0 0 l -4.77,-9.4 v 0 l -4.82,-11.28 v 0 0 l -4.86,-11.29 v 0 l -3.52,-9.39 v 0 0 l -4.9,-9.41 v 0 l -4.81,-9.4 v 0 0 l -4.86,-9.4 v 0 l -4.81,-11.28 v 0 0 l -4.95,-11.28 v 0 l -4.73,-9.4 v 0 0 l -4.92,-11.29 v 0 l -3.48,-9.4 v 0 0 l -4.82,-9.4 v 0 l -4.81,-9.4 v 0 0 l -4.85,-11.28 v 0 0 l -4.85,-9.4 v 0 l -4.79,-11.28 v 0 0 l -4.79,-11.28 v 0 l -4.94,-11.29 v 0 0 l -4.96,-9.4 v 0 l -4.8,-11.28 v 0 0 l -4.75,-9.4 v 0 l -4.91,-11.28 v 0 0 l -4.89,-9.41 v 0 l -4.85,-9.4 v 0 0 l -4.89,-11.27 v 0 l -4.87,-11.29 v 0 0 l -4.89,-9.4 v 0 l -4.84,-11.28 v 0 0 l -4.96,-9.4 v 0 l -3.39,-9.4 v 0 0 l -4.99,-7.53 v 0 l -4.93,-11.27 v 0 0 l -4.89,-9.41 v 0 l -4.84,-11.28 v 0 0 l -4.83,-11.28 v 0 l -4.93,-9.4 v 0 0 l -4.87,-9.4 v 0 l -4.9,-11.29 v 0 0 l -4.89,-9.4 v 0 0 l -5.87,-11.28 v 0 l -4.82,-11.28 v 0 0 l -4.84,-11.28 v 0 l -3.93,-9.4 v 0 0 l -4.88,-7.53 v 0 l -4.8,-11.27 v 0 0 l -5.01,-7.53 v 0 l -4.93,-5.64 v 0 0 l -4.88,-7.52 v 0 l -4.83,-9.4 v 0 0 l -4.95,-11.28 v 0 l -7.34,-9.4 v 0 0 l -5.03,-16.93 v 0 l -4.89,-11.28 v 0 0 l -7.35,-9.4 v 0 l -4.99,-15.04 v 0 0 l -4.88,-9.4 v 0 l -2.26,-11.29 v 0 0 -3.76 0 1.89 0 0 0 0 1.87 0 0 1.88 0 0 0 0 1.89 0 0 0 0 1.87 0 0 0 0 1.88 0 0 0 0 0 0 0 1.89 0 0 0 0 0 0 1.88 0 0 0 0 0 0 0 1.88 0 0 0 0 0 0 0 0 0 1.88 0 0 0 0 0 0 0 0 0 1.88 0 0 0 0 0 0 0 0 0 1.88 0 0 0 0 0 0 0 1.88 0 0 0 0 0 0 0 0 0 0 0 0 0 0 1.88 0 0 0 0 0 0 0 0 0 1.88 0 0 0 0 0 0 0 0 0 1.88 0 0 0 0 0 0 0 0 0 1.88 0 0 0 0 0 0 0 0 0 0 0 0 0 0 0 0 0 1.88 0 0 0 0 0 0 0 0 0 0 0 0 0 0 0 0 1.88 0 0 0 0 0 0 0 0 0 0 0 0 0 0 1.88 0 0 0 0 0 0 0 1.88 0 -1.88 0 0 0 0 1.88 0 0 0 0 0 0 0 0 0 0 0 0 0 0 0 0 0 0 0 0 1.88 0 0 0 0 0 0 0 0 0 0 0 0 0 0 0 0 0 0 0 0 0 1.88 0 0 0 0 0 0 0 0 0 0 0 0 0 0 1.88 0 0 0 0 0 0 0 0 0 0 0 0 0 0 0 0 0 0 0 0 1.89 0 0 0 0 0 0 0 0 0 0 0 0 0 0 0 0 0 0 0 0 0 0 0 0 1.87 0 -1.87 0 0 0 0 1.87 0 0 0 0 0 0 0 0 0 0 0 0 0 0 0 0 0 1.88 0 -1.88 0 0 1.88 0 0 0 0 0 0 0 0 0 0 0 0 0 0 0 0 0 0 0 1.89 0 0 0 0 -1.89 0 0 1.89 0 0 0 0 0 0 0 0 0 0 0 0 0 0 0 0 1.87 0 0 0 0 0 0 0 0 0 0 0 0 0 0 0 0 0 0 0 0 0 0 0 0 0 0 0 0 0 0 0 0 0 0 0 0 0 1.88 0 0 0 0 0 0 0 0 0 0 0 0 0 0 0 0 0 0 0 0 0 0 0 0 0 0 0 1.89 0 0 0 0 0 0 0 0 0 0 0 0 0 0 0 0 0 0 0 0 0 0 0 0 1.87 0 0 0 0 0 0 0 -1.87 0 1.87 0 0 0 0 0 0 0 0 0 0 0 0 0 0 1.88 0 0 -1.88 0 0 0 0 1.88 0 0 0 0 -1.88 0 1.88 0 0 0 0 0 0 0 0 0 0 0 0 0 0 0 0 0 0 0 0 0 0 0 0 0 0 0 0 0 0 1.88 0 0 0 0 0 0 0 0 0 0 0 0 0 0 0 0 0 0 0 0 0 0 0 0 0 0 0 0 0 0 0 0 0 0 0 0 0 0 0 0 0 0 0 0 0 0 0 0 0 0 0 0 1.89 0 0 0 0 0 0 0 0 0 0 0 0 0 0 0 0 0 0 0 0 0 0 0 0 0 0 0 0 0 0 0 0 0 0 0 0 1.87 0 0 0 0 -1.87 0 0 1.87 0 0 0 0 0 0 -1.87 0 0 1.87 0 0 0 0 0 0 0 0 0 0 0 0 0 0 0 0 0 1.88 0 -1.88 0 0 0 0 1.88 0 0 0 0 -1.88 0 0 1.88 0 0 0 0 0 0 0 0 0 0 0 0 0 0 0 0 0 0 0 0 0 0 0 0 0 0 0 0 0 0 0 0 1.89 0 -1.89 0 0 0 0 0 0 0 1.89 0 0 0 0 0 0 0 0 0 0 0 0 0 0 0 0 0 0 0 0 0 0 0 0 0 0 0 0 0 0 0 0 0 0 0 0 0 0 0 0 0 0 0 0 0 0 0 0 0 1.87 0 0 -1.87 0 1.87 0 0 -1.87 0 0 0 0 1.87 0 0 0 0 -1.87 0 1.87 0 0 0 0 0 0 0 0 0 0 0 0 0 0 0 0 0 0 0 1.88 0 0 -1.88 0 0 0 0 0 0 0 0 0 1.88 0 -1.88 0 0 0 0 0 0 0 1.88 0 0 0 0 0 0 0 0 0 0 0 0 0 0 0 0 0 0 0 0 0 0 0 0 0 0 0 0 0 0 0 0 0 0 0 0 0 1.89 0 0 0 0 -1.89 0 0 0 0 0 0 0 0 0 1.89 0 0 0 0 0 0 0 0 0 -1.89 0 0 1.89 0 0 0 0 0 0 0 0 0 0 0 0 0 0 0 0 0 0 0 0 0 0 0 0 0 0 0 0 0 0 0 0 0 0 0 0 0 0 0 0 0 0 0 0 1.87 0 -1.87 0 0 0 0 0 0 0 0 0 0 0 0 0 0 0 0 0 1.87 0 0 0 0 -1.87 0 0 0 0 0 0 0 1.87 0 0 0 0 -1.87 0 1.87 0 0 0 0 0 0 0 0 0 0 0 0 0 0 0 0 0 0 0 0 0 0 0 0 0 0 0 0 0 0 0 0 0 0 0 0 0 0 0 0 0 0 0 0 0 0 0 1.89 0 0 -1.89 0 0 0 0 0 0 0 0 0 0 0 0 0 0 0 0 1.89 0 0 -1.89 0 0 0 0 0 0 1.89 0 0 0 0 0 0 0 -1.89 0 1.89 0 0 0 0 0 0 0 0 0 0 0 0 0 0 0 0 0 0 0 0 0 0 0 0 0 0 0 0 0 0 0 0 0 0 0 0 0 0 0 0 0 0 0 0 0 0 0 0 0 0 0 0 0 0 0 0 0 0 0 0 0 0 1.88 0 0 -1.88 0 0 0 0 0 0 0 1.88 0 -1.88 0 0 0 0 0 0 0 1.88 0 0 0 0 0 0 0 0 0 0 0 0 0 0 0 0 0 0 0 1.88 0 -1.88 0 0 0 0 0 0 0 0 0 0 0 0 0 0 0 0 0 1.88 0 -1.88 0 0 1.88 0 -1.88 0 0 0 0 0 0 0 1.88 0 0 0 0 0 0 0 0 0 -1.88 0 0 1.88 0 0 0 0 -1.88 0 1.88 0 0 0 0 0 0 0 0 0 0 0 0 0 0 0 0 0 0 0 0 0 0 0 0 0 0 0 0 0 0 0 0 0 0 0 0 0 0 0 0 0 0 0 0 0 0 0 0 0 0 0 0 0 0 0 0 0 0 0 0 0 0 0 0 0 0 0 0 0 0 0 0 0 0 0 0 0 0 0 0 0 0 0 0 0 0 0 0 0 0 0 0 0 0 0 1.88 0 -1.88 0 0 0 0 0 0 0 0 0 0 0 0 0 0 0 0 0 0 0 0 1.88 0 0 0 0 0 0 0 0 0 0 0 -1.88 0 0 1.88 0 -1.88 0 0 1.88 0 0 0 0 0 0 0 0 0 0 0 0 0 0 0 0 0 0 0 0 0 0 0 0 0 0 0 1.88 0 -1.88 0 0 0 0 0 0 0 0 0 0 0 0 0 0 0 0 0 0 0 0 0 0 0 0 0 0 0 0 0 0 0 0 0 0 0 0 0 0 0 1.88 0 0 0 0 0 0 0 -1.88 0 1.88 0 0 -1.88 0 0 0 0 1.88 0 0 0 0 0 0 0 -1.88 0 1.88 0 0 -1.88 0 1.88 0 0 0 0 0 0 0 0 0 0 0 0 0 0 0 0 0 0 0 0 0 0 0 0 0 0 0 0 0 0 0 0 0 0 0 0 0 0 0 0 0 0 1.88 0 -1.88 0 0 1.88 0 0 -1.88 0 0 0 0 1.88 0 0 0 0 -1.88 0 0 0 0 1.88 0 0 0 0 -1.88 0 1.88 0 0 -1.88 0 1.88 0 0 0 0 -1.88 0 0 1.88 0 0 0 0 0 0 0 0 0 -1.88 0 1.88 0 0 -1.88 0 1.88 0 0 0 0 0 0 0 0 0 0 0 0 0 0 0 0 0 0 0 0 0 0 0 0 0 0 0 0 0 0 0 0 0 0 0 0 0 0 0 0 0 0 0 0 0 0 0 0 0 0 0 0 0 0 0 1.88 0 0 0 0 -1.88 0 0 0 0 0 0 0 0 0 0 0 0 1.88 0 -1.88 0 0 1.88 0 -1.88 0 0 0 0 0 0 0 0 0 0 0 0 1.88 0 0 0 0 -1.88 0 0 0 0 1.88 0 0 0 0 0 0 0 0 0 -1.88 0 1.88 0 0 0 0 0 0 0 0 0 0 0 0 0 0 0 0 0 0 0 0 0 0 0 0 0 0 0 0 0 0 0 0 0 0 0 0 0 0 0 0 0 0 0 0 0 0 0 0 0 0 0 0 0 0 0 0 0 0 0 0 0 0 0 0 0 0 0 0 0 0 0 0 0 0 0 0 0 0 0 0 0 0 0 0 0 0 0 0 0 0 0 0 0 0 0 0 0 0 0 0 0 0 0 0 0 0 0 0 0 0 0 0 0 0 0 0 0 0 0 0 0 0 0 0 0 0 0 0 0 0 0 0 0 0 0 0 0 0 0 0 0 1.88 0 -1.88 0 0 0 0 0 0 0 0 0 1.88 0 0 -1.88 0 0 0 0 0 0 1.88 0 0 -1.88 0 1.88 0 0 0 0 0 0 0 -1.88 0 0 0 0 1.88 0 0 0 0 0 0 0 0 0 -1.88 0 1.88 0 0 0 0 0 0 0 0 0 0 0 0 0 0 0 0 0 0 0 0 0 0 0 0 0 0 0 0 0 0 0 0 0 0 0 0 0 0 0 0 0 0 0 0 0 0 0 0 0 0 0 0 0 0 0 0 0 0 0 0 0 0 0 0 0 0 0 0 0 0 0 0 0 0 0 0 0 0 0 0 0 0 0 0 0 0 0 0 0 0 0 0 0 1.88 0 -1.88 0 0 1.88 0 -1.88 0 0 1.88 0 0 0 0 -1.88 0 1.88 0 0 -1.88 0 1.88 0 0 0 0 -1.88 0 0 0 0 1.88 0 0 -1.88 0 0 0 0 1.88 0 0 -1.88 0 0 0 0 1.88 0 0 0 0 0 0 0 0 0 0 0 0 0 0 0 0 0 0 0 -1.88 0 1.88 0 0 0 0 0 0 0 0 0 0 0 0 0 0 0 0 0 0 0 0 0 0 0 0 0 0 0 0 0 0 0 0 0 0 0 0 0 0 0 0 0 0 0 0 0 0 0 0 0 0 0 0 0 0 0 0 0 0 0 0 0 0 0 0 0 0 0 0 0 0 0 0 0 0 0 0 0 0 0 0 0 0 0 0 0 0 0 0 0 0 0 0 0 0 0 0 0 0 0 0 0 0 0 0 0 0 0 0 0 0 1.88 0 0 -1.88 0 0 0 0 0 0 1.88 0 0 0 0 -1.88 0 0 0 0 0 0 0 1.88 0 0 0 0 -1.88 0 1.88 0 0 -1.88 0 1.88 0 0 0 0 -1.88 0 0 1.88 0 -1.88 0 0 0 0 0 0 0 1.88 0 0 0 0 0 0 0 0 0 0 0 0 0 0 0 0 0 -1.88 0 1.88 0 0 0 0 0 0 0 0 0 0 0 0 0 0 0 0 0 0 0 0 0 0 0 0 0 0 0 0 0 0 0 0 0 0 0 0 0 0 0 0 0 0 0 0 0 0 0 0 0 0 0 0 0 0 0 0 0 0 0 0 0 0 0 0 0 0 0 0 0 0 0 0 0 0 0 0 0 1.88 0 0 -1.88 0 0 0 0 0 0 0 0 0 0 0 1.88 0 0 -1.88 0 1.88 0 0 -1.88 0 0 0 0 1.88 0 0 0 0 0 0 0 -1.88 0 0 0 0 0 0 0 0 0 0 0 1.88 0 0 0 0 -1.88 0 0 1.88 0 0 0 0 0 0 -1.88 0 0 1.88 0 0 0 0 0 0 0 0 0 0 0 0 0 0 0 0 0 0 0 0 0 0 0 0 0 0 0 0 0 0 0 0 0 0 0 0 0 0 0 0 0 0 0 0 0 0 0 0 0 0 0 0 0 0 0 0 0 0 0 0 0 0 0 0 0 0 0 0 0 0 0 0 0 0 0 0 0 0 0 0 0 0 0 0 0 0 0 0 0 0 0 0 0 0 0 0 0 0 0 0 0 0 0 0 0 1.88 0 -1.88 0 0 0 0 0 0 0 0 0 0 0 0 0 0 0 0 0 0 0 0 0 0 0 0 0 0 0 0 0 1.88 0 0 -1.88 0 1.88 0 0 -1.88 0 0 0 0 0 0 0 0 0 0 0 0 0 0 0 0 0 1.88 0 -1.88 0 0 0 0 0 0 0 0 0 0 0 0 1.88 0 0 0 0 0 0 -1.88 0 0 0 0 0 0 0 0 0 0 0 0 1.88 0 0 0 0 0 0 0 0 0 0 0 0 0 0 0 0 0 -1.88 0 1.88 0 0 0 0 0 0 0 0 0 0 0 0 -1.88 0 1.88 0 0 0 0 0 0 0 0 0 0 0 0 0 0 0 0 0 -1.88 0 1.88 0 0 0 0 0 0 0 0 0 0 0 0 -1.88 0 1.88 0 0 0 0 0 0 0 0 0 0 0 0 0 0 0 0 0 0 0 0 0 0 0 0 0 0 0 0 0 0 0 0 0 0 0 0 0 0 0 0 0 0 0 0 0 0 0 0 0 0 0 0 0 0 0 0 0 0 0 0 0 0 0 0 0 0 0 0 0 0 0 0 0 0 0 0 0 0 0 0 0 0 0 0 0 0 0 0 0 0 0 0 0 0 0 0 0 0 0 0 0 0 0 0 0 0 0 0 0 0 0 0 0 0 0 0 0 0 0 0 0 0 0 0 0 0 0 0 1.88 0 0 -1.88 0 0 0 0 0 0 0 0 0 0 0 0 0 0 0 0 0 0 0 1.88 0 -1.88 0 0 0 0 0 0 0 0 0 1.88 0 0 -1.88 0 0 0 0 0 0 0 0 0 0 0 0 0 0 0 0 0 0 0 0 0 0 0 0 0 0 0 1.88 0 -1.88 0 0 0 0 0 0 0 0 0 0 0 0 1.88 0 0 0 0 0 0 0 0 0 0 0 0 0 0 0 0 -1.88 0 0 0 0 0 0 0 0 0 1.88 0 0 -1.88 0 0 0 0 1.88 0 0 0 0 0 0 0 0 0 0 0 0 0 0 0 0 0 -1.88 0 1.88 0 0 0 0 0 0 0 0 0 -1.88 0 0 1.88 0 0 0 0 0 0 0 0 0 0 0 -1.88 0 0 1.88 0 0 0 0 0 0 0 0 0 0 0 0 0 0 0 0 0 0 0 0 0 0 0 0 0 0 0 0 0 0 0 0 0 0 0 0 0 0 0 0 0 0 0 0 0 0 0 0 0 0 0 0 0 0 0 0 0 0 0 0 0 0 0 0 1.88 0 0 -1.88 0 0 0 0 0 0 0 0 0 0 0 0 0 0 0 0 0 0 0 0 0 0 0 0 0 0 0 0 0 0 0 0 0 0 0 0 0 0 0 1.88 0 0 -1.88 0 1.88 0 0 -1.88 0 0 0 0 0 0 1.88 0 0 -1.88 0 1.88 0 0 -1.88 0 1.88 0 0 0 0 0 0 0 -1.88 0 0 0 0 0 0 0 0 0 1.88 0 0 -1.88 0 1.88 0 0 0 0 0 0 0 -1.88 0 1.88 0 0 -1.88 0 1.88 0 0 0 0 -1.88 0 0 0 0 1.88 0 0 0 0 0 0 0 0 0 0 0 0 -1.88 0 1.88 0 0 0 0 0 0 0 0 0 0 0 0 0 0 0 0 0 -1.88 0 0 1.88 0 0 0 0 0 0 0 0 0 0 0 0 0 0 -1.88 0 1.88 0 0 0 0 0 0 0 0 0 0 0 0 0 0 0 0 0 0 0 0 0 0 0 0 0 0 0 0 0 0 0 0 0 0 0 0 0 0 0 0 0 0 0 0 0 0 0 0 0 0 0 0 0 0 0 0 0 0 0 0 0 0 0 0 0 0 0 0 0 0 0 0 0 0 0 0 0 0 0 0 0 0 0 0 0 0 0 0 0 0 0 0 0 0 0 0 0 0 0 0 0 0 0 0 0 0 0 0 0 0 0 0 0 0 0 0 0 0 0 0 0 0 0 0 0 0 0 0 1.88 0 -1.88 0 0 0 0 0 0 0 0 0 0 0 0 0 0 0 0 0 1.88 0 -1.88 0 0 1.88 0 -1.88 0 0 0 0 0 0 0 0 0 0 0 0 0 0 0 0 0 0 0 0 0 0 0 0 0 0 0 0 0 0 0 0 1.88 0 0 -1.88 0 1.88 0 0 -1.88 0 1.88 0 0 0 0 -1.88 0 0 0 0 0 0 0 0 0 0 0 0 0 0 0 0 0 0 0 1.88 0 0 0 0 0 0 0 0 0 0 -1.88 0 1.88 0 0 0 0 0 0 0 0 0 0 0 0 0 0 0 0 0 0 0 0 0 0 -1.88 0 1.88 0 0 0 0 0 0 0 0 0 0 0 0 0 0 0 0 0 0 0 0 0 0 0 0 0 0 0 0 0 0 0 0 0 0 0 0 0 0 0 0 0 0 0 0 0 0 0 0 0 0 0 0 0 0 0 0 0 0 0 0 0 0 0 0 0 0 0 0 0 0 0 0 0 0 0 0 0 0 0 0 0 0 -1.88 0 0 1.88 0 0 0 0 0 0 0 0 0 0 0 0 0 0 0 0 0 0 0 0 0 0 0 0 0 0 0 0 0 0 0 0 0 0 0 0 0 0 0 0 0 0 0 0 0 0 0 0 0 0 0 0 0 0 0 0 0 0 0 0 0 0 0 0 0 0 0 0 0 0 0 0 0 0 0 0 0 0 0 0 0 0 0 0 0 0 0 0 0 0 0 0 0 0 0 0 0 0 0 0 0 0 0 0 0 0 0 0 0 0 0 0 0 0 0 0 0 0 0 0 0 0 0 0 0 0 0 0 0 0 0 0 0 0 0 0 0 0 0 0 0 0 0 0 0 0 0 0 0 0 0 0 0 0 0 0 0 0 0 0 0 0 0 0 0 1.88 0 0 -1.88 0 0 0 0 0 0 0 0 0 0 0 0 0 0 0 0 0 0 0 0 0 0 0 0 1.88 0 0 -1.88 0 0 0 0 0 0 0 0 0 1.88 0 -1.88 0 0 0 0 1.88 0 0 -1.88 0 1.88 0 0 -1.88 0 0 0 0 1.88 0 -1.88 0 0 0 0 0 0 0 0 0 0 0 0 0 0 0 0 0 0 0 0 0 0 0 0 0 0 0 1.88 0 0 0 0 0 0 0 -1.88 0 1.88 0 0 -1.88 0 1.88 0 0 -1.88 0 0 0 0 0 0 0 0 0 0 0 0 0 0 1.88 0 -1.88 0 0 0 0 1.88 0 0 0 0 -1.88 0 0 1.88 0 0 0 0 0 0 0 0 0 -1.88 0 1.88 0 0 -1.88 0 0 0 0 1.88 0 0 0 0 0 0 0 0 0 0 0 0 0 0 0 0 0 0 0 0 0 0 -1.88 0 1.88 0 0 0 0 0 0 0 -1.88 0 1.88 0 0 0 0 0 0 0 0 0 0 0 0 0 0 0 0 0 0 0 0 0 0 0 0 0 0 0 0 0 0 0 0 0 0 0 0 0 0 0 0 0 0 0 0 0 0 0 0 0 0 0 0 0 0 0 0 0 0 0 0 0 0 0 0 0 0 0 0 0 0 0 0 0 0 0 0 0 0 0 0 0 0 0 0 0 0 0 0 0 0 0 0 0 0 0 0 0 0 0 0 0 0 0 0 0 0 0 0 0 0 0 0 0 0 0 0 0 0 0 0 0 0 0 0 0 0 0 0 0 0 0 0 0 0 0 0 0 0 0 0 0 0 0 0 0 0 0 0 0 0 0 0 0 0 0 0 0 0 0 0 0 0 0 0 0 0 0 0 0 0 0 0 0 0 0 0 0 0 0 0 0 0 0 0 0 0 0 0 0 0 0 0 0 0 0 0 0 0 0 0 0 0 0 0 0 0 0 0 0 0 0 0 0 0 0 0 0 0 0 0 0 0 0 0 0 0 0 0 0 0 0 0 0 0 0 0 0 0 0 0 0 0 0 0 0 0 0 0 0 0 0 0 0 0 0 0 0 0 0 0 0 0 0 0 0 0 0 0 0 0 0 0 0 0 0 0 0 0 0 0 0 0 0 0 0 0 0 0 0 0 0 0 0 0 0 0 0 0 0 0 0 0 0 0 0 0 0 0 0 0 0 0 1.88 0 -1.88 0 0 0 0 0 0 0 0 0 0 0 0 0 0 0 0 0 0 0 0 0 0 0 0 0 0 0 1.88 0 0 -1.88 0 0 0 0 0 0 1.88 0 0 0 0 -1.88 0 0 0 0 0 0 0 0 0 0 0 0 0 0 0 0 0 0 0 0 0 0 1.88 0 -1.88 0 0 0 0 1.88 0 0 0 0 -1.88 0 0 0 0 0 0 0 0 0 0 0 0 0 0 0 0 0 0 0 0 0 0 0 0 0 0 0 1.88 0 0 0 0 -1.88 0 0 0 0 1.88 0 0 -1.88 0 0 0 0 1.88 0 0 0 0 -1.88 0 1.88 0 0 0 0 0 0 0 0 0 -1.88 0 0 0 0 0 0 0 1.88 0 0 -1.88 0 1.88 0 0 -1.88 0 0 0 0 0 0 0 0 0 1.88 0 -1.88 0 0 1.88 0 -1.88 0 0 1.88 0 -1.88 0 0 0 0 0 0 0 1.88 0 0 0 0 0 0 0 0 0 -1.88 0 0 0 0 1.88 0 -1.88 0 0 1.88 0 0 0 0 0 0 0 0 0 0 0 0 -1.88 0 1.88 0 0 -1.88 0 1.88 0 0 0 0 -1.88 0 0 1.88 0 0 0 0 0 0 0 0 0 -1.88 0 1.88 0 0 0 0 -1.88 0 0 1.88 0 0 0 0 0 0 0 0 0 0 0 0 0 0 0 0 0 0 0 0 0 0 0 0 0 0 0 -1.88 0 1.88 0 0 0 0 0 0 0 0 0 0 0 0 0 0 0 0 0 0 0 0 0 0 0 0 0 0 0 0 0 0 0 0 -1.88 0 1.88 0 0 0 0 0 0 0 0 0 0 0 0 0 0 0 0 0 0 0 0 0 0 0 0 0 0 0 0 0 0 0 0 0 0 0 0 0 0 0 0 0 0 0 0 0 0 0 0 0 0 0 0 0 0 0 0 0 0 0 0 0 0 0 0 0 0 0 0 0 0 0 0 0 0 0 0 0 0 0 0 0 0 0 0 0 0 0 0 0 0 0 0 0 0 0 0 0 0 0 0 0 0 0 0 0 0 0 0 0 0 0 0 0 0 0 0 0 0 0 0 0 0 0 0 0 0 0 0 0 0 0 0 0 0 0 0 0 0 0 0 0 0 0 0 0 0 0 0 0 0 0 0 0 0 0 0 0 0 0 0 0 0 0 0 0 0 0 0 0 0 0 0 0 0 0 0 0 0 0 0 0 0 0 0 0 0 0 0 0 0 0 0 0 0 0 0 0 0 0 0 0 0 0 0 0 0 0 0 0 0 0 0 0 0 0 0 0 0 0 0 0 0 0 0 0 0 0 0 0 0 0 0 0 0 0 0 0 0 0 0 0 0 0 0 1.88 0 -1.88 0 0 0 0 0 0 0 0 0 1.88 0 0 -1.88 0 0 0 0 0 0 0 0 0 0 0 0 0 0 1.88 0 0 -1.88 0 1.88 0 0 0 0 -1.88 0 0 1.88 0 -1.88 0 0 0 0 0 0 0 0 0 0 0 0 0 0 1.88 0 0 0 0 0 0 0 -1.88 0 1.88 0 0 -1.88 0 1.88 0 0 -1.88 0 0 0 0 1.88 0 0 0 0 0 0 0 -1.88 0 0 0 0 0 0 1.88 0 0 0 0 -1.88 0 0 0 0 0 0 0 0 0 1.88 0 0 -1.88 0 0 0 0 1.88 0 -1.88 0 0 1.88 0 0 0 0 0 0 -1.88 0 0 1.88 0 0 0 0 -1.88 0 1.88 0 0 -1.88 0 0 0 0 0 0 0 1.88 0 -1.88 0 0 0 0 1.88 0 0 -1.88 0 1.88 0 0 0 0 0 0 0 -1.88 0 1.88 0 0 0 0 0 0 0 -1.88 0 1.88 0 0 0 0 0 0 0 0 0 0 0 0 0 0 0 0 0 -1.88 0 0 0 0 1.88 0 0 0 0 0 0 0 0 0 0 0 0 0 0 -1.88 0 0 1.88 0 -1.88 0 0 0 0 1.88 0 0 0 0 0 0 0 0 0 0 0 0 -1.88 0 0 0 0 1.88 0 0 0 0 0 0 0 0 0 0 0 -1.88 0 0 1.88 0 0 0 0 0 0 0 0 0 0 0 0 0 0 0 0 0 0 0 0 0 0 0 0 -1.88 0 0 1.88 0 0 0 0 0 0 0 0 0 0 0 0 0 0 0 0 -1.88 0 0 1.88 0 0 0 0 0 0 0 0 0 0 0 0 0 0 0 0 0 0 0 0 0 0 0 0 0 0 0 0 0 0 0 0 0 0 0 0 0 0 0 0 0 0 0 0 0 0 0 0 0 0 0 0 0 0 0 0 0 0 0 0 0 0 0 0 0 0 0 0 0 0 0 0 0 0 0 0 0 0 0 0 0 0 0 0 0 1.88 0 -1.88 0 0 0 0 0 0 0 0 0 0 0 0 0 0 0 0 0 0 0 0 0 0 0 0 0 0 0 0 0 0 0 0 0 0 0 0 0 0 0 0 0 0 0 0 0 0 0 0 0 0 0 0 0 0 0 0 0 0 0 0 0 0 0 0 0 0 0 0 0 0 0 0 1.88 0 0 -1.88 0 1.88 0 0 -1.88 0 0 0 0 0 0 0 0 0 0 0 0 0 0 0 0 0 0 0 0 0 1.88 0 0 0 0 -1.88 0 0 0 0 0 0 0 0 0 0 1.88 0 0 0 0 -1.88 0 0 0 0 1.88 0 -1.88 0 0 0 0 0 0 0 0 0 0 0 0 1.88 0 -1.88 0 0 0 0 0 0 0 1.88 0 -1.88 0 0 1.88 0 -1.88 0 0 1.88 0 -1.88 0 0 1.88 0 -1.88 0 0 0 0 0 0 0 0 0 0 0 0 1.88 0 0 0 0 0 0 0 0 0 0 0 0 0 0 0 0 0 -1.88 0 0 0 0 1.88 0 -1.88 0 0 1.88 0 -1.88 0 0 1.88 0 0 0 0 0 0 -1.88 0 0 1.88 0 0 0 0 0 0 0 0 0 -1.88 0 1.88 0 0 0 0 0 0 0 0 0 0 0 0 0 0 0 0 0 0 0 0 -1.88 0 1.88 0 0 -1.88 0 1.88 0 0 0 0 0 0"
         style="fill:none;stroke:#000000;stroke-width:20.0025;stroke-linecap:butt;stroke-linejoin:bevel;stroke-miterlimit:10;stroke-dasharray:60, 60;stroke-dashoffset:0;stroke-opacity:1"
         id="path144" /><path
         d="m 527.5,1006.36 32.551,1.21 32.551,1.16 32.546,1.12 32.551,1.09 32.551,1.04 32.551,0.99 32.551,0.94 32.546,0.89 32.551,0.84 32.551,0.76 32.551,0.71 32.551,0.63 32.546,0.56 32.551,0.49 32.551,0.39 32.55,0.3 32.55,0.19 32.55,0.08 32.55,-0.03 32.55,-0.16 32.55,-0.3 32.55,-0.46 32.55,-0.63 32.55,-0.81 32.55,-1.01 32.55,-1.26 32.55,-1.5 32.55,-1.69 32.55,-1.88 32.55,-2.31 32.55,-3.28 32.55,-4.442 32.55,-4.25 32.55,-0.152 32.55,-6.68 32.55,-9.07 32.55,-8.352 32.55,-0.691 32.55,-18.441 32.55,-12.168 32.55,-14.278 32.55,-16.554 32.55,-18.375 32.55,-17.008 32.55,-3.438 32.55,42.828 32.55,125.131 32.55,195.42 32.55,229.85 32.55,242.47 16.27,121.95 16.28,120.91 16.27,118.55 16.28,110.93 16.28,106.27 16.27,92.43 16.28,82.51 16.27,57.56 16.28,43.23 16.27,28.1 16.27,17.21 16.28,10.1 16.27,0.99 16.28,-3.04 16.28,12.7 16.27,4.09 16.28,-1.35 16.27,-3.55 16.28,-2.72 16.27,5.94 16.27,1.45 16.28,-0.61 16.27,-0.55 16.28,0.51 16.28,1.45 16.27,1.71 16.28,1.61 16.27,1.5 16.28,1.56 16.27,1.69 16.27,1.82 16.28,1.91 16.27,1.99 16.28,2.06 16.28,2.14 16.27,2.2 16.28,2.27 16.27,2.33 16.28,2.38 16.27,2.44 16.27,2.49 16.28,2.54 16.27,2.57 16.28,2.63 16.28,2.65 16.27,2.69 16.28,2.73 16.27,2.76 16.28,2.79 16.27,2.81 16.27,2.84 16.28,2.87 16.27,2.88 16.28,2.91 16.28,2.93 16.27,2.94 16.28,2.98 16.27,2.98 16.28,3 16.27,3.02 16.27,3.02 16.28,3.04 16.27,3.06 16.28,3.07 16.28,3.08 16.27,3.09 16.28,3.09 16.27,3.12 16.28,3.11 16.27,3.12 16.27,3.14 16.28,3.14 16.27,3.15 16.28,3.16 16.28,3.16 16.27,3.17 16.28,3.17 16.27,3.18 16.28,3.19 16.27,3.19 16.27,3.19 16.28,3.2 16.27,3.21 16.28,3.2 16.28,3.21 16.27,3.22 16.28,3.21 16.27,3.23 16.28,3.22 16.27,3.23 16.27,3.23 16.28,3.24 16.27,3.23 16.28,3.24 16.28,3.24 16.27,3.24 16.28,3.24 16.27,3.25 16.28,3.24 16.27,3.25"
         style="fill:none;stroke:#d95319;stroke-width:20.0025;stroke-linecap:butt;stroke-linejoin:round;stroke-miterlimit:10;stroke-dasharray:none;stroke-opacity:1"
         id="path146" /><path
         d="m 610,2490 h 1515 v 345 H 610 Z"
         style="fill:#ffffff;fill-opacity:1;fill-rule:nonzero;stroke:none"
         id="path148" /><g
         id="g150"
         transform="scale(10)"><text
           transform="matrix(1,0,0,-1,96.25,269.351)"
           style="font-variant:normal;font-weight:normal;font-size:12.6px;font-family:'CMU Serif';-inkscape-font-specification:'CMU Serif';writing-mode:lr-tb;fill:#000000;fill-opacity:1;fill-rule:nonzero;stroke:none;font-style:normal;font-stretch:normal"
           id="text154"><tspan
             x="0 7.0056 13.3056 20.311199 27.316799 31.5126 34.309799 44.805599 51.811199 58.816799 62.319599 69.325203 72.122398 75.625198 79.820999 86.826599 93.126602 100.1322 102.9294 106.4322"
             y="0"
             sodipodi:role="line"
             id="tspan152">experimental results</tspan></text></g><path
         d="M 640,2742.25 H 940"
         style="fill:none;stroke:#000000;stroke-width:20.0025;stroke-linecap:butt;stroke-linejoin:bevel;stroke-miterlimit:10;stroke-dasharray:60, 60;stroke-dashoffset:0;stroke-opacity:1"
         id="path156" /><g
         id="g158"
         transform="scale(10)"><text
           transform="matrix(1,0,0,-1,96.25,253.399)"
           style="font-variant:normal;font-weight:normal;font-size:12.6px;font-family:'CMU Serif';-inkscape-font-specification:'CMU Serif';writing-mode:lr-tb;fill:#000000;fill-opacity:1;fill-rule:nonzero;stroke:none;font-style:normal;font-stretch:normal"
           id="text162"><tspan
             x="0 7.0056 14.0112 21.0168 28.0224 31.5252 38.5308 45.5364 49.0392 55.339199 58.136398 68.632202 75.637802 78.434998 85.440598 88.943398 91.740601 98.746201"
             y="0"
             sodipodi:role="line"
             id="tspan160">updated simulation</tspan></text></g><path
         d="M 640,2582.75 H 940"
         style="fill:none;stroke:#d95319;stroke-width:20.0025;stroke-linecap:butt;stroke-linejoin:round;stroke-miterlimit:10;stroke-dasharray:none;stroke-opacity:1"
         id="path164" /><path
         d="m 610,2490 h 1515 v 345 H 610 Z"
         style="fill:none;stroke:#262626;stroke-width:5.0025;stroke-linecap:butt;stroke-linejoin:round;stroke-miterlimit:10;stroke-dasharray:none;stroke-opacity:1"
         id="path166" /></g></g></svg>
