<?xml version="1.0" encoding="UTF-8" standalone="no"?>
<!-- Created with Inkscape (http://www.inkscape.org/) -->

<svg
   version="1.1"
   id="svg2"
   xml:space="preserve"
   width="1200"
   height="496"
   viewBox="0 0 1200 496"
   sodipodi:docname="rigidity.svg"
   inkscape:version="1.1.1 (3bf5ae0d25, 2021-09-20)"
   xmlns:inkscape="http://www.inkscape.org/namespaces/inkscape"
   xmlns:sodipodi="http://sodipodi.sourceforge.net/DTD/sodipodi-0.dtd"
   xmlns="http://www.w3.org/2000/svg"
   xmlns:svg="http://www.w3.org/2000/svg"><defs
     id="defs6" /><sodipodi:namedview
     id="namedview4"
     pagecolor="#ffffff"
     bordercolor="#666666"
     borderopacity="1.0"
     inkscape:pageshadow="2"
     inkscape:pageopacity="0.0"
     inkscape:pagecheckerboard="0"
     showgrid="false"
     inkscape:zoom="0.90583333"
     inkscape:cx="628.70285"
     inkscape:cy="280.95676"
     inkscape:window-width="1920"
     inkscape:window-height="1027"
     inkscape:window-x="-8"
     inkscape:window-y="1072"
     inkscape:window-maximized="1"
     inkscape:current-layer="g8" /><g
     id="g8"
     inkscape:groupmode="layer"
     inkscape:label="rigidity"
     transform="matrix(1.3333333,0,0,-1.3333333,0,496)"><g
       id="g10"
       transform="scale(0.1)"><g
         id="g12"
         transform="scale(10)"><text
           transform="matrix(1,0,0,-1,398.838,356.25)"
           style="font-variant:normal;font-weight:bold;font-size:18px;font-family:'CMU Serif';-inkscape-font-specification:'CMU Serif Bold';writing-mode:lr-tb;fill:#262626;fill-opacity:1;fill-rule:nonzero;stroke:none;font-style:normal;font-stretch:normal"
           id="text16"><tspan
             x="0 7.0019999 12.006 23.004 28.007999 39.006001 44.009998 50.004002 60.012001 65.015999 75.024002 86.022003 96.029999 101.034 111.042 121.05 126.054"
             y="0"
             sodipodi:role="line"
             id="tspan14">rigidity analysis</tspan></text></g><path
         d="M 400,502.5 H 4375 V 3255 H 400 Z"
         style="fill:#ffffff;fill-opacity:1;fill-rule:nonzero;stroke:none"
         id="path18" /><path
         d="M 400,502.5 H 4375"
         style="fill:none;stroke:#262626;stroke-width:5.0025;stroke-linecap:square;stroke-linejoin:round;stroke-miterlimit:10;stroke-dasharray:none;stroke-opacity:1"
         id="path20" /><path
         d="M 400,3255 H 4375"
         style="fill:none;stroke:#262626;stroke-width:5.0025;stroke-linecap:square;stroke-linejoin:round;stroke-miterlimit:10;stroke-dasharray:none;stroke-opacity:1"
         id="path22" /><path
         d="m 400,502.5 v 39.75"
         style="fill:none;stroke:#262626;stroke-width:5.0025;stroke-linecap:square;stroke-linejoin:round;stroke-miterlimit:10;stroke-dasharray:none;stroke-opacity:1"
         id="path24" /><path
         d="m 1062.5,502.5 v 39.75"
         style="fill:none;stroke:#262626;stroke-width:5.0025;stroke-linecap:square;stroke-linejoin:round;stroke-miterlimit:10;stroke-dasharray:none;stroke-opacity:1"
         id="path26" /><path
         d="m 1725,502.5 v 39.75"
         style="fill:none;stroke:#262626;stroke-width:5.0025;stroke-linecap:square;stroke-linejoin:round;stroke-miterlimit:10;stroke-dasharray:none;stroke-opacity:1"
         id="path28" /><path
         d="m 2387.5,502.5 v 39.75"
         style="fill:none;stroke:#262626;stroke-width:5.0025;stroke-linecap:square;stroke-linejoin:round;stroke-miterlimit:10;stroke-dasharray:none;stroke-opacity:1"
         id="path30" /><path
         d="m 3050,502.5 v 39.75"
         style="fill:none;stroke:#262626;stroke-width:5.0025;stroke-linecap:square;stroke-linejoin:round;stroke-miterlimit:10;stroke-dasharray:none;stroke-opacity:1"
         id="path32" /><path
         d="m 3712.5,502.5 v 39.75"
         style="fill:none;stroke:#262626;stroke-width:5.0025;stroke-linecap:square;stroke-linejoin:round;stroke-miterlimit:10;stroke-dasharray:none;stroke-opacity:1"
         id="path34" /><path
         d="m 4375,502.5 v 39.75"
         style="fill:none;stroke:#262626;stroke-width:5.0025;stroke-linecap:square;stroke-linejoin:round;stroke-miterlimit:10;stroke-dasharray:none;stroke-opacity:1"
         id="path36" /><path
         d="m 400,3255 v -39.75"
         style="fill:none;stroke:#262626;stroke-width:5.0025;stroke-linecap:square;stroke-linejoin:round;stroke-miterlimit:10;stroke-dasharray:none;stroke-opacity:1"
         id="path38" /><path
         d="m 1062.5,3255 v -39.75"
         style="fill:none;stroke:#262626;stroke-width:5.0025;stroke-linecap:square;stroke-linejoin:round;stroke-miterlimit:10;stroke-dasharray:none;stroke-opacity:1"
         id="path40" /><path
         d="m 1725,3255 v -39.75"
         style="fill:none;stroke:#262626;stroke-width:5.0025;stroke-linecap:square;stroke-linejoin:round;stroke-miterlimit:10;stroke-dasharray:none;stroke-opacity:1"
         id="path42" /><path
         d="m 2387.5,3255 v -39.75"
         style="fill:none;stroke:#262626;stroke-width:5.0025;stroke-linecap:square;stroke-linejoin:round;stroke-miterlimit:10;stroke-dasharray:none;stroke-opacity:1"
         id="path44" /><path
         d="m 3050,3255 v -39.75"
         style="fill:none;stroke:#262626;stroke-width:5.0025;stroke-linecap:square;stroke-linejoin:round;stroke-miterlimit:10;stroke-dasharray:none;stroke-opacity:1"
         id="path46" /><path
         d="m 3712.5,3255 v -39.75"
         style="fill:none;stroke:#262626;stroke-width:5.0025;stroke-linecap:square;stroke-linejoin:round;stroke-miterlimit:10;stroke-dasharray:none;stroke-opacity:1"
         id="path48" /><path
         d="m 4375,3255 v -39.75"
         style="fill:none;stroke:#262626;stroke-width:5.0025;stroke-linecap:square;stroke-linejoin:round;stroke-miterlimit:10;stroke-dasharray:none;stroke-opacity:1"
         id="path50" /><g
         id="g52"
         transform="scale(10)"><text
           transform="matrix(1,0,0,-1,33.625,31.2)"
           style="font-variant:normal;font-weight:normal;font-size:14.0002px;font-family:'CMU Serif';-inkscape-font-specification:'CMU Serif';writing-mode:lr-tb;fill:#262626;fill-opacity:1;fill-rule:nonzero;stroke:none;font-style:normal;font-stretch:normal"
           id="text56"><tspan
             x="0 4.6620665 66.249786 70.91185 132.49957 137.16164 200.99933 267.24911 333.4989 399.74869"
             y="0"
             sodipodi:role="line"
             id="tspan54">-3-2-10123</tspan></text><text
           transform="matrix(1,0,0,-1,216.25,10.5)"
           style="font-variant:normal;font-weight:normal;font-size:15.3997px;font-family:'CMU Serif';-inkscape-font-specification:'CMU Serif';writing-mode:lr-tb;fill:#262626;fill-opacity:1;fill-rule:nonzero;stroke:none;font-style:normal;font-stretch:normal"
           id="text60"><tspan
             x="0"
             y="0"
             id="tspan58"
             style="-inkscape-font-specification:'CMU Serif';font-family:'CMU Serif';font-weight:normal;font-style:normal;font-stretch:normal;font-variant:normal">u</tspan></text><text
           transform="matrix(1,0,0,-1,225.25,3)"
           style="font-variant:normal;font-weight:normal;font-size:12.3202px;font-family:'CMU Serif';-inkscape-font-specification:'CMU Serif';writing-mode:lr-tb;fill:#262626;fill-opacity:1;fill-rule:nonzero;stroke:none;font-style:normal;font-stretch:normal"
           id="text64"><tspan
             x="0 2.7350843"
             y="0"
             sodipodi:role="line"
             id="tspan62">in</tspan></text><text
           transform="matrix(1,0,0,-1,239.28112,10.5)"
           style="font-variant:normal;font-weight:normal;font-size:15.3997px;font-family:'CMU Serif';-inkscape-font-specification:'CMU Serif';writing-mode:lr-tb;fill:#262626;fill-opacity:1;fill-rule:nonzero;stroke:none;font-style:normal;font-stretch:normal"
           id="text68"><tspan
             x="0 4.2811165 17.109066"
             y="0"
             sodipodi:role="line"
             id="tspan66">[m]</tspan></text></g><path
         d="m 4020.98,86.6016 c 0,0.7812 0.23,1.4453 0.7,1.9961 l 29.65,29.5273 -29.65,29.648 c -0.47,0.469 -0.7,1.094 -0.7,1.875 0,0.704 0.27,1.348 0.82,1.934 0.54,0.586 1.21,0.879 1.99,0.879 0.62,0 1.33,-0.273 2.11,-0.82 l 29.53,-29.532 29.42,29.532 c 0.78,0.547 1.48,0.82 2.11,0.82 0.77,0 1.44,-0.273 1.98,-0.82 0.55,-0.547 0.83,-1.215 0.83,-1.993 0,-0.781 -0.24,-1.406 -0.71,-1.875 l -29.65,-29.648 29.65,-29.5273 c 0.47,-0.5508 0.71,-1.2149 0.71,-1.9961 0,-0.7774 -0.28,-1.4453 -0.83,-1.9922 -0.54,-0.5469 -1.21,-0.8203 -1.98,-0.8203 -0.71,0 -1.41,0.3515 -2.11,1.0586 l -29.42,29.2933 -29.53,-29.2933 c -0.63,-0.7071 -1.33,-1.0586 -2.11,-1.0586 -0.78,0 -1.45,0.2929 -1.99,0.8789 -0.55,0.5859 -0.82,1.2304 -0.82,1.9336"
         style="fill:#262626;fill-opacity:1;fill-rule:nonzero;stroke:none"
         id="path70" /><g
         id="g72"
         transform="scale(10)"><text
           transform="matrix(1,0,0,-1,411.25,8.25)"
           style="font-variant:normal;font-weight:normal;font-size:14.0002px;font-family:'CMU Serif';-inkscape-font-specification:'CMU Serif';writing-mode:lr-tb;fill:#262626;fill-opacity:1;fill-rule:nonzero;stroke:none;font-style:normal;font-stretch:normal"
           id="text76"><tspan
             x="0 7.784111"
             y="0"
             sodipodi:role="line"
             id="tspan74">10</tspan></text><text
           transform="matrix(1,0,0,-1,427,15)"
           style="font-variant:normal;font-weight:normal;font-size:11.1997px;font-family:'CMU Serif';-inkscape-font-specification:'CMU Serif';writing-mode:lr-tb;fill:#262626;fill-opacity:1;fill-rule:nonzero;stroke:none;font-style:normal;font-stretch:normal"
           id="text80"><tspan
             x="0 3.7295001"
             y="0"
             sodipodi:role="line"
             id="tspan78">-3</tspan></text></g><path
         d="M 400,502.5 V 3255"
         style="fill:none;stroke:#262626;stroke-width:5.0025;stroke-linecap:square;stroke-linejoin:round;stroke-miterlimit:10;stroke-dasharray:none;stroke-opacity:1"
         id="path82" /><path
         d="M 4375,502.5 V 3255"
         style="fill:none;stroke:#262626;stroke-width:5.0025;stroke-linecap:square;stroke-linejoin:round;stroke-miterlimit:10;stroke-dasharray:none;stroke-opacity:1"
         id="path84" /><path
         d="m 400,502.5 h 39.75"
         style="fill:none;stroke:#262626;stroke-width:5.0025;stroke-linecap:square;stroke-linejoin:round;stroke-miterlimit:10;stroke-dasharray:none;stroke-opacity:1"
         id="path86" /><path
         d="m 400,895.719 h 39.75"
         style="fill:none;stroke:#262626;stroke-width:5.0025;stroke-linecap:square;stroke-linejoin:round;stroke-miterlimit:10;stroke-dasharray:none;stroke-opacity:1"
         id="path88" /><path
         d="m 400,1288.93 h 39.75"
         style="fill:none;stroke:#262626;stroke-width:5.0025;stroke-linecap:square;stroke-linejoin:round;stroke-miterlimit:10;stroke-dasharray:none;stroke-opacity:1"
         id="path90" /><path
         d="m 400,1682.14 h 39.75"
         style="fill:none;stroke:#262626;stroke-width:5.0025;stroke-linecap:square;stroke-linejoin:round;stroke-miterlimit:10;stroke-dasharray:none;stroke-opacity:1"
         id="path92" /><path
         d="m 400,2075.36 h 39.75"
         style="fill:none;stroke:#262626;stroke-width:5.0025;stroke-linecap:square;stroke-linejoin:round;stroke-miterlimit:10;stroke-dasharray:none;stroke-opacity:1"
         id="path94" /><path
         d="m 400,2468.57 h 39.75"
         style="fill:none;stroke:#262626;stroke-width:5.0025;stroke-linecap:square;stroke-linejoin:round;stroke-miterlimit:10;stroke-dasharray:none;stroke-opacity:1"
         id="path96" /><path
         d="m 400,2861.78 h 39.75"
         style="fill:none;stroke:#262626;stroke-width:5.0025;stroke-linecap:square;stroke-linejoin:round;stroke-miterlimit:10;stroke-dasharray:none;stroke-opacity:1"
         id="path98" /><path
         d="m 400,3255 h 39.75"
         style="fill:none;stroke:#262626;stroke-width:5.0025;stroke-linecap:square;stroke-linejoin:round;stroke-miterlimit:10;stroke-dasharray:none;stroke-opacity:1"
         id="path100" /><path
         d="m 4375,502.5 h -39.75"
         style="fill:none;stroke:#262626;stroke-width:5.0025;stroke-linecap:square;stroke-linejoin:round;stroke-miterlimit:10;stroke-dasharray:none;stroke-opacity:1"
         id="path102" /><path
         d="m 4375,895.719 h -39.75"
         style="fill:none;stroke:#262626;stroke-width:5.0025;stroke-linecap:square;stroke-linejoin:round;stroke-miterlimit:10;stroke-dasharray:none;stroke-opacity:1"
         id="path104" /><path
         d="m 4375,1288.93 h -39.75"
         style="fill:none;stroke:#262626;stroke-width:5.0025;stroke-linecap:square;stroke-linejoin:round;stroke-miterlimit:10;stroke-dasharray:none;stroke-opacity:1"
         id="path106" /><path
         d="m 4375,1682.14 h -39.75"
         style="fill:none;stroke:#262626;stroke-width:5.0025;stroke-linecap:square;stroke-linejoin:round;stroke-miterlimit:10;stroke-dasharray:none;stroke-opacity:1"
         id="path108" /><path
         d="m 4375,2075.36 h -39.75"
         style="fill:none;stroke:#262626;stroke-width:5.0025;stroke-linecap:square;stroke-linejoin:round;stroke-miterlimit:10;stroke-dasharray:none;stroke-opacity:1"
         id="path110" /><path
         d="m 4375,2468.57 h -39.75"
         style="fill:none;stroke:#262626;stroke-width:5.0025;stroke-linecap:square;stroke-linejoin:round;stroke-miterlimit:10;stroke-dasharray:none;stroke-opacity:1"
         id="path112" /><path
         d="m 4375,2861.78 h -39.75"
         style="fill:none;stroke:#262626;stroke-width:5.0025;stroke-linecap:square;stroke-linejoin:round;stroke-miterlimit:10;stroke-dasharray:none;stroke-opacity:1"
         id="path114" /><path
         d="m 4375,3255 h -39.75"
         style="fill:none;stroke:#262626;stroke-width:5.0025;stroke-linecap:square;stroke-linejoin:round;stroke-miterlimit:10;stroke-dasharray:none;stroke-opacity:1"
         id="path116" /><g
         id="g118"
         transform="scale(10)"><text
           transform="matrix(1,0,0,-1,26.95,45)"
           style="font-variant:normal;font-weight:normal;font-size:14.0002px;font-family:'CMU Serif';-inkscape-font-specification:'CMU Serif';writing-mode:lr-tb;fill:#262626;fill-opacity:1;fill-rule:nonzero;stroke:none;font-style:normal;font-stretch:normal"
           id="text136"><tspan
             x="0"
             y="0"
             id="tspan120"
             style="-inkscape-font-specification:'CMU Serif';font-family:'CMU Serif';font-weight:normal;font-style:normal;font-stretch:normal;font-variant:normal">0</tspan><tspan
             x="0"
             y="-39.321499"
             id="tspan122"
             style="-inkscape-font-specification:'CMU Serif';font-family:'CMU Serif';font-weight:normal;font-style:normal;font-stretch:normal;font-variant:normal">1</tspan><tspan
             x="0"
             y="-78.642998"
             id="tspan124"
             style="-inkscape-font-specification:'CMU Serif';font-family:'CMU Serif';font-weight:normal;font-style:normal;font-stretch:normal;font-variant:normal">2</tspan><tspan
             x="0"
             y="-117.9645"
             id="tspan126"
             style="-inkscape-font-specification:'CMU Serif';font-family:'CMU Serif';font-weight:normal;font-style:normal;font-stretch:normal;font-variant:normal">3</tspan><tspan
             x="0"
             y="-157.2856"
             id="tspan128"
             style="-inkscape-font-specification:'CMU Serif';font-family:'CMU Serif';font-weight:normal;font-style:normal;font-stretch:normal;font-variant:normal">4</tspan><tspan
             x="0"
             y="-196.6071"
             id="tspan130"
             style="-inkscape-font-specification:'CMU Serif';font-family:'CMU Serif';font-weight:normal;font-style:normal;font-stretch:normal;font-variant:normal">5</tspan><tspan
             x="0"
             y="-235.9286"
             id="tspan132"
             style="-inkscape-font-specification:'CMU Serif';font-family:'CMU Serif';font-weight:normal;font-style:normal;font-stretch:normal;font-variant:normal">6</tspan><tspan
             x="0"
             y="-275.25009"
             id="tspan134"
             style="-inkscape-font-specification:'CMU Serif';font-family:'CMU Serif';font-weight:normal;font-style:normal;font-stretch:normal;font-variant:normal">7</tspan></text><text
           transform="matrix(0,1,1,0,13.75,162)"
           style="font-variant:normal;font-weight:normal;font-size:15.3997px;font-family:'CMU Serif';-inkscape-font-specification:'CMU Serif';writing-mode:lr-tb;fill:#262626;fill-opacity:1;fill-rule:nonzero;stroke:none;font-style:normal;font-stretch:normal"
           id="text140"><tspan
             x="0"
             y="0"
             id="tspan138"
             style="-inkscape-font-specification:'CMU Serif';font-family:'CMU Serif';font-weight:normal;font-style:normal;font-stretch:normal;font-variant:normal">u</tspan></text><text
           transform="matrix(0,1,1,0,21.25,171)"
           style="font-variant:normal;font-weight:normal;font-size:12.3202px;font-family:'CMU Serif';-inkscape-font-specification:'CMU Serif';writing-mode:lr-tb;fill:#262626;fill-opacity:1;fill-rule:nonzero;stroke:none;font-style:normal;font-stretch:normal"
           id="text144"><tspan
             x="0 6.8500314 13.700063"
             y="0"
             sodipodi:role="line"
             id="tspan142">out</tspan></text><text
           transform="matrix(0,1,1,0,13.75,192.53112)"
           style="font-variant:normal;font-weight:normal;font-size:15.3997px;font-family:'CMU Serif';-inkscape-font-specification:'CMU Serif';writing-mode:lr-tb;fill:#262626;fill-opacity:1;fill-rule:nonzero;stroke:none;font-style:normal;font-stretch:normal"
           id="text148"><tspan
             x="0 4.2811165 17.109066"
             y="0"
             sodipodi:role="line"
             id="tspan146">[m]</tspan></text></g><path
         d="m 420.977,3296.6 c 0,0.78 0.234,1.45 0.707,2 l 29.644,29.53 -29.644,29.64 c -0.473,0.47 -0.707,1.1 -0.707,1.88 0,0.7 0.273,1.35 0.82,1.93 0.547,0.59 1.215,0.88 1.992,0.88 0.625,0 1.328,-0.27 2.109,-0.82 l 29.536,-29.53 29.414,29.53 c 0.781,0.55 1.48,0.82 2.105,0.82 0.781,0 1.445,-0.27 1.988,-0.82 0.551,-0.55 0.825,-1.21 0.825,-1.99 0,-0.78 -0.235,-1.41 -0.703,-1.88 l -29.649,-29.64 29.649,-29.53 c 0.468,-0.55 0.703,-1.22 0.703,-2 0,-0.78 -0.274,-1.44 -0.825,-1.99 -0.543,-0.55 -1.207,-0.82 -1.988,-0.82 -0.703,0 -1.406,0.35 -2.105,1.06 l -29.414,29.29 -29.536,-29.29 c -0.625,-0.71 -1.328,-1.06 -2.109,-1.06 -0.777,0 -1.445,0.29 -1.992,0.88 -0.547,0.58 -0.82,1.23 -0.82,1.93"
         style="fill:#262626;fill-opacity:1;fill-rule:nonzero;stroke:none"
         id="path150" /><g
         id="g152"
         transform="scale(10)"><text
           transform="matrix(1,0,0,-1,51.25,329.25)"
           style="font-variant:normal;font-weight:normal;font-size:14.0002px;font-family:'CMU Serif';-inkscape-font-specification:'CMU Serif';writing-mode:lr-tb;fill:#262626;fill-opacity:1;fill-rule:nonzero;stroke:none;font-style:normal;font-stretch:normal"
           id="text156"><tspan
             x="0 7.784111"
             y="0"
             sodipodi:role="line"
             id="tspan154">10</tspan></text><text
           transform="matrix(1,0,0,-1,67,336)"
           style="font-variant:normal;font-weight:normal;font-size:11.1997px;font-family:'CMU Serif';-inkscape-font-specification:'CMU Serif';writing-mode:lr-tb;fill:#262626;fill-opacity:1;fill-rule:nonzero;stroke:none;font-style:normal;font-stretch:normal"
           id="text160"><tspan
             x="0 3.7295001"
             y="0"
             sodipodi:role="line"
             id="tspan158">-3</tspan></text></g><g
         id="g162"
         transform="scale(10)"><text
           transform="matrix(1,0,0,-1,159.25,332.138)"
           style="font-variant:normal;font-weight:bold;font-size:15.3997px;font-family:'CMU Serif';-inkscape-font-specification:'CMU Serif Bold';writing-mode:lr-tb;fill:#000000;fill-opacity:1;fill-rule:nonzero;stroke:none;font-style:normal;font-stretch:normal"
           id="text166"><tspan
             x="0 9.4092169 13.690333 22.252567 31.661783 35.942902 44.505135 53.067368 61.629601 75.319931 83.882164 93.291382 98.419479 102.7006 108.69109 117.25332 121.53443 130.09666 135.22476 139.50589 148.9151"
             y="0"
             sodipodi:role="line"
             id="tspan164">displacement relation</tspan></text></g><path
         d="m 403.977,2893.94 1.984,-6.13 1.996,3.39 1.988,-5.09 1.989,2.56 1.988,2.97 1.984,3.33 1.989,-0.66 1.988,-0.44 1.988,-0.1 1.992,0.02 1.989,-5.06 1.988,-1.17 1.988,1.03 1.988,4.98 1.985,-1.95 1.988,-15.61 1.996,7.99 1.988,2.5 1.989,16.28 1.984,-21 1.988,-3.93 1.989,6.23 1.988,6.78 1.988,-1.15 1.992,2.18 1.989,0.65 1.988,-16.99 1.988,-0.68 1.985,-0.4 1.988,-0.76 1.988,0.81 1.996,2.95 1.989,2.66 1.984,0.98 1.988,0.37 1.989,2.51 1.988,2.77 1.988,2.13 1.984,1.36 1.997,-7.26 1.988,-3.81 1.988,-4.28 1.988,-1.19 1.985,9.17 1.988,-10.79 1.988,-3.95 1.989,2.41 1.992,1.53 1.988,-1.69 1.988,-0.96 1.989,1.95 1.988,-1.15 1.984,1.18 1.989,1.96 1.996,2.42 1.988,-1.47 1.988,0.06 1.985,0.71 1.988,2 1.988,0.62 1.988,-3.65 1.989,-4.99 1.992,-3.85 1.988,-10.24 1.988,-7.18 1.989,-6.87 1.984,-8.71 1.988,-6.23 1.989,-9.74 1.996,2.89 1.988,-0.09 1.984,-0.05 1.989,-2.91 1.988,0.27 1.988,1.86 1.989,-2.18 1.984,-1.58 1.996,-1.13 1.988,-0.81 1.989,-1.16 1.988,-0.79 1.984,-18.74 1.989,-0.62 1.988,-2.64 1.996,-4.47 1.984,-5.98 1.989,-1.85 1.988,-1.48 1.988,-0.98 1.988,-0.09 1.985,0.55 1.988,-3.08 1.996,-1.3 1.988,-0.8 1.989,-2.75 1.984,-0.78 1.988,0.78 1.989,0.13 1.988,-2.34 1.992,-2.56 1.988,-0.24 1.989,0.1 1.988,-1.18 1.988,-0.39 1.985,0.11 1.988,-4.04 1.988,-8.04 1.996,-4.14 1.989,-2.34 1.984,-1.64 1.988,-0.51 1.989,-2.13 1.988,-2.05 1.988,-0.67 1.992,-4.2 1.989,-0.94 1.988,-0.13 1.988,0.43 1.988,-1.93 1.985,-2.52 1.988,-1.01 1.988,-0.79 1.996,-4.07 1.985,-2.22 1.988,1.31 1.988,0.54 1.989,-4.22 1.988,-2.64 1.984,-0.78 1.989,-1.99 h 1.996 l 1.988,0.35 1.988,1.29 1.985,-5.63 1.988,-8.68 1.988,-5.34 1.988,-8.62 1.993,0.76 1.988,-0.45 1.988,-2.01 1.988,-10.72 1.989,-2.31 1.984,-0.01 1.988,-1.44 1.989,-4.4 1.996,-2.11 1.988,-2.09 1.984,-2.04 1.989,-2.79 1.988,-2.51 1.988,-0.52 1.989,-0.25 1.992,-0.96 1.988,-1.99 1.988,-1.34 1.989,-4.73 1.988,-2.59 1.984,-0.28 1.989,-2.28 1.988,-2.68 1.996,-2.93 1.984,-1.73 1.989,-0.49 1.988,-1.69 1.988,-2.36 1.988,-0.86 1.985,-2.69 1.996,-8.78 1.988,-0.89 1.988,-6.03 1.989,-2.96 1.984,-1.98 1.988,-0.56 1.989,-2.66 1.988,-3.96 1.992,-0.48 1.988,-1.8 1.989,-3.71 1.988,-2.91 1.988,-1.57 1.985,-4.34 1.988,-4.35 1.996,-1.95 1.988,-1.29 1.989,-2.42 1.984,-0.56 1.988,-0.65 1.989,0.03 1.988,-2.64 1.988,0.13 1.992,-2.17 1.989,-3.88 1.988,-6.23 1.988,-1.98 1.988,-4.07 1.985,-1.56 1.988,-2.95 1.996,-1.25 1.988,-2.06 1.985,-3.86 1.988,-1.38 1.988,-0.12 1.989,-1.78 1.988,-2.01 1.984,-1.09 1.996,-1.91 1.989,-2.19 1.988,-7.17 1.988,-7.55 1.985,-2.57 1.988,-4.57 1.988,-3.4 1.996,-3.02 1.985,-4.25 1.988,-3.48 1.988,-3.08 1.988,0.25 1.989,-1.32 1.984,-0.34 1.988,-0.73 1.997,-0.5 1.988,-1.53 1.988,-1.75 1.984,-4.55 1.989,-5 1.988,-4.11 1.988,-2.82 1.989,-1.06 1.992,-0.43 1.988,-0.52 1.988,-1.18 1.989,-4.49 1.988,-2.52 1.984,-7.39 1.989,-3.45 1.996,-0.61 1.988,-0.42 1.984,-3.61 1.989,-5.76 1.988,-1.97 1.988,-0.8 1.988,-1.37 1.985,-1.54 1.996,-2.2 1.988,-1.43 1.988,-2.56 1.989,-6.08 1.984,-4.41 1.988,-3.86 1.989,-1.24 1.996,-2.02 1.984,-3.03 1.988,-1.81 1.989,-2.07 1.988,-2.16 1.988,-5.29 1.985,-1.57 1.988,0.95 1.996,0.9 1.988,0.34 1.989,-2.04 1.984,-2.35 1.988,-2.41 1.989,-3.43 1.988,-4.38 1.996,-3.85 1.984,-5.77 1.989,-2.78 1.988,-2.4 1.988,-4.9 1.988,-4.38 1.985,-4.01 1.988,-4.35 1.996,-2.11 1.988,-1.41 1.985,-0.58 1.988,-2.44 1.988,-2.34 1.989,-2.33 1.988,-3.33 1.992,-1.6 1.988,-5.74 1.989,-1.5 1.988,-1.39 1.988,-1.6 1.985,-0.42 1.988,-5.19 1.988,-2.98 1.996,-4.58 1.989,-1.26 1.984,-3.45 1.988,-3.74 1.988,-0.61 1.989,-0.06 1.984,-0.79 1.996,-2.53 1.989,-4.62 1.988,-2.91 1.988,-1.7 1.981,-4.6 1.99,-5.65 1.99,0.84 1.99,1.16 1.99,-3.06 1.99,-5.36 1.99,-1.85 1.99,-0.29 1.98,-2.13 1.99,-1.56 1.99,-0.19 1.98,-2.16 2,-2.26 1.99,-6.02 1.98,-3.13 1.99,-2.62 1.99,-3.23 1.99,-0.06 1.99,-4.57 1.99,-2.14 1.99,-2.5 1.99,-2.48 1.98,-3.29 1.99,-2.99 1.99,-2.32 1.98,-3.23 1.99,-5.53 2,-1.95 1.99,-2.04 1.98,-0.42 1.99,-2.6 1.99,-0.33 1.99,-1.86 1.98,-3.57 2,-0.94 1.99,0.01 1.98,-4.18 1.99,-1.47 1.99,-4.24 1.98,-3.58 1.99,-3.7 1.99,-4.07 2,-5.94 1.98,-1.1 1.99,0.33 1.99,0.08 1.99,-7.32 1.98,-2.25 1.99,-3.84 1.99,-4.54 1.99,-1.77 1.99,-1.72 1.99,-0.73 1.98,-0.89 1.99,-3.01 1.99,-1.67 1.99,-2.3 1.99,-6.3 1.99,-5.34 1.99,-1.87 1.99,-1.54 1.98,-1.22 1.99,-1.96 1.99,-6.31 1.99,-2.15 1.99,-3.58 1.99,-0.09 1.98,-2.62 1.99,-2.7 1.99,-3.53 1.99,-2.7 1.98,-1.2 2,-2.16 1.99,-1.02 1.99,-1.17 1.98,-6.72 1.99,-11.58 1.99,-5.85 1.99,-3.81 1.99,-2.04 1.99,-3.36 1.98,-2.57 1.99,-2.91 1.99,-3.27 1.99,-0.53 1.99,-3.13 1.98,-4.42 2,-1.75 1.99,-1.33 1.98,-2.56 1.99,-2.22 1.99,-1.57 1.98,-3.32 1.99,-0.99 1.99,-1.04 1.99,-3.81 1.99,-7.72 1.99,-4.62 1.99,-4.31 1.99,-2 1.98,-3.83 1.99,-3.16 2,-2.45 1.98,-2.58 1.99,-2.58 1.99,-7.83 1.98,-3.71 1.99,-5.09 1.99,-2.44 1.99,-4.02 1.99,-2.86 1.99,-1.71 1.99,-2.06 1.99,-1.63 1.98,-0.42 1.99,-5.36 1.99,-3.42 1.99,-1.61 1.99,-1.99 1.99,-3.97 1.98,-1.4 1.99,-3.5 1.99,-4.46 1.99,-6.08 1.98,-2.66 2,-1.64 1.99,-2.4 1.99,-1.25 1.98,-2.67 1.99,-2.05 1.99,-2.82 1.99,-2.55 1.99,-3.23 1.99,-3.13 1.98,-2.23 1.99,-1.4 1.99,-4.17 1.99,-4.95 1.98,-3.54 1.99,-4.32 2,-2.71 1.99,-5.06 1.98,-5.38 1.99,-3.27 1.99,-1.98 1.99,-0.61 1.98,-2.41 2,-2.01 1.98,0.43 1.99,-3.64 1.99,-0.92 1.99,-1.83 1.98,-2.35 1.99,-3.5 1.99,-0.71 2,-7.97 1.98,-3.57 1.99,-0.23 1.99,-2.69 1.99,-3.37 1.98,-5.71 1.99,-8.84 1.99,-6.97 1.99,-2.76 1.99,-3.83 1.99,-2.44 1.98,-1.63 1.99,-2.53 1.99,-1.27 1.99,-1.23 1.99,0.13 1.99,-4.38 1.99,-5.65 1.99,-3.66 1.98,-5.97 1.99,-3.64 1.99,-4.58 1.99,-4.34 1.99,-2.88 1.99,-3.73 1.99,-4.74 1.98,-3.38 1.99,-1.24 1.99,-2.86 1.99,-2.35 1.99,-8.91 1.99,-7.36 1.99,-1.77 1.98,-3.58 1.99,-1.82 1.99,-2.33 1.98,-2.1 1.99,-5.2 2,-7.03 1.99,-3.97 1.98,-2.13 1.99,-4.59 1.99,-3.28 1.99,-3.36 1.98,-14.91 2,-6.04 1.98,-4.24 1.99,-7.86 1.99,-2.37 1.99,-0.99 1.98,-5.32 1.99,-13.6 1.99,-2.52 2,-0.13 1.98,-0.52 1.99,-7.19 1.99,-4.62 1.99,-4.03 1.98,-2.8 1.99,-6.77 1.99,-5.34 1.99,-6.78 1.99,-4.15 1.99,-5.45 1.98,0.06 1.99,1.27 1.99,-6.47 1.99,-6.11 1.99,-3.17 1.99,-8.91 1.99,-6.78 1.99,-6.41 1.98,-2.55 1.99,-1.68 1.99,-4.39 1.99,-6.39 1.99,-4.67 1.99,-2.32 1.98,-5.2 1.99,-3.76 1.99,-5.01 1.99,-4.94 1.99,-8.66 1.99,-5.06 1.99,-4.72 1.99,-4.04 1.98,-1.15 1.99,0.35 1.99,0.36 1.98,-1.48 2,-3.09 1.99,-3.16 1.98,-5.4 1.99,-0.87 1.99,0.19 1.99,0.41 1.99,0.19 1.98,-6.13 2,-6.47 1.99,-3.89 1.98,-5.6 1.99,-2.87 1.99,-1.58 1.98,-7.14 1.99,-4.95 2,-9.29 1.98,-1.85 1.99,-3.03 1.99,-5.12 1.99,-8.91 1.99,-1.42 1.98,-4.24 1.99,-4.23 2,-1.51 1.98,-3.28 1.99,-1.96 1.99,-5.09 1.98,-2.91 1.99,-3.05 1.99,-2.93 1.99,-0.83 1.99,-0.79 1.99,-0.63 1.99,-2.11 1.99,-2.2 1.98,-7.43 1.99,-3.99 1.99,-2.97 1.99,-8.73 1.99,-6.2 1.99,-2.34 1.98,-1.75 1.99,-8.3 1.99,-2.99 1.99,-5.65 1.98,-3.8 2,-4.81 1.99,-6.15 1.99,-6.89 1.98,-1.08 1.99,-3.29 1.99,-2.86 1.99,-5.13 1.99,-1.26 1.99,-5.27 1.98,-2.84 1.99,-5.85 1.99,-1.27 1.99,-2.61 1.98,-2.99 1.99,-4.79 2,-5.65 1.99,-6.92 1.98,-4.12 1.99,-7.71 1.99,-7.39 1.99,-9.07 1.98,-2.75 2,-4.22 1.98,-3.41 1.99,-2.1 1.99,-3.2 1.99,-4.1 1.98,-5.63 1.99,-5.1 1.99,-4.76 2,-2.64 1.98,-3.04 1.99,-4.66 1.99,-6.48 1.99,-9.22 1.98,-3.32 1.99,-3.07 1.99,-1.28 1.99,-9.66 1.99,-1.16 1.99,-3.12 1.98,-2.26 1.99,-3.13 1.99,-4.92 1.99,-11.91 1.99,-6.57 1.99,-4.67 1.99,-3.28 1.99,-4.13 1.98,-3.44 1.99,-4.11 1.99,-6.68 1.99,-0.21 1.99,-1.49 1.99,-1.62 1.99,-4.57 1.98,-5.19 1.99,-3 1.99,-3.4 1.99,-5.67 1.99,-9.77 1.99,-2.69 1.98,-1.1 1.99,-1.49 1.99,-3.8 1.99,-2.25 1.98,-2.42 1.99,-3.1 2,-4.32 1.99,-2.05 1.98,-2.79 1.99,-3.398 1.99,-6.356 1.99,-5.355 1.98,-1.055 2,-1.41 1.98,-6.316 1.99,-1.703 1.99,-5.34 1.99,-4.035 1.98,-6.758 1.99,2.476 1.99,-8.011 2,-5.196 1.98,-1.695 1.99,-1.77 1.99,-8.46 1.99,-3.286 1.98,0.055 1.99,-2.215 1.99,-0.32 1.99,-0.324 1.99,-1.387 1.99,-2.852 1.98,-7.445 1.99,-1.914 1.99,-3.605 1.99,-6.332 1.99,-0.165 1.99,-0.832 1.99,-0.707 1.99,-1.14 1.98,-0.141 1.99,-4.32 1.99,-1.582 1.99,-3.106 1.99,-1.058 1.99,-0.27 1.98,-2.086 1.99,-3.199 1.99,-2.988 1.99,-3.59 1.99,0.172 1.99,-1.18 1.99,-0.652 1.99,-0.442 1.98,-1.898 1.99,-5.742 1.99,-6.227 1.98,-1.566 2,-2.071 1.99,-4.621 1.98,-1.515 1.99,-1.125 1.99,-1.16 1.99,-1.696 1.99,-2.394 1.98,-4.942 2,-1.703 1.99,-3.621 1.98,-1.906 1.99,-3.36 1.99,-1.539 1.98,-1.312 1.99,0.266 2,-1.817 1.98,-2.566 1.99,-5.168 1.99,0.39 1.99,-1.027 1.99,-4.445 1.98,-6.879 1.99,0.937 2,-3.148 1.98,-1.59 1.99,-1.773 1.99,-4.047 1.98,-0.864 1.99,-0.082 1.99,-1.246 1.99,0.246 1.99,-2.128 1.99,-0.157 1.99,-2.019 1.99,-4.184 1.98,-2.242 1.99,-1.172 1.99,-1.055 1.99,-0.632 1.99,-2.243 1.99,-3.847 1.98,-1.59 1.99,-1.731 1.99,-2.003 1.99,-1.387 1.98,-1.305 2,-1.441 1.99,-1.59 1.99,-1.32 1.98,-3.247 1.99,-2.769 1.99,-2.27 1.99,-3.226 1.99,-1.801 1.99,-0.504 1.98,-3.785 1.99,-6.789 1.99,-1.715 1.99,-0.82 1.98,-2.977 1.99,-3.613 2,-1.582 1.99,-3.934 1.98,-3.093 1.99,-1.442 1.99,-0.375 1.99,-2.672 1.98,-2.172 2,-2.988 1.98,-5.824 1.99,-2.469 1.99,-1.914 1.99,-3.547 1.99,-1.222 1.98,-1.094 1.99,-1.215 2,-0.594 1.98,-0.375 1.99,-0.508 1.99,-2.371 1.99,-4.449 1.98,1.125 1.99,-1.109 1.99,-4.926 1.99,-1.938 1.99,2.25 1.99,-1.086 1.99,-0.796 1.98,0.023 1.99,-2.203 1.99,-1.793 1.99,-0.398 1.99,1.621 1.99,0.953 1.98,-2.012 1.99,-2.039 1.99,-1.5 1.99,-1.262 1.99,-0.758 1.99,-0.48 1.99,-0.621 1.99,-2.324 1.98,-0.43 1.99,-0.387 1.99,-0.937 1.99,-2.258 1.99,-4.449 1.99,-0.793 1.98,-1.848 1.99,-5.129 1.99,-3.254 1.99,-0.691 1.98,-1.543 2,-2.484 1.99,-2.024 1.99,-2.07 1.98,-1.571 1.99,-0.199 1.99,-2.804 1.99,-1.938 1.98,-3.434 2,-1.808 1.98,0.058 1.99,0.176 1.99,0.41 1.99,-1.175 1.98,-2.977 1.99,-0.562 2,-0.032 1.99,-0.886 1.98,-0.067 1.99,-0.082 1.99,-1.051 1.99,-0.254 1.98,-0.652 1.99,-0.644 1.99,-2.063 1.99,-2.223 1.99,-2.765 1.99,-2.699 1.98,-2.11 1.99,0.235 1.99,0.109 1.99,-0.539 1.99,-7.094 1.99,-2.73 1.99,-1.817 1.99,0.774 1.98,-1.567 1.99,-2.004 1.99,-0.171 1.99,-0.766 1.99,0.062 1.99,-0.543 1.98,-0.304 1.99,-0.559 1.99,-0.367 1.99,-0.582 1.99,-0.676 1.99,-2.582 1.99,-0.726 1.99,0.031 1.98,0.472 1.99,0.188 1.99,-1.645 1.98,-1.82 2,-7.199 1.99,0.816 1.98,-1.84 1.99,-0.515 1.99,-0.531 1.99,-0.848 1.99,-0.16 1.98,0.082 2,-1.137 1.99,-0.562 1.98,0.156 1.99,0.008 1.99,-0.489 1.98,-0.773 1.99,-0.367 2,0.242 1.99,0.074 1.98,-0.074 1.99,-0.024 1.99,0.336 1.99,0.715 1.98,-0.039 1.99,-1.726 2,-2.938 1.98,-0.301 1.99,0.36 1.99,-0.024 1.98,-0.043 1.99,-1.109 1.99,-1.254 1.99,-0.164 1.99,-0.227 1.99,0.032 1.99,-1.086 1.99,0.351 1.98,0.262 1.99,-1.191 1.99,0.027 1.99,1.223 1.99,0.273 1.99,0.5 1.98,0.008 1.99,0.008 h 1.99 l 1.99,-0.024 1.98,-0.027 2,-0.145 1.99,-1.898 1.99,0.078 1.98,0.523 1.99,-0.156 1.99,-0.969 1.99,-0.074 1.99,-0.039 1.99,0.067 1.98,-2.766 1.99,0.285 h 1.99 l 1.99,-1.019 1.99,-0.856 1.98,-0.246 2,0.387 1.99,0.367 1.98,-0.289 1.99,1.656 1.99,-0.719 1.99,-0.168 1.98,0.715 2,0.223 1.98,-1.289 1.99,-0.586 1.99,-0.5 1.99,-0.129 1.99,-0.137 1.98,0.168 1.99,0.067 2,-0.555 1.98,-2.039 1.99,-2.231 1.99,-1.003 1.98,1.199 1.99,0.054 1.99,-0.914 1.99,-1.214 1.99,0.457 1.99,1.027 1.99,-0.18 1.99,-0.187 1.98,0.254 1.99,-0.414 1.99,-1.86 1.99,-0.187 1.99,0.105 1.99,2.281 1.98,0.02 1.99,-0.172 1.99,-0.051 1.99,0.465 1.99,0.426 1.99,0.496 1.99,-0.043 1.99,-0.34 1.98,0.34 1.99,-0.152 1.99,0.172 1.99,-4.524 1.99,-0.84 1.99,-0.082 1.98,0.063 1.99,-0.047 1.99,0.023 1.99,0.051 1.98,-0.035 2,-0.031 1.99,0.636 1.99,0.473 1.98,0.52 1.99,0.5 1.99,1.171 1.99,0.329 1.98,-1.707 2,-3.375 1.98,14.332 1.99,3.777 1.99,3.187 1.99,0.454 1.98,0.164 1.99,0.336 1.99,-0.793 2,0.304 1.98,0.137 1.99,-0.23 1.99,-0.903 1.99,-1.558 1.98,-0.172 1.99,0.449 1.99,0.277 1.99,-0.3 1.99,0.367 1.99,0.129 1.98,0.402 1.99,-0.082 1.99,-0.074 1.99,-0.516 1.99,-0.367 1.99,-0.211 1.99,-0.195 1.99,-0.164 1.98,-0.039 1.99,2.496 1.99,1.132 1.99,0.723 1.99,0.957 1.99,0.758 1.98,-0.106 1.99,0.407 1.99,0.277 1.99,-0.766 h 1.99 l 1.99,-0.546 1.99,-0.239 1.99,1.696 1.98,0.195 1.99,0.254 1.99,0.051 1.98,0.332 2,0.156 h 1.99 l 1.99,-0.309 1.98,-0.84 1.99,-0.867 1.99,-1.441 1.99,-0.719 1.98,-0.348 2,0.473 1.99,0.301 1.98,0.058 1.99,0.625 1.99,0.743 1.98,-0.008 1.99,0.547 2,1.769 1.99,-0.027 1.98,-0.008 1.99,-0.023 1.99,0.132 1.99,0.625 1.98,-1.043 1.99,-2.296 1.99,-1.836 1.99,0.621 1.99,0.445 1.99,0.883 1.98,0.527 1.99,2.129 1.99,1.012 2,-0.133 1.98,-0.039 1.99,0.129 1.99,-0.063 1.99,1.239 1.98,1.777 1.99,-0.238 1.99,0.019 1.99,0.098 1.99,-0.254 1.99,-0.684 1.98,-1.378 1.99,-0.262 1.99,0.14 1.99,-0.472 1.99,-0.18 1.99,0.797 1.99,0.742 1.99,0.879 1.98,0.629 1.99,0.473 1.99,-0.243 1.99,-2.324 1.99,2.34 1.99,1.262 1.98,0.562 1.99,-0.496 1.99,0.113 1.99,0.54 1.99,-0.368 1.98,0.309 2,0.391 1.99,0.335 1.98,-0.316 1.99,-1.523 1.99,0.273 1.98,0.793 1.99,1.09 2,0.289 1.98,-0.012 1.99,-0.308 h 1.99 l 1.99,-0.563 1.99,-0.367 1.98,2.008 1.99,0.453 2,0.68 1.98,-0.016 1.99,0.211 1.99,1.125 1.98,1.336 1.99,1.453 1.99,1.801 1.99,0.179 1.99,3.008 1.99,1.008 1.99,0.281 1.99,0.668 1.98,0.317 1.99,-0.203 1.99,1.574 1.99,-0.383 1.99,-0.606 1.99,0.758 1.98,0.082 1.99,0.996 1.99,1.457 1.99,2.625 1.99,0.84 1.99,1.012 1.99,0.473 1.99,1.172 1.98,0.171 1.99,-0.007 1.99,-0.204 1.99,-0.324 1.99,-0.082 1.99,0.203 1.98,0.407 1.99,0.687 1.99,2.625 1.99,1.035 1.98,0.121 1.99,0.145 2,0.246 1.99,0.316 1.98,-0.062 1.99,0.887 1.99,-0.153 1.99,-0.187 1.98,0.894 2,0.426 1.98,-0.074 1.99,0.816 1.99,-1.019 1.99,-0.418 1.98,0.23 1.99,1.516 1.99,1.058 2,2.668 1.98,2.454 1.99,0.906 1.99,0.121 1.99,-0.75 1.98,0.742 1.99,0.375 1.99,0.406 1.99,1.239 1.99,-0.805 1.99,0.855 1.98,1.157 1.99,0.953 1.99,-0.063 1.99,1.375 1.99,0.5 1.99,0.496 1.99,2.11 1.99,2.218 1.98,1.793 1.99,4.321 1.99,0.156 1.99,0.488 1.99,1.625 1.99,-0.082 1.99,0.317 1.98,0.082 1.99,1.574 1.99,1.328 1.99,1.215 1.99,1.906 1.99,0.973 1.99,0.039 1.98,0.242 1.99,-0.469 1.99,-1.281 1.98,0.106 2,0.269 1.99,0.691 1.99,2.309 1.98,0.016 1.99,-2.993 1.99,2.571 1.99,0.551 1.98,0.336 2,0.433 1.98,5.125 1.99,1.5 1.99,0.313 1.99,0.355 1.98,3.66 1.99,0.387 2,2.32 1.99,0.93 1.98,0.578 1.99,0.231 1.99,-0.043 1.99,0.847 1.98,2.137 1.99,0.398 1.99,0.164 1.99,2.008 1.99,7.532 1.99,1.425 1.98,0.489 1.99,1.117 1.99,-0.375 2,4.801 1.98,4.371 1.99,4.379 1.99,0.832 1.99,2.339 1.98,1.043 1.99,0.496 1.99,2.094 1.99,2.219 1.99,-5.715 1.99,0.856 1.98,1.769 1.99,0.473 1.99,0.312 1.99,0.692 1.99,1.215 1.99,5.925 1.99,0.418 1.99,0.668 1.98,0.735 1.99,2.254 1.99,3.433 1.98,3.082 2,2.227 1.99,1.922 1.98,4.222 1.99,1.844 1.99,0.426 1.99,0.551 1.99,2.445 1.98,0.215 2,-0.383 1.99,2.973 1.98,0.418 1.99,-0.758 1.99,2.324 1.98,0.863 1.99,2.348 2,1.297 1.98,0.285 1.99,1.785 1.99,8.414 1.99,7.317 1.99,4.347 1.98,3.52 1.99,1.609 2,-0.051 1.98,0.539 1.99,1.957 1.99,0.356 1.98,1.223 1.99,3.101 1.99,4.555 1.99,0.644 1.99,0.512 1.99,0.059 1.99,1.004 1.99,1.191 1.98,3.668 1.99,2.941 1.99,2.739 1.99,0.48 1.99,2.211 1.99,1.996 1.98,3.906 1.99,2.039 1.99,0.266 1.99,0.898 1.99,0.516 1.99,-1.902 1.99,2.683 1.99,4.141 1.98,5.078 1.99,1.477 1.99,0.945 1.99,3.41 1.99,-1.273 1.99,-0.321 1.98,0.344 1.99,2.399 1.99,2.851 1.99,2.754 1.98,3.695 2,3.196 1.99,1.273 1.99,1.059 1.98,2.773 1.99,2.133 1.99,0.523 1.99,3.047 1.98,2.266 2,1.332 1.98,2.047 1.99,0.683 1.99,0.137 1.99,3.488 1.98,3.516 1.99,2.387 2,4.785 1.99,2.023 1.98,4.094 1.99,1.457 1.99,0.922 1.99,0.801 1.98,1.988 1.99,1.793 1.99,0.414 1.99,2.129 1.99,2.039 1.99,0.914 1.99,-1.844 1.98,0.996 1.99,5.942 2,3.406 1.98,1.859 1.99,3.786 1.99,4.847 1.99,4.711 1.98,4.469 1.99,3.016 1.99,1.265 1.99,1.758 1.99,3.32 1.99,7.352 1.99,3.383 1.98,3.23 1.99,3.074 1.99,1.59 1.99,-0.215 1.99,1.125 1.99,-2.101 1.98,0.992 1.99,2.449 1.99,6.731 1.99,4.34 1.98,3.128 2,-0.808 1.99,2.937 1.99,5.625 1.98,3.317 1.99,1.949 1.99,3.316 1.99,1.821 1.98,4.035 2,3.277 1.98,3.324 1.99,5.528 1.99,1.89 1.99,0.922 1.98,2.512 1.99,5.46 2,5.42 1.99,3.92 1.98,1.59 1.99,-0.26 1.99,4.87 1.99,3.55 1.98,1.72 1.99,1.9 1.99,0.94 1.99,4.37 1.99,4.63 1.99,8.73 1.98,2.31 1.99,3.14 1.99,4.11 2,2.62 1.98,0.73 1.99,3.96 1.99,3.59 1.99,2.52 1.98,3.93 1.99,3.78 1.99,1.1 1.99,3.28 1.99,9.57 1.99,1.27 1.98,2.26 1.99,1.43 1.99,4.07 1.99,1.86 1.99,1.94 1.99,1.95 1.99,5.01 1.99,8.58 1.98,9.58 1.99,3.78 1.99,0.87 1.98,3.34 2,4.16 1.99,5.46 1.98,7.18 1.99,6.05 1.99,3.28 1.99,2.87 1.99,5.56 1.98,5.96 2,5.25 1.99,5.44 1.98,2.81 1.99,0.31 1.99,2.76 1.98,4.11 1.99,1.39 2,1.6 1.98,5.02 1.99,2.92 1.99,5.12 1.99,2.87 1.99,3.08 1.98,5.38 2,4.26 1.99,5.2 1.98,6.07 1.99,3.48 1.99,1.63 1.98,3.14 1.99,6.18 1.99,0.26 2,1.64 1.98,3.28 1.99,3.79 1.99,8.28 1.99,3.16 1.98,3.02 1.99,5.67 1.99,5.08 1.99,7.21 1.99,3.7 1.99,2.93 1.98,1.24 1.99,2.8 1.99,3.43 1.99,2.52 1.99,5.44 1.99,5.72 1.99,1.13 1.99,6.28 1.98,7.5 1.99,4.28 1.99,5.12 1.99,5.06 1.99,0.47 1.99,1.59 1.98,5.09 1.99,6.65 1.99,3.38 1.99,4.49 1.98,3.17 2,3.58 1.99,3.35 1.99,3.41 1.98,1.73 1.99,3.77 1.99,7.86 1.99,4.19 1.98,2.93 2,4.19 1.98,1.67 1.99,6.46 1.99,10.44 1.99,4.35 1.98,6.06 1.99,10.62 2,7.95 1.99,0.75 1.98,1.65 1.99,2.16 1.99,1.43 1.99,0.75 1.98,6.43 1.99,8.45 1.99,2.82 1.99,1.03 1.99,3.06 1.99,3.81 1.99,6.47 1.98,11.5 1.99,1.57 1.99,5.11 1.99,5.71 1.99,0.62 1.99,4.83 1.98,8.69 1.99,3.01 1.99,4.25 1.99,5.66 1.99,3.27 1.99,3.72 1.99,5.34 1.99,5.37 1.98,4.59 1.99,2.18 1.99,3.92 1.99,1.95 1.99,2.36 1.99,0.52 1.98,5.79 1.99,10.63 1.99,6.07 1.99,3.09 1.98,3.96 2,2.58 1.99,0.05 1.99,2.33 1.98,4.69 1.99,10.15 1.99,2.84 1.99,0.91 1.98,3.46 2,1.75 1.98,4.05 1.99,6.07 1.99,5.23 1.99,2.58 1.98,12.14 1.99,4.13 2,6.16 1.99,3.62 1.98,1.75 1.99,3.26 1.99,2.02 1.99,1.78 1.98,5.92 1.99,6.59 1.99,4.93 1.99,6.55 1.99,5.23 1.99,1.42 1.98,4.44 1.99,6.19 1.99,3.59 2,5.8 1.98,5.28 1.99,3.07 1.99,9.98 1.99,5.56 1.98,2.62 1.99,2.61 1.99,0.61 1.99,-0.35 1.99,0.41 1.99,7.27 1.98,3.91 1.99,2.76 1.99,5.55 1.99,4.7 1.99,1.47 1.99,3.26 1.99,4.29 1.99,3 1.98,1.17 1.99,3.81 1.99,3.26 1.98,6.18 2,4.82 1.99,5.68 1.98,4.85 1.99,4.24 1.99,-0.02 1.99,4.1 1.99,2.71 1.99,7.42 1.99,7.11 1.99,2.87 1.98,1.39 1.99,4.43 1.99,11.06 1.98,4.59 1.99,4.62 2,2.48 1.99,5.33 1.98,3.66 1.99,2.31 1.99,4.57 1.99,1.91 1.98,2.22 1.99,1.09 2,3.01 1.98,5.55 1.99,4.23 1.99,10.58 1.98,4.33 1.99,0.39 1.99,1.33 2,3.63 1.98,4.57 1.99,5.49 1.99,2.38 1.99,1.13 1.98,3.57 1.99,8.71 1.99,1.76 1.99,2.49 1.99,2.1 1.99,3.12 1.98,3.5 1.99,3.71 1.99,3.25 1.99,3.23 1.99,2.87 1.99,6.13 1.99,3.54 1.99,3.41 1.98,3.92 1.99,5.59 1.99,1.82 1.99,1.84 1.99,1.99 1.99,4.77 1.98,4.79 1.99,3.89 1.99,-0.22 1.99,2.62 1.99,1.44 1.99,1.93 1.99,5.71 1.99,5.78 1.98,1.06 1.99,3.01 1.99,4.77 1.99,2.58 1.98,3.28 2,3.79 1.98,3.48 1.99,2.4 1.99,5.28 1.99,3.66 1.99,4.21 1.98,2.43 2,7.16 1.99,3.12 1.98,1.3 1.99,2.94 1.99,4.03 1.98,2.38 1.99,6.35 1.99,4.52 1.99,1.42 1.99,3.62 1.99,2.25 1.99,1.75 1.99,0.89 1.98,5 1.99,0.66 2,3.87 1.98,3.42 1.99,2.07 1.99,5.52 1.98,2.86 1.99,1.92 1.99,1.43 1.99,2.86 1.99,4.45 1.99,5.09 1.99,5 1.99,5.91 1.98,1.03 1.99,2.46 1.99,8.99 1.99,4.98 1.99,1.86 1.99,5.86 1.98,7.05 1.99,4.59 1.99,3.14 1.99,1.48 1.98,1.6 2,4.97 1.99,4.9 1.99,3.41 1.98,0.6 1.99,1.69 1.99,4.92 1.99,1.88 1.98,2.34 2,2.99 1.98,2.39 1.99,3 1.99,0.87 1.99,2.03 1.98,5.54 1.99,3.87 2,2.52 1.99,4.06 1.98,5.81 1.99,2.58 1.99,5.14 1.99,2.27 1.98,3.33 1.99,3.07 1.99,4.07 1.99,7.33 1.99,3.69 1.99,0.56 1.98,2.65 1.99,1.58 1.99,1.33 2,0.67 1.98,5.02 1.99,4.19 1.99,4.12 1.99,0.64 1.98,3.27 1.99,2.69 1.99,1.85 1.99,2.35 1.99,3.46 1.99,6.91 1.98,7.67 1.99,0.04 1.99,-0.18 1.99,5.07 1.99,4.92 1.99,1.4 1.99,2.15 1.99,2.83 1.98,3.28 1.99,1.98 1.99,3.61 1.98,4.29 2,5.1 1.99,3.05 1.98,4.54 1.99,7.11 1.99,2.48 1.99,5.49 1.99,6.33 1.99,1.75 1.99,1.18 1.99,-1.12 1.98,7.6 1.99,7.7 1.99,3.91 1.98,2.54 1.99,1.07 2,4.36 1.99,2.91 1.98,3.25 1.99,4.34 1.99,2.87 1.99,1.88 1.98,1.24 2,4.39 1.98,1.68 1.99,3.83 1.99,4.25 1.99,3.21 1.98,6.65 1.99,2 1.99,4.37 2,0.36 1.98,4.12 1.99,7.09 1.99,4.29 1.99,5.46 1.98,-1.38 1.99,2.57 1.99,2.39 1.99,1.11 1.99,2.79 1.99,3.11 1.98,1.19 1.99,1.69 1.99,3.05 1.99,4.7 1.99,3 1.99,1.11 1.99,1.71 1.99,4.4 1.98,2.7 1.99,3.19 1.99,5.42 1.99,2.61 1.99,3.31 1.99,2.55 1.98,-0.49 1.99,1.07 1.99,8.36 1.99,3.9 1.99,0.78 1.99,2.52 1.99,2.07 1.99,2.79 1.98,6.22 1.99,9.26 1.99,1.3 1.98,1.09 1.99,1.29 2,0.82 1.98,0.86 1.99,4.34 1.99,1.13 1.99,-0.94 1.99,4.13 1.98,6.59 2,2.82 1.99,-1.22 1.98,2.86 1.99,6.68 1.99,5.89 1.98,6.09 1.99,6.36 1.99,3.05 1.99,2.06 1.99,2.37 1.99,1.13 1.99,2.76 1.99,4.94 1.98,1.45 1.99,4.26 2,5.69 1.98,0.89 1.99,3.24 1.99,3.57 1.98,3.12 1.99,0.4 1.99,0.86 1.99,2.21 1.99,3.51 1.99,1.54 1.99,2.48 1.99,2.34 1.98,1.97 1.99,2.3 1.99,9.09 1.99,2.79 1.99,1.49 1.99,8.53 1.98,3.27 1.99,2 1.99,1.12 1.99,3.71 1.98,0.83 2,2.37 1.99,4.73 1.99,2.02 1.98,2.75 1.99,6.17 1.99,6.3 1.99,4.08 1.98,-0.18 2,0.64 1.98,1.38 1.99,6.36 1.99,4.34 1.99,1.84 1.98,4.32 1.99,0.73 2,1.25 1.99,1.31 1.98,5.81 1.99,7.3 1.99,1.42 1.99,4.46 1.98,3.15 1.99,1.99 1.99,3 1.99,3.02 1.99,2.57 1.99,-0.22 1.98,5.07 1.99,0.72 1.99,1.08 2,4.87 1.98,-0.63 1.99,2.07 1.99,2.59 1.99,2.32 1.98,5.59 1.99,2.93 1.99,-0.14 1.99,1.41 1.99,1.46 1.99,3.23 1.99,5.03 1.98,5.45 1.99,2.18 1.99,1.79 1.99,2.2 1.99,5.97 1.99,0.16 1.99,-0.52 1.98,0.41 1.99,4.27 1.99,4.11 1.98,1.59 2,3.79 1.99,4.15 1.99,1.93 1.98,0.63 1.99,0.87 1.99,4.79 1.99,55.96 1.98,-6.23 2,-6.18 1.98,-5.28 1.99,1.32 1.99,1.75 1.99,-3.13 1.98,-1.02 1.99,-1.42 2,-2.06 1.99,-2.64 1.98,-1.71 1.99,3.23 1.99,-0.67 1.99,-1.01 1.98,4.62 1.99,3.18 1.99,0.37 1.99,0.71 1.99,5.29 1.99,4.13 1.98,6.18 1.99,4.48 1.99,2.05 2,-10.8 1.98,-4.1 1.99,38.77 1.99,2.58 1.99,2.4 1.98,4.23 1.99,3 1.99,2.61 1.99,3.48 1.99,0.84 1.99,0.23 1.98,1.66 1.99,-44.24 1.99,3.47 1.99,6.12 1.99,8.41 1.99,7.58 1.99,2.4 1.99,7.01 1.98,1.01 1.99,24.7 1.99,2.29 1.98,3.55 2,-2.59 1.99,-8.14 1.98,8.01 1.99,-11.99 1.99,9.21 1.99,-12.76 1.99,13.08 1.99,11.79 1.99,6.84 1.99,5.73 1.98,5.01 1.99,3.11 1.99,3.58 1.98,2.66 1.99,5.95 2,0.3 1.98,-18.23 1.99,6.98"
         style="fill:none;stroke:#000000;stroke-width:20.0025;stroke-linecap:butt;stroke-linejoin:bevel;stroke-miterlimit:10;stroke-dasharray:60, 60;stroke-dashoffset:0;stroke-opacity:1"
         id="path168" /><path
         d="m 400,2549.66 39.75,-29.05 39.75,-29.34 39.75,-29.65 39.75,-29.96 39.75,-30.27 39.75,-30.6 39.75,-30.95 39.75,-31.29 39.75,-31.66 39.75,-32.02 39.75,-32.41 39.75,-32.8 39.75,-33.23 39.75,-33.64 39.75,-34.09 39.75,-34.55 39.75,-35.03 39.75,-35.53 39.75,-36.05 39.75,-36.6 39.75,-37.16 39.75,-37.76 39.75,-38.39 39.75,-39.05 39.75,-39.75 39.75,-40.49 39.75,-41.26 39.75,-42.07 39.75,-42.9 39.75,-43.89 39.75,-45.11 39.75,-46.43 39.75,-47.3 39.75,-47.18 39.75,-50.5 39.75,-52.5 39.75,-53.54 39.75,-53.11 39.75,-59.8 39.75,-60.055 39.75,-62.871 39.75,-66 39.75,-69.332 39.75,-72.113 39.75,-71.863 39.75,-62.649 39.75,-41.836 39.75,-21.312 39.75,-9.504 39.75,-2.715 19.88,0.652 19.87,1.989 19.88,3.464 19.87,5.864 19.88,7.988 19.87,12.129 19.88,15.336 19.87,19.262 19.88,29.308 19.87,30.082 19.88,32.707 19.87,34.27 19.88,36.48 19.87,37.567 19.88,37.379 19.87,29.566 19.88,34.883 19.87,35.355 19.88,34.942 19.87,33.976 19.88,32.981 19.87,32.34 19.88,32.15 19.87,32.04 19.88,31.84 19.87,31.48 19.88,31.1 19.87,30.74 19.88,30.43 19.87,30.15 19.88,29.86 19.87,29.59 19.88,29.31 19.87,29.06 19.88,28.81 19.87,28.56 19.88,28.33 19.87,28.11 19.88,27.89 19.87,27.67 19.88,27.47 19.87,27.28 19.88,27.07 19.87,26.89 19.88,26.7 19.87,26.52 19.88,26.36 19.87,26.18 19.88,26.03 19.87,25.86 19.88,25.7 19.87,25.55 19.88,25.41 19.87,25.25 19.88,25.11 19.87,24.98 19.88,24.84 19.87,24.71 19.88,24.57 19.87,24.45 19.88,24.32 19.87,24.2 19.88,24.08 19.87,23.97 19.88,23.84 19.87,23.73 19.88,23.61 19.87,23.52 19.88,23.4 19.87,23.29 19.88,23.19 19.87,23.09 19.88,22.99 19.87,22.88 19.88,22.78 19.87,22.69 19.88,22.6 19.87,22.5 19.88,22.4 19.87,22.32 19.88,22.22 19.87,22.14 19.88,22.05 19.87,21.96 19.88,21.87 19.87,21.79 19.88,21.71 19.87,21.62 19.88,21.54 19.87,21.46 19.88,21.38 19.87,21.3 19.88,21.22 19.87,21.15 19.88,21.06 19.87,20.99 19.88,20.91 19.87,20.85 19.88,20.76 19.87,20.69"
         style="fill:none;stroke:#d95319;stroke-width:20.0025;stroke-linecap:butt;stroke-linejoin:round;stroke-miterlimit:10;stroke-dasharray:none;stroke-opacity:1"
         id="path170" /><path
         d="m 400,2456.69 109.996,-85.19 198.75,-158.29 198.75,-168.51 198.754,-180.98 198.75,-196.67 198.75,-218.57 156.51,-196.13 156.52,-223.9 104.34,-188.294 69.56,-140.527 69.57,-116.188 198.75,-75.226 198.75,-4.059 29.13,1.578 99.37,11.93 7.33,1.996 90.55,30.996 1.5,-0.238 58.88,46.809 40.49,53.269 19.88,32.184 79.5,140.984 9.93,19.695 89.44,150.52 99.38,163.941 99.37,149.84 99.38,141.54 99.37,135.19 99.38,129.83 99.37,125.27 99.38,121.33 99.37,117.85 99.38,118.61 99.37,108.1 99.38,109.64 99.37,109.3 99.38,106.89 99.37,103.46"
         style="fill:none;stroke:#77ac30;stroke-width:20.0025;stroke-linecap:butt;stroke-linejoin:round;stroke-miterlimit:10;stroke-dasharray:none;stroke-opacity:1"
         id="path172" /><path
         d="M 2822.5,2662.5 H 4300 v 510 H 2822.5 Z"
         style="fill:#ffffff;fill-opacity:1;fill-rule:nonzero;stroke:none"
         id="path174" /><g
         id="g176"
         transform="scale(10)"><text
           transform="matrix(1,0,0,-1,317.5,303)"
           style="font-variant:normal;font-weight:normal;font-size:12.6px;font-family:'CMU Serif';-inkscape-font-specification:'CMU Serif';writing-mode:lr-tb;fill:#000000;fill-opacity:1;fill-rule:nonzero;stroke:none;font-style:normal;font-stretch:normal"
           id="text180"><tspan
             x="0 7.0056 13.3056 20.311199 27.316799 31.5126 34.309799 44.805599 51.811199 58.816799 62.319599 69.325203 72.122398 75.625198 79.820999 86.826599 93.126602 100.1322 102.9294"
             y="0"
             sodipodi:role="line"
             id="tspan178">experimental result</tspan></text></g><path
         d="m 2852.5,3078.75 h 300"
         style="fill:none;stroke:#000000;stroke-width:20.0025;stroke-linecap:butt;stroke-linejoin:bevel;stroke-miterlimit:10;stroke-dasharray:60, 60;stroke-dashoffset:0;stroke-opacity:1"
         id="path182" /><g
         id="g184"
         transform="scale(10)"><text
           transform="matrix(1,0,0,-1,317.5,286.875)"
           style="font-variant:normal;font-weight:normal;font-size:12.6px;font-family:'CMU Serif';-inkscape-font-specification:'CMU Serif';writing-mode:lr-tb;fill:#000000;fill-opacity:1;fill-rule:nonzero;stroke:none;font-style:normal;font-stretch:normal"
           id="text188"><tspan
             x="0 7.0056 14.0112 21.0168 28.0224 31.5252 38.5308 45.5364 49.0392 55.339199 58.136398 68.632202 75.637802 78.434998 85.440598 88.943398 91.740601 98.746201"
             y="0"
             sodipodi:role="line"
             id="tspan186">updated simulation</tspan></text></g><path
         d="m 2852.5,2917.5 h 300"
         style="fill:none;stroke:#d95319;stroke-width:20.0025;stroke-linecap:butt;stroke-linejoin:round;stroke-miterlimit:10;stroke-dasharray:none;stroke-opacity:1"
         id="path190" /><g
         id="g192"
         transform="scale(10)"><text
           transform="matrix(1,0,0,-1,317.5,270.75)"
           style="font-variant:normal;font-weight:normal;font-size:12.6px;font-family:'CMU Serif';-inkscape-font-specification:'CMU Serif';writing-mode:lr-tb;fill:#000000;fill-opacity:1;fill-rule:nonzero;stroke:none;font-style:normal;font-stretch:normal"
           id="text196"><tspan
             x="0 7.0056 14.0112 21.0168 25.212601 29.4084 32.205601 39.211201 42.0084 49.014 52.5168 58.816799 61.613998 72.109802 79.115402 81.912598 88.918198 92.420998 95.218201 102.2238"
             y="0"
             sodipodi:role="line"
             id="tspan194">non-rigid simulation</tspan></text></g><path
         d="m 2852.5,2756.25 h 300"
         style="fill:none;stroke:#77ac30;stroke-width:20.0025;stroke-linecap:butt;stroke-linejoin:round;stroke-miterlimit:10;stroke-dasharray:none;stroke-opacity:1"
         id="path198" /><path
         d="M 2822.5,2662.5 H 4300 v 510 H 2822.5 Z"
         style="fill:none;stroke:#262626;stroke-width:5.0025;stroke-linecap:butt;stroke-linejoin:round;stroke-miterlimit:10;stroke-dasharray:none;stroke-opacity:1"
         id="path200" /><path
         d="M 4960,502.5 H 8942.5 V 3255 H 4960 Z"
         style="fill:#ffffff;fill-opacity:1;fill-rule:nonzero;stroke:none"
         id="path202" /><path
         d="M 4960,502.5 H 8942.5"
         style="fill:none;stroke:#262626;stroke-width:5.0025;stroke-linecap:square;stroke-linejoin:round;stroke-miterlimit:10;stroke-dasharray:none;stroke-opacity:1"
         id="path204" /><path
         d="M 4960,3255 H 8942.5"
         style="fill:none;stroke:#262626;stroke-width:5.0025;stroke-linecap:square;stroke-linejoin:round;stroke-miterlimit:10;stroke-dasharray:none;stroke-opacity:1"
         id="path206" /><path
         d="m 4960,502.5 v 39.824"
         style="fill:none;stroke:#262626;stroke-width:5.0025;stroke-linecap:square;stroke-linejoin:round;stroke-miterlimit:10;stroke-dasharray:none;stroke-opacity:1"
         id="path208" /><path
         d="m 5623.75,502.5 v 39.824"
         style="fill:none;stroke:#262626;stroke-width:5.0025;stroke-linecap:square;stroke-linejoin:round;stroke-miterlimit:10;stroke-dasharray:none;stroke-opacity:1"
         id="path210" /><path
         d="m 6287.5,502.5 v 39.824"
         style="fill:none;stroke:#262626;stroke-width:5.0025;stroke-linecap:square;stroke-linejoin:round;stroke-miterlimit:10;stroke-dasharray:none;stroke-opacity:1"
         id="path212" /><path
         d="m 6951.25,502.5 v 39.824"
         style="fill:none;stroke:#262626;stroke-width:5.0025;stroke-linecap:square;stroke-linejoin:round;stroke-miterlimit:10;stroke-dasharray:none;stroke-opacity:1"
         id="path214" /><path
         d="m 7615,502.5 v 39.824"
         style="fill:none;stroke:#262626;stroke-width:5.0025;stroke-linecap:square;stroke-linejoin:round;stroke-miterlimit:10;stroke-dasharray:none;stroke-opacity:1"
         id="path216" /><path
         d="m 8278.75,502.5 v 39.824"
         style="fill:none;stroke:#262626;stroke-width:5.0025;stroke-linecap:square;stroke-linejoin:round;stroke-miterlimit:10;stroke-dasharray:none;stroke-opacity:1"
         id="path218" /><path
         d="m 8942.5,502.5 v 39.824"
         style="fill:none;stroke:#262626;stroke-width:5.0025;stroke-linecap:square;stroke-linejoin:round;stroke-miterlimit:10;stroke-dasharray:none;stroke-opacity:1"
         id="path220" /><path
         d="m 4960,3255 v -39.82"
         style="fill:none;stroke:#262626;stroke-width:5.0025;stroke-linecap:square;stroke-linejoin:round;stroke-miterlimit:10;stroke-dasharray:none;stroke-opacity:1"
         id="path222" /><path
         d="m 5623.75,3255 v -39.82"
         style="fill:none;stroke:#262626;stroke-width:5.0025;stroke-linecap:square;stroke-linejoin:round;stroke-miterlimit:10;stroke-dasharray:none;stroke-opacity:1"
         id="path224" /><path
         d="m 6287.5,3255 v -39.82"
         style="fill:none;stroke:#262626;stroke-width:5.0025;stroke-linecap:square;stroke-linejoin:round;stroke-miterlimit:10;stroke-dasharray:none;stroke-opacity:1"
         id="path226" /><path
         d="m 6951.25,3255 v -39.82"
         style="fill:none;stroke:#262626;stroke-width:5.0025;stroke-linecap:square;stroke-linejoin:round;stroke-miterlimit:10;stroke-dasharray:none;stroke-opacity:1"
         id="path228" /><path
         d="m 7615,3255 v -39.82"
         style="fill:none;stroke:#262626;stroke-width:5.0025;stroke-linecap:square;stroke-linejoin:round;stroke-miterlimit:10;stroke-dasharray:none;stroke-opacity:1"
         id="path230" /><path
         d="m 8278.75,3255 v -39.82"
         style="fill:none;stroke:#262626;stroke-width:5.0025;stroke-linecap:square;stroke-linejoin:round;stroke-miterlimit:10;stroke-dasharray:none;stroke-opacity:1"
         id="path232" /><path
         d="m 8942.5,3255 v -39.82"
         style="fill:none;stroke:#262626;stroke-width:5.0025;stroke-linecap:square;stroke-linejoin:round;stroke-miterlimit:10;stroke-dasharray:none;stroke-opacity:1"
         id="path234" /><g
         id="g236"
         transform="scale(10)"><text
           transform="matrix(1,0,0,-1,489.625,31.2)"
           style="font-variant:normal;font-weight:normal;font-size:14.0002px;font-family:'CMU Serif';-inkscape-font-specification:'CMU Serif';writing-mode:lr-tb;fill:#262626;fill-opacity:1;fill-rule:nonzero;stroke:none;font-style:normal;font-stretch:normal"
           id="text240"><tspan
             x="0 4.6620665 66.374809 71.036873 132.74962 137.41168 201.37439 267.74921 334.12402 400.49869"
             y="0"
             sodipodi:role="line"
             id="tspan238">-3-2-10123</tspan></text><text
           transform="matrix(1,0,0,-1,673,10.5)"
           style="font-variant:normal;font-weight:normal;font-size:15.3997px;font-family:'CMU Serif';-inkscape-font-specification:'CMU Serif';writing-mode:lr-tb;fill:#262626;fill-opacity:1;fill-rule:nonzero;stroke:none;font-style:normal;font-stretch:normal"
           id="text244"><tspan
             x="0"
             y="0"
             id="tspan242"
             style="-inkscape-font-specification:'CMU Serif';font-family:'CMU Serif';font-weight:normal;font-style:normal;font-stretch:normal;font-variant:normal">u</tspan></text><text
           transform="matrix(1,0,0,-1,682,3)"
           style="font-variant:normal;font-weight:normal;font-size:12.3202px;font-family:'CMU Serif';-inkscape-font-specification:'CMU Serif';writing-mode:lr-tb;fill:#262626;fill-opacity:1;fill-rule:nonzero;stroke:none;font-style:normal;font-stretch:normal"
           id="text248"><tspan
             x="0 2.7350843"
             y="0"
             sodipodi:role="line"
             id="tspan246">in</tspan></text><text
           transform="matrix(1,0,0,-1,696.03112,10.5)"
           style="font-variant:normal;font-weight:normal;font-size:15.3997px;font-family:'CMU Serif';-inkscape-font-specification:'CMU Serif';writing-mode:lr-tb;fill:#262626;fill-opacity:1;fill-rule:nonzero;stroke:none;font-style:normal;font-stretch:normal"
           id="text252"><tspan
             x="0 4.2811165 17.109066"
             y="0"
             sodipodi:role="line"
             id="tspan250">[m]</tspan></text></g><path
         d="m 8588.48,86.6016 c 0,0.7812 0.23,1.4453 0.7,1.9961 l 29.65,29.5273 -29.65,29.648 c -0.47,0.469 -0.7,1.094 -0.7,1.875 0,0.704 0.27,1.348 0.82,1.934 0.54,0.586 1.21,0.879 1.99,0.879 0.62,0 1.33,-0.273 2.11,-0.82 l 29.53,-29.532 29.42,29.532 c 0.78,0.547 1.48,0.82 2.11,0.82 0.77,0 1.44,-0.273 1.98,-0.82 0.55,-0.547 0.83,-1.215 0.83,-1.993 0,-0.781 -0.24,-1.406 -0.71,-1.875 l -29.65,-29.648 29.65,-29.5273 c 0.47,-0.5508 0.71,-1.2149 0.71,-1.9961 0,-0.7774 -0.28,-1.4453 -0.83,-1.9922 -0.54,-0.5469 -1.21,-0.8203 -1.98,-0.8203 -0.71,0 -1.41,0.3515 -2.11,1.0586 l -29.42,29.2933 -29.53,-29.2933 c -0.63,-0.7071 -1.33,-1.0586 -2.11,-1.0586 -0.78,0 -1.45,0.2929 -1.99,0.8789 -0.55,0.5859 -0.82,1.2304 -0.82,1.9336"
         style="fill:#262626;fill-opacity:1;fill-rule:nonzero;stroke:none"
         id="path254" /><g
         id="g256"
         transform="scale(10)"><text
           transform="matrix(1,0,0,-1,868,8.25)"
           style="font-variant:normal;font-weight:normal;font-size:14.0002px;font-family:'CMU Serif';-inkscape-font-specification:'CMU Serif';writing-mode:lr-tb;fill:#262626;fill-opacity:1;fill-rule:nonzero;stroke:none;font-style:normal;font-stretch:normal"
           id="text260"><tspan
             x="0 7.784111"
             y="0"
             sodipodi:role="line"
             id="tspan258">10</tspan></text><text
           transform="matrix(1,0,0,-1,883.75,15)"
           style="font-variant:normal;font-weight:normal;font-size:11.1997px;font-family:'CMU Serif';-inkscape-font-specification:'CMU Serif';writing-mode:lr-tb;fill:#262626;fill-opacity:1;fill-rule:nonzero;stroke:none;font-style:normal;font-stretch:normal"
           id="text264"><tspan
             x="0 3.7295001"
             y="0"
             sodipodi:role="line"
             id="tspan262">-3</tspan></text></g><path
         d="M 4960,502.5 V 3255"
         style="fill:none;stroke:#262626;stroke-width:5.0025;stroke-linecap:square;stroke-linejoin:round;stroke-miterlimit:10;stroke-dasharray:none;stroke-opacity:1"
         id="path266" /><path
         d="M 8942.5,502.5 V 3255"
         style="fill:none;stroke:#262626;stroke-width:5.0025;stroke-linecap:square;stroke-linejoin:round;stroke-miterlimit:10;stroke-dasharray:none;stroke-opacity:1"
         id="path268" /><path
         d="m 4960,502.5 h 39.82"
         style="fill:none;stroke:#262626;stroke-width:5.0025;stroke-linecap:square;stroke-linejoin:round;stroke-miterlimit:10;stroke-dasharray:none;stroke-opacity:1"
         id="path270" /><path
         d="m 4960,961.254 h 39.82"
         style="fill:none;stroke:#262626;stroke-width:5.0025;stroke-linecap:square;stroke-linejoin:round;stroke-miterlimit:10;stroke-dasharray:none;stroke-opacity:1"
         id="path272" /><path
         d="m 4960,1420 h 39.82"
         style="fill:none;stroke:#262626;stroke-width:5.0025;stroke-linecap:square;stroke-linejoin:round;stroke-miterlimit:10;stroke-dasharray:none;stroke-opacity:1"
         id="path274" /><path
         d="m 4960,1878.75 h 39.82"
         style="fill:none;stroke:#262626;stroke-width:5.0025;stroke-linecap:square;stroke-linejoin:round;stroke-miterlimit:10;stroke-dasharray:none;stroke-opacity:1"
         id="path276" /><path
         d="m 4960,2337.5 h 39.82"
         style="fill:none;stroke:#262626;stroke-width:5.0025;stroke-linecap:square;stroke-linejoin:round;stroke-miterlimit:10;stroke-dasharray:none;stroke-opacity:1"
         id="path278" /><path
         d="m 4960,2796.25 h 39.82"
         style="fill:none;stroke:#262626;stroke-width:5.0025;stroke-linecap:square;stroke-linejoin:round;stroke-miterlimit:10;stroke-dasharray:none;stroke-opacity:1"
         id="path280" /><path
         d="m 4960,3255 h 39.82"
         style="fill:none;stroke:#262626;stroke-width:5.0025;stroke-linecap:square;stroke-linejoin:round;stroke-miterlimit:10;stroke-dasharray:none;stroke-opacity:1"
         id="path282" /><path
         d="m 8942.5,502.5 h -39.82"
         style="fill:none;stroke:#262626;stroke-width:5.0025;stroke-linecap:square;stroke-linejoin:round;stroke-miterlimit:10;stroke-dasharray:none;stroke-opacity:1"
         id="path284" /><path
         d="m 8942.5,961.254 h -39.82"
         style="fill:none;stroke:#262626;stroke-width:5.0025;stroke-linecap:square;stroke-linejoin:round;stroke-miterlimit:10;stroke-dasharray:none;stroke-opacity:1"
         id="path286" /><path
         d="m 8942.5,1420 h -39.82"
         style="fill:none;stroke:#262626;stroke-width:5.0025;stroke-linecap:square;stroke-linejoin:round;stroke-miterlimit:10;stroke-dasharray:none;stroke-opacity:1"
         id="path288" /><path
         d="m 8942.5,1878.75 h -39.82"
         style="fill:none;stroke:#262626;stroke-width:5.0025;stroke-linecap:square;stroke-linejoin:round;stroke-miterlimit:10;stroke-dasharray:none;stroke-opacity:1"
         id="path290" /><path
         d="m 8942.5,2337.5 h -39.82"
         style="fill:none;stroke:#262626;stroke-width:5.0025;stroke-linecap:square;stroke-linejoin:round;stroke-miterlimit:10;stroke-dasharray:none;stroke-opacity:1"
         id="path292" /><path
         d="m 8942.5,2796.25 h -39.82"
         style="fill:none;stroke:#262626;stroke-width:5.0025;stroke-linecap:square;stroke-linejoin:round;stroke-miterlimit:10;stroke-dasharray:none;stroke-opacity:1"
         id="path294" /><path
         d="m 8942.5,3255 h -39.82"
         style="fill:none;stroke:#262626;stroke-width:5.0025;stroke-linecap:square;stroke-linejoin:round;stroke-miterlimit:10;stroke-dasharray:none;stroke-opacity:1"
         id="path296" /><g
         id="g298"
         transform="scale(10)"><text
           transform="matrix(1,0,0,-1,470.95,45)"
           style="font-variant:normal;font-weight:normal;font-size:14.0002px;font-family:'CMU Serif';-inkscape-font-specification:'CMU Serif';writing-mode:lr-tb;fill:#262626;fill-opacity:1;fill-rule:nonzero;stroke:none;font-style:normal;font-stretch:normal"
           id="text314"><tspan
             x="0 4.6620665 12.446177"
             y="0"
             sodipodi:role="line"
             id="tspan300">-15</tspan><tspan
             x="0 4.6620665 12.446177"
             y="-45.875"
             sodipodi:role="line"
             id="tspan302">-10</tspan><tspan
             x="7.5 12.162066"
             y="-91.75"
             sodipodi:role="line"
             id="tspan304">-5</tspan><tspan
             x="12"
             y="-137.625"
             id="tspan306"
             style="-inkscape-font-specification:'CMU Serif';font-family:'CMU Serif';font-weight:normal;font-style:normal;font-stretch:normal;font-variant:normal">0</tspan><tspan
             x="12"
             y="-183.5"
             id="tspan308"
             style="-inkscape-font-specification:'CMU Serif';font-family:'CMU Serif';font-weight:normal;font-style:normal;font-stretch:normal;font-variant:normal">5</tspan><tspan
             x="4.5 12.284111"
             y="-229.375"
             sodipodi:role="line"
             id="tspan310">10</tspan><tspan
             x="4.5 12.284111"
             y="-275.25"
             sodipodi:role="line"
             id="tspan312">15</tspan></text><text
           transform="matrix(0,1,1,0,457.75,166.5)"
           style="font-variant:normal;font-weight:normal;font-size:15.3997px;font-family:'CMU Serif';-inkscape-font-specification:'CMU Serif';writing-mode:lr-tb;fill:#262626;fill-opacity:1;fill-rule:nonzero;stroke:none;font-style:normal;font-stretch:normal"
           id="text318"><tspan
             x="0"
             y="0"
             id="tspan316"
             style="-inkscape-font-specification:'CMU Serif';font-family:'CMU Serif';font-weight:normal;font-style:normal;font-stretch:normal;font-variant:normal">F</tspan></text><text
           transform="matrix(0,1,1,0,465.25,176.25)"
           style="font-variant:normal;font-weight:normal;font-size:12.3202px;font-family:'CMU Serif';-inkscape-font-specification:'CMU Serif';writing-mode:lr-tb;fill:#262626;fill-opacity:1;fill-rule:nonzero;stroke:none;font-style:normal;font-stretch:normal"
           id="text322"><tspan
             x="0 2.7350843"
             y="0"
             sodipodi:role="line"
             id="tspan320">in</tspan></text><text
           transform="matrix(0,1,1,0,457.75,190.28112)"
           style="font-variant:normal;font-weight:normal;font-size:15.3997px;font-family:'CMU Serif';-inkscape-font-specification:'CMU Serif';writing-mode:lr-tb;fill:#262626;fill-opacity:1;fill-rule:nonzero;stroke:none;font-style:normal;font-stretch:normal"
           id="text326"><tspan
             x="0 4.2811165 15.3997"
             y="0"
             sodipodi:role="line"
             id="tspan324">[N]</tspan></text></g><g
         id="g328"
         transform="scale(10)"><text
           transform="matrix(1,0,0,-1,594.251,332.138)"
           style="font-variant:normal;font-weight:bold;font-size:15.3997px;font-family:'CMU Serif';-inkscape-font-specification:'CMU Serif Bold';writing-mode:lr-tb;fill:#000000;fill-opacity:1;fill-rule:nonzero;stroke:none;font-style:normal;font-stretch:normal"
           id="text332"><tspan
             x="0 5.1280999 14.537317 20.5278 29.090033 37.652267 42.780365 52.189583 56.470699 65.032936 74.442146 78.723267 87.2855 95.847733 104.40997 118.1003 126.66253 136.07175 141.19984 145.48097 151.47145 160.03368 164.3148 172.87703 178.00513 182.28625 191.69547"
             y="0"
             sodipodi:role="line"
             id="tspan330">force-displacement relation</tspan></text></g><path
         d="m 4960,1089.05 2,2.33 1.98,0.51 2,-0.63 1.99,0.31 1.99,-0.19 2,0.26 1.98,0.25 2,0.27 1.99,0.07 1.99,0.02 1.99,0.17 2,0.22 1.99,0.25 1.99,0.24 1.99,0.17 2,0.41 1.99,0.04 1.99,-1.14 1.99,0.67 2,0.21 1.99,0.92 1.99,-0.8 1.99,0.28 1.99,0.64 2,0.4 1.99,-0.09 1.99,0.08 2,0.08 1.98,-0.99 2,-0.01 1.99,0.15 1.99,0.3 2,0.3 1.98,0.18 2,0.21 1.99,0.3 1.99,0.47 2,0.39 1.99,0.36 1.99,0.17 1.99,-0.08 2,-0.45 1.98,-0.12 2,-0.1 1.99,0.1 1.99,0.5 2,-0.58 1.99,-0.1 1.99,0.37 1.99,0.31 1.99,0.25 2,0.1 1.99,0.06 1.99,0.1 1.99,0.12 1.99,0.15 2,0.03 1.99,-0.04 1.99,-0.04 2,0.09 1.99,0.17 1.99,0.29 1.99,0.12 1.99,0.05 2,-0.11 1.99,-0.34 1.99,-0.42 1.99,-0.34 2,-0.37 1.99,-0.34 1.99,-0.5 2,0.2 1.98,0.21 2,0.14 1.98,0.01 2,0.07 2,0.23 1.98,0.27 2,0.14 1.99,0.03 1.99,0.08 1.99,0.15 2,0.12 1.99,-0.76 1.99,0.06 1.99,0.01 1.99,-0.04 2,-0.02 1.99,0.13 1.99,0.17 2,0.11 1.99,-0.02 1.99,-0.06 1.99,-0.06 1.99,0.01 2,0.06 1.99,0.09 1.99,0.04 1.99,0.01 1.99,0.04 2,0.08 1.99,0.08 1.99,0.01 2,-0.01 1.98,0.01 2,0.04 1.99,0.01 h 1.99 l 2,0.01 1.99,0.03 1.99,0.12 1.99,0.13 1.99,-0.01 1.99,-0.05 2,-0.11 1.99,0.01 h 1.99 l 2,-0.08 1.98,-0.03 2,0.1 2,0.07 1.98,-0.04 2,-0.18 1.99,-0.14 1.99,0.09 1.99,0.17 1.99,0.15 2,-0.06 1.99,-0.06 h 1.99 l 1.99,0.13 2,0.14 1.99,0.12 1.99,-0.03 1.99,-0.08 2,-0.09 1.99,0.02 1.99,0.05 1.99,0.05 2,-0.06 1.99,-0.04 1.99,-0.02 1.99,0.06 1.99,0.08 2,0.1 1.98,0.1 2,0.1 h 2 l 1.98,-0.08 2,-0.06 1.99,0.05 1.99,0.17 2,0.16 1.98,0.02 2,-0.09 1.99,-0.08 1.99,-0.03 h 1.99 2 1.99 1.99 2 l 1.98,0.13 2,0.26 1.99,0.25 1.99,0.07 2,-0.07 1.99,-0.16 1.99,-0.12 1.99,-0.06 h 1.99 l 2,-0.01 1.99,-0.02 h 1.99 1.99 1.99 l 2,-0.01 1.99,-0.08 1.99,-0.17 2,-0.16 1.99,-0.03 1.99,0.09 1.99,0.07 1.99,-0.09 2,-0.08 1.99,-0.08 1.99,0.09 1.99,0.1 2,0.08 1.98,-0.02 2,0.04 2,0.07 1.98,0.15 2,0.01 1.98,-0.07 2,-0.11 2,-0.06 1.98,-0.01 2,-0.08 1.99,-0.08 1.99,-0.01 1.99,0.06 1.99,0.04 2,0.05 1.99,-0.04 1.99,-0.09 1.99,-0.08 2,-0.04 1.99,-0.05 1.99,-0.08 2,-0.09 1.99,-0.01 1.99,0.09 1.99,0.06 1.99,0.07 h 2 l 1.99,0.01 h 1.99 1.99 l 1.99,0.01 2,-0.01 1.98,-0.09 2,-0.04 2,0.01 1.98,0.07 2,-0.02 1.99,-0.04 h 1.99 l 2,0.07 1.99,0.03 1.99,0.01 1.99,-0.11 1.99,-0.17 1.99,-0.17 2,-0.02 1.99,0.08 1.99,0.08 2,-0.01 1.98,-0.03 2,-0.06 2,-0.09 1.98,-0.16 2,-0.02 1.99,0.02 1.99,-0.01 1.99,-0.11 1.99,-0.26 2,-0.16 h 1.99 l 1.99,0.11 1.99,0.2 1.99,0.06 2,-0.03 1.99,-0.18 1.99,-0.15 2,-0.13 1.99,-0.05 1.99,-0.01 h 1.99 l 2,0.09 1.99,0.09 1.99,0.08 1.99,0.05 1.99,-0.01 2,-0.11 1.98,-0.15 2,-0.08 2,-0.04 1.98,-0.1 2,-0.17 1.99,-0.12 1.99,0.02 2,0.07 1.98,0.04 2,-0.04 1.99,-0.09 1.99,-0.08 1.99,-0.1 2,-0.04 1.99,0.01 1.99,-0.03 1.99,-0.07 1.99,-0.07 2,-0.06 1.99,-0.01 1.99,0.08 2,0.06 1.99,-0.01 1.99,-0.23 1.99,-0.37 1.99,-0.33 2,-0.04 1.99,0.08 1.99,0.06 1.99,-0.02 1.99,-0.08 2,-0.07 1.99,-0.09 1.99,-0.06 h 2 l 1.99,-0.09 1.99,-0.04 1.99,-0.05 1.99,-0.07 2,-0.16 1.99,-0.17 1.99,-0.15 h 1.99 l 2,0.03 1.98,0.01 2,-0.13 1.99,-0.1 1.99,-0.09 2,-0.09 1.98,-0.09 2,-0.14 2,-0.17 1.98,-0.09 2,-0.02 1.99,0.08 1.99,-0.15 1.99,-0.2 1.99,-0.15 2,-0.06 1.99,-0.07 1.99,-0.16 1.99,-0.2 2,-0.23 1.99,-0.05 1.99,0.07 1.99,0.13 2,0.13 1.99,0.03 1.99,-0.06 1.99,-0.21 2,-0.22 1.99,-0.16 1.99,-0.03 1.99,-0.08 1.99,-0.11 2,-0.17 1.98,-0.13 2,-0.11 2,-0.23 1.98,-0.19 2,-0.09 1.99,-0.08 1.99,-0.09 2,-0.1 1.98,-0.15 2,-0.18 1.99,-0.13 1.99,-0.05 1.99,-0.03 2,-0.09 1.99,-0.21 1.99,-0.24 2,-0.18 1.98,-0.06 h 2 l 1.99,-0.08 1.99,-0.19 2,-0.27 1.99,-0.19 1.99,-0.01 1.99,0.07 1.99,-0.02 2,-0.19 1.99,-0.24 1.99,-0.21 2,-0.12 1.98,-0.09 2,-0.09 1.99,-0.2 1.99,-0.18 2,-0.2 1.99,-0.16 1.99,-0.11 1.99,-0.07 1.99,-0.06 2,-0.09 1.99,-0.12 1.99,-0.1 1.99,-0.07 2,-0.09 1.98,-0.14 2,-0.17 2,-0.25 1.98,-0.29 2,-0.21 1.98,-0.14 2,-0.07 2,-0.09 1.98,-0.17 2,-0.26 1.99,-0.23 1.99,-0.15 1.99,-0.09 1.99,-0.03 2,0.01 1.99,-0.05 1.99,-0.2 2,-0.17 1.99,-0.16 1.99,-0.15 1.99,-0.18 2,-0.2 1.99,-0.23 1.99,-0.34 1.99,-0.25 1.99,-0.14 2,-0.08 1.99,-0.15 1.99,-0.16 2,-0.16 1.98,-0.17 2,-0.24 1.99,-0.28 1.99,-0.27 2,-0.17 1.98,-0.19 2,-0.15 1.99,-0.19 1.99,-0.18 2,-0.18 1.99,-0.18 1.99,-0.19 1.99,-0.16 1.99,-0.16 1.99,-0.18 2,-0.24 1.99,-0.33 1.99,-0.35 2,-0.3 1.99,-0.18 1.99,-0.18 1.99,-0.19 1.99,-0.11 2,-0.09 1.99,-0.19 1.99,-0.35 1.99,-0.35 1.99,-0.13 2,-0.07 1.99,-0.18 1.99,-0.32 2,-0.27 1.98,-0.28 2,-0.33 1.99,-0.48 1.99,-0.24 2,-0.24 1.99,-0.2 1.99,-0.29 1.99,-0.28 2,-0.26 1.99,-0.19 1.99,-0.09 1.99,-0.12 1.99,-0.25 2,-0.36 1.98,-0.42 2,-0.38 2,-0.34 1.98,-0.25 2,-0.28 1.99,-0.38 1.99,-0.59 1.99,-0.46 1.99,-0.25 2,-0.17 1.99,-0.28 1.99,-0.33 1.99,-0.36 2,-0.24 1.99,-0.27 1.99,-0.27 1.99,-0.32 2,-0.36 1.99,-0.36 1.99,-0.32 1.99,-0.23 2,-0.13 1.99,-0.12 1.99,-0.27 1.99,-0.42 1.99,-0.44 2,-0.38 1.99,-0.31 1.99,-0.28 2,-0.37 1.98,-0.43 2,-0.41 1.99,-0.4 1.99,-0.37 2,-0.36 1.99,-0.35 1.99,-0.36 1.99,-0.34 1.99,-0.3 1.99,-0.35 2,-0.39 1.99,-0.48 1.99,-0.44 2,-0.34 1.98,-0.18 2,-0.21 1.99,-0.28 1.99,-0.42 2,-0.52 1.99,-0.54 1.99,-0.52 2,-0.39 1.98,-0.26 2,-0.23 1.99,-0.35 1.99,-0.59 1.99,-0.7 1.99,-0.66 2,-0.44 1.99,-0.21 1.99,-0.11 2,-0.2 1.99,-0.65 1.99,-0.67 1.99,-0.6 2,-0.53 1.99,-0.54 1.99,-0.53 1.99,-0.48 1.99,-0.44 2,-0.38 1.98,-0.48 2,-0.54 2,-0.62 1.98,-0.47 2,-0.38 1.98,-0.37 2,-0.49 2,-0.61 1.98,-0.66 2,-0.61 1.99,-0.57 1.99,-0.52 2,-0.51 1.99,-0.38 1.99,-0.44 1.99,-0.55 1.99,-0.51 1.99,-0.52 2,-0.56 1.99,-0.77 1.99,-0.93 2,-0.92 1.99,-0.63 1.99,-0.44 1.99,-0.47 1.99,-0.62 2,-0.77 1.99,-0.74 1.99,-0.64 1.99,-0.53 1.99,-0.55 2,-0.72 1.99,-0.81 1.99,-0.73 2,-0.73 1.98,-0.73 2,-0.73 1.99,-0.69 1.99,-0.71 2,-0.79 1.99,-0.8 1.99,-0.74 1.99,-0.68 2,-0.8 1.99,-0.99 1.99,-0.99 1.99,-0.83 1.99,-0.76 2,-0.97 1.98,-1.05 2,-0.95 2,-0.87 1.98,-0.96 2,-1.03 1.99,-1.02 1.99,-0.91 1.99,-0.9 1.99,-0.88 2,-0.79 1.99,-0.94 1.99,-1.06 1.99,-1.136 2,-1.082 1.99,-1.094 1.99,-1.156 1.99,-1.148 2,-1.184 1.99,-1.164 1.99,-1.215 1.99,-1.226 2,-1.247 1.99,-1.507 1.99,-1.637 1.99,-1.582 1.99,-1.527 2,-1.547 1.99,-1.641 1.99,-1.684 2,-1.632 1.98,-1.59 2,-1.621 1.99,-1.672 1.99,-1.793 2,-1.852 1.98,-1.8 2,-1.793 1.99,-1.821 1.99,-1.945 1.99,-2.152 2,-2.446 1.99,-2.547 1.99,-2.664 2,-2.812 1.98,-2.828 2,-2.766 1.99,-2.551 1.99,-2.437 2,-2.297 1.99,-2.195 1.99,-2.176 1.99,-1.899 1.99,-1.703 2,-1.707 1.99,-1.668 1.99,-1.664 1.99,-1.918 1.99,-1.863 2,-1.664 1.99,-1.559 1.99,-1.562 2,-1.528 1.99,-1.824 1.99,-1.941 1.99,-1.711 1.99,-1.551 2,-1.539 1.99,-1.613 1.99,-1.508 1.99,-1.492 2,-1.41 1.98,-1.43 2,-1.301 2,-1.144 1.98,-0.856 2,-0.832 1.98,-0.879 2,-0.89 2,-1.028 1.98,-0.976 2,-0.84 1.99,-0.848 1.99,-0.879 1.99,-0.668 1.99,-0.539 2,-0.433 1.99,-0.36 1.99,-0.301 1.99,-0.335 2,-0.274 1.99,-0.5 1.99,-0.414 1.99,-0.352 2,-0.253 1.99,-0.176 1.99,-0.192 1.99,-0.168 2,-0.125 1.99,-0.023 1.99,0.008 h 1.99 l 1.99,0.008 h 2 l 1.98,0.132 2,0.188 2,0.269 1.98,0.309 2,0.219 1.99,0.219 1.99,0.375 2,0.671 1.99,0.579 1.99,0.578 1.99,0.511 1.99,0.582 1.99,0.829 2,0.882 1.99,0.914 1.99,0.946 2,0.902 1.98,0.793 2,0.879 1.99,0.93 1.99,1.132 2,1.29 1.99,1.328 1.99,1.265 1.99,1.262 1.99,1.258 2,1.23 1.99,1.133 1.99,1.125 1.99,1.223 1.99,1.402 2,1.434 1.99,1.41 1.99,1.449 2,1.633 1.99,1.824 1.99,1.852 1.99,1.453 2,1.375 1.99,1.426 1.99,1.64 1.99,1.836 1.99,2.07 2,2.036 1.98,2.023 2,1.688 2,1.402 1.98,1.515 2,1.739 1.98,1.863 2,1.957 2,1.852 1.98,1.761 2,1.852 1.99,1.945 1.99,2.098 1.99,2.117 2,2.234 1.99,2.137 1.99,1.988 1.99,2.227 1.99,2.316 2,2.52 1.99,2.32 1.99,2.188 2,2.332 1.99,2.328 1.99,2.242 1.99,2.535 1.99,2.535 2,2.497 1.99,2.371 1.99,2.375 2,2.304 1.98,2.176 2,2.121 1.99,2.422 1.99,2.535 2,2.603 1.98,2.66 2,2.58 1.99,2.49 1.99,2.71 2,2.97 1.99,2.89 1.99,2.91 1.99,2.94 2,2.78 1.98,2.73 2,2.48 1.99,2.84 1.99,3.21 2,3.06 1.98,2.68 2,2.86 1.99,3.13 1.99,3.25 2,3.08 1.99,2.77 1.99,2.78 1.99,3.03 1.99,3.28 2,3.54 1.99,3.38 1.99,3.22 2,2.86 1.99,2.6 1.99,2.8 1.99,3.36 1.99,3.63 2,3.73 1.99,3.57 1.99,3.12 1.99,2.97 2,2.88 1.99,3.15 1.99,3.43 2,3.58 1.98,3.44 2,3.31 1.98,3.1 2,3.16 2,3.16 1.98,3.38 2,3.48 1.99,3.8 1.99,3.77 1.99,3.51 1.99,3.36 2,3.15 1.99,3.19 1.99,3.3 1.99,3.38 2,3.57 1.99,3.83 1.99,3.87 2,3.85 1.99,3.71 1.99,3.68 1.99,3.63 1.99,3.54 2,3.51 1.99,3.28 1.99,3.22 1.99,3.23 1.99,3.56 2,3.78 1.99,3.76 1.99,3.59 2,3.4 1.98,3.3 2,3.3 1.99,3.67 1.99,4.17 2,4.09 1.99,3.96 1.99,4.01 1.99,3.85 1.99,3.42 1.99,3.41 2,4.03 1.99,4.27 1.99,3.97 2,3.72 1.98,3.57 2,3.44 2,3.51 1.98,3.72 2,3.79 1.99,3.7 1.99,3.84 2,3.79 1.98,3.57 2,3.61 1.99,3.57 1.99,3.68 1.99,3.81 1.99,4.01 2,3.97 1.99,3.92 1.99,3.91 2,3.84 1.99,3.66 1.99,3.42 1.99,3.46 2,4.03 1.99,4.41 1.99,4.18 1.99,3.68 1.99,3.7 2,3.67 1.98,3.61 2,3.72 2,4.05 1.98,4.07 2,3.83 1.99,3.74 1.99,3.95 2,4.21 1.98,4.33 2,4.17 1.99,3.66 1.99,3.58 2,3.72 1.99,3.94 1.99,4.1 1.99,4.05 1.99,4 1.99,4.02 2,3.88 1.99,3.77 1.99,3.73 2,3.7 1.99,3.93 1.99,4.06 1.99,3.87 1.99,3.78 2,3.77 1.99,3.7 1.99,4.13 1.99,4.3 1.99,4.24 2,3.84 1.99,3.69 1.99,3.57 2,3.52 1.99,3.65 1.99,4.07 1.99,4.34 1.99,4.44 2,4.37 1.99,4.14 1.99,3.79 1.99,3.66 2,3.62 1.99,3.72 1.99,3.97 1.99,4.01 1.99,3.81 2,3.78 1.98,3.62 2,3.65 2,3.83 1.98,4.2 2,4.35 1.99,4.3 1.99,3.91 1.99,3.76 1.99,3.83 2,4.35 1.99,4.68 1.99,4.29 1.99,3.51 2,3.3 1.99,3.25 1.99,3.31 2,3.69 1.99,4.54 1.99,4.44 1.99,3.64 1.99,3.36 2,3.36 1.99,4.8 1.99,4.22 1.99,3.96 1.99,4 2,4.06 1.99,4.13 1.99,4.03 2,3.82 1.98,3.78 2,3.99 1.99,4.11 1.99,4.03 2,3.94 1.99,3.88 1.99,3.89 1.99,3.87 1.99,3.92 1.99,4.2 2,4.34 1.99,4.21 1.99,3.97 2,3.79 1.98,3.96 2,4.05 1.99,4.03 1.99,3.77 2,3.49 1.99,3.71 1.99,4.05 1.99,4.75 1.99,4.61 2,4.93 1.99,4.98 1.99,4.9 1.99,4.01 1.99,4.04 2,3.54 1.99,3.23 1.99,3.17 2,3.17 1.99,3.33 1.99,3.34 1.99,3.45 2,3.38 1.99,3.32 1.99,3.59 1.99,3.96 1.99,4.33 2,4.4 1.98,4.18 2,3.35 2,2.97 1.98,3.57 2,-40.83 1.98,16.8 2,6.72 2,5.51 1.98,3.88 2,3.85 1.99,4.09 1.99,4.14 1.99,4.15 1.99,4.37 2,4.84 1.99,4.58 1.99,4.35 1.99,4.2 2,3.82 1.99,3.34 1.99,3.37 2,3.82 1.99,4.37 1.99,4.58 1.99,4.48 1.99,3.86 2,3.68 1.99,3.87 1.99,4.08 1.99,3.87 1.99,3.98 2,4 1.99,3.84 1.99,3.47 2,3.67 1.98,3.75 2,4.09 1.99,4.39 1.99,4.17 2,3.39 1.99,3.57 1.99,3.73 1.99,3.93 1.99,3.92 1.99,4.31 2,4.31 1.99,4.04 1.99,3.79 2,3.81 1.98,3.72 2,3.83 2,3.92 1.98,3.94 2,4.02 1.99,3.96 1.99,3.83 1.99,3.64 1.99,3.65 2,3.98 1.99,4.04 1.99,4.07 1.99,4.17 1.99,4.15 2,4.1 1.99,3.91 1.99,3.93 2,3.83 1.99,3.67 1.99,3.87 1.99,3.92 2,4.01 1.99,4.14 1.99,4.34 1.99,4.07 1.99,3.79 2,3.67 1.98,3.73 2,4.08 2,4.47 1.98,4.21 2,3.77 1.99,3.71 1.99,3.69 2,3.66 1.98,3.59 2,3.66 1.99,3.85 1.99,4.2 1.99,4.2 2,4.07 1.99,4.15 1.99,3.95 1.99,3.82 1.99,3.59 2,3.48 1.99,3.88 1.99,4.34 2,4.24 1.99,3.95 1.99,3.96 1.99,4.12 1.99,4.4 2,4.2 1.99,3.68 1.99,3.53 1.99,3.99 1.99,4.04 2,3.65 1.99,3.47 1.99,3.49 2,3.69 1.99,3.94 1.99,4.04 1.99,4.03 1.99,3.8 2,3.83 1.99,3.84 1.99,4.05 1.99,4.01 2,3.85 1.98,3.64 2,3.57 1.99,3.48 1.99,3.57 2,3.91 1.98,4.63 2,4.49 2,3.87 1.98,3.31 2,3.24 1.99,3.25 1.99,3.79 1.99,4.29 1.99,4.59 2,4.28 1.99,3.85 1.99,3.63 1.99,3.56 2,3.53 1.99,3.87 1.99,3.93 2,3.97 1.99,3.64 1.99,3.59 1.99,3.56 1.99,3.55 2,3.57 1.99,3.92 1.99,4.47 2,4.26 1.98,3.45 2,3.36 1.98,3.4 2,3.52 2,3.93 1.98,4.45 2,4.24 1.99,3.64 1.99,3.77 2,3.79 1.99,3.67 1.99,3.44 1.99,3.39 1.99,3.41 1.99,3.59 2,3.86 1.99,3.96 1.99,4.05 2,3.81 1.98,3.77 2,3.83 1.99,3.93 1.99,3.83 2,3.51 1.99,3.31 1.99,3.28 1.99,3.34 1.99,3.61 2,4.02 1.99,4.25 1.99,3.91 2,3.57 1.98,3.43 2,3.5 1.99,3.59 1.99,3.65 2,3.56 1.99,3.51 1.99,3.65 1.99,3.75 2,3.44 1.99,3.51 1.99,3.55 1.99,3.57 1.99,3.55 2,3.7 1.98,3.82 2,3.6 2,3.22 1.98,3.2 2,3.46 1.98,3.82 2,4.34 2,4.02 1.98,3.2 2,2.98 1.99,2.98 1.99,3.08 1.99,3.29 2,3.49 1.99,3.54 1.99,3.51 1.99,3.71 2,3.76 1.99,3.27 1.99,3.05 1.99,3.49 2,3.41 1.99,3.31 1.99,3.33 1.99,3.7 1.99,3.61 2,3.12 1.99,3.57 1.99,3.39 2,3.17 1.98,3.51 2,3.83 1.99,3.64 1.99,3.02 2,3.09 1.98,3.23 2,3.48 1.99,3.27 1.99,2.85 2,2.78 1.99,2.88 1.99,3.52 1.99,3.64 2,3.59 1.98,3.4 2,3.12 1.99,3.26 1.99,3.36 2,3.38 1.99,3.22 1.99,3.05 2,2.89 1.98,2.8 2,2.77 1.99,3.11 1.99,3.23 1.99,3.29 1.99,3.33 2,3.43 1.99,3.07 1.99,2.76 2,2.75 1.99,2.85 1.99,2.75 1.99,2.76 1.99,2.83 2,2.85 1.99,2.86 1.99,3.07 1.99,3.18 2,3.23 1.99,2.99 1.99,2.61 2,2.59 1.98,2.52 2,2.56 1.98,2.81 2,3.19 2,3.15 1.98,2.98 2,2.8 1.99,2.75 1.99,2.72 2,2.78 1.98,2.66 2,2.5 1.99,2.42 1.99,2.44 1.99,2.39 2,2.4 1.99,2.67 1.99,2.77 2,2.53 1.99,2.36 1.99,2.45 1.99,2.56 1.99,2.85 2,2.88 1.99,2.93 1.99,2.65 1.99,2.41 1.99,2.26 2,2.29 1.99,2.6 1.99,2.92 2,2.69 1.98,2.34 2,2.01 1.99,2.07 1.99,2.28 2,2.43 1.99,2.35 1.99,2.22 1.99,2.17 1.99,2.29 2,2.37 1.99,2.09 1.99,1.84 1.99,1.75 2,1.75 1.98,1.84 2,2.02 2,2.14 1.98,2.29 2,2.25 1.99,2.39 1.99,2.57 1.99,2.24 1.99,1.95 2,1.83 1.99,1.71 1.99,1.72 1.99,1.78 2,1.88 1.99,1.83 1.99,1.83 1.99,2.09 2,1.89 1.99,1.66 1.99,1.68 1.99,1.61 2,1.54 1.99,1.49 1.99,1.47 1.99,1.6 1.99,1.63 2,1.67 1.99,1.67 1.99,1.65 2,1.45 1.98,1.22 2,1.18 1.98,1.14 2,1.25 2,1.41 1.98,1.66 2,1.56 1.99,1.49 1.99,1.35 1.99,1.25 2,1.07 1.99,1.09 1.99,1.04 1.99,1.12 1.99,1.12 2,1.05 1.99,1.03 1.99,0.85 2,0.82 1.99,0.75 1.99,0.86 1.99,0.95 1.99,1 2,1.01 1.99,0.92 1.99,0.74 1.99,0.62 1.99,0.52 2,0.51 1.99,0.61 1.99,0.72 2,0.71 1.98,0.55 2,0.46 1.99,0.43 1.99,0.46 2,0.47 1.99,0.41 1.99,0.45 1.99,0.44 2,0.43 1.98,0.16 2,0.16 1.99,0.21 1.99,0.26 2,0.2 1.98,0.22 2,0.17 2,0.1 1.98,-0.01 2,-0.13 1.99,-0.12 1.99,-0.1 1.99,-0.08 1.99,-0.15 2,-0.15 1.99,-0.17 1.99,-0.28 1.99,-0.26 2,-0.17 1.99,-0.01 1.99,-0.02 1.99,-0.07 2,-0.31 1.99,-0.38 1.99,-0.58 1.99,-0.82 2,-0.67 1.99,-0.46 1.99,-0.31 1.99,-0.26 1.99,-0.31 2,-0.37 1.98,-0.46 2,-0.52 2,-0.56 1.98,-0.55 2,-0.55 1.99,-0.49 1.99,-0.48 2,-0.48 1.98,-0.54 2,-0.48 1.99,-0.46 1.99,-0.48 1.99,-0.62 2,-0.66 1.99,-0.63 1.99,-0.53 2,-0.44 1.98,-0.43 2,-0.48 1.99,-0.47 1.99,-0.46 2,-0.49 1.99,-0.53 1.99,-0.48 1.99,-0.53 1.99,-0.52 2,-0.5 1.99,-0.38 1.99,-0.36 1.99,-0.39 1.99,-0.39 2,-0.35 1.99,-0.42 1.99,-0.57 2,-0.61 1.99,-0.5 1.99,-0.43 1.99,-0.37 1.99,-0.34 2,-0.39 1.99,-0.43 1.99,-0.51 1.99,-0.47 2,-0.33 1.98,-0.23 2,-0.21 2,-0.29 1.98,-0.28 2,-0.35 1.98,-0.35 2,-0.3 2,-0.13 1.98,-0.05 2,-0.1 1.99,-0.26 1.99,-0.26 1.99,-0.38 1.99,-0.42 2,-0.42 1.99,-0.29 1.99,-0.25 1.99,-0.32 2,-0.33 1.99,-0.1 1.99,-0.03 2,-0.05 1.99,-0.26 1.99,-0.36 1.99,-0.46 1.99,-0.4 2,-0.36 1.99,-0.12 1.99,-0.05 1.99,-0.11 1.99,-0.38 2,-0.5 1.99,-0.39 1.99,-0.15 2,-0.05 1.98,-0.06 2,0.02 1.99,-0.14 1.99,-0.2 2,-0.27 1.99,-0.23 1.99,-0.24 1.99,-0.28 1.99,-0.22 1.99,-0.1 2,-0.09 1.99,-0.1 1.99,-0.21 2,-0.13 1.98,-0.02 2,-0.05 2,-0.12 1.98,-0.16 2,-0.04 1.99,0.1 1.99,0.09 1.99,-0.05 1.99,-0.2 2,-0.25 1.99,-0.19 1.99,-0.17 1.99,-0.1 1.99,-0.08 2,-0.03 1.99,-0.04 1.99,-0.02 h 2 l 1.99,0.03 1.99,0.06 1.99,-0.01 2,-0.06 1.99,-0.04 1.99,0.02 1.99,-0.07 1.99,-0.18 2,-0.2 1.98,-0.07 2,0.06 2,0.09 1.98,0.06 2,-0.05 1.99,-0.09 1.99,-0.15 2,-0.14 1.98,0.01 2,0.24 1.99,0.31 1.99,0.15 1.99,-0.04 2,-0.09 1.99,-0.04 1.99,0.08 1.99,0.01 1.99,-0.1 2,-0.16 1.99,-0.09 1.99,-0.01 2,0.03 1.99,0.09 1.99,0.07 1.99,0.07 1.99,0.15 2,0.15 1.99,0.12 1.99,-0.03 2,-0.03 h 1.98 l 2,0.04 1.99,0.05 1.99,0.04 2,0.03 1.99,0.02 1.99,0.09 1.99,0.12 1.99,0.14 2,0.07 1.99,0.04 1.99,0.02 h 1.99 2 l 1.98,0.02 2,0.09 1.99,0.14 1.99,0.16 2,0.1 1.98,0.15 2,0.29 1.99,0.29 1.99,0.06 2,-0.05 1.99,-0.08 1.99,0.11 1.99,0.16 1.99,0.15 2,0.14 1.99,0.16 1.99,0.09 2,0.03 1.99,-0.04 h 1.99 l 1.99,0.03 1.99,0.12 2,0.1 1.99,0.08 1.99,0.03 1.99,0.1 2,0.1 1.99,0.16 1.99,0.09 2,0.16 1.98,0.21 2,0.27 1.98,0.2 2,0.06 2,-0.04 1.98,0.02 2,0.13 1.99,0.14 1.99,0.07 2,-0.04 1.99,0.1 1.99,0.16 1.99,0.15 1.99,0.13 1.99,0.17 2,0.23 1.99,0.35 1.99,0.38 2,0.37 1.99,0.18 1.99,0.1 1.99,-0.04 1.99,-0.16 2,-0.1 1.99,0.22 1.99,0.28 1.99,0.26 1.99,0.13 2,0.08 1.99,0.05 1.99,0.18 2,0.35 1.98,0.36 2,0.21 1.99,-0.03 1.99,-0.01 2,0.04 1.99,0.23 1.99,0.1 1.99,0.11 2,0.05 1.99,0.19 1.99,0.18 1.99,0.23 1.99,0.24 2,0.23 1.98,0.13 2,0.09 2,0.09 1.98,0.13 2,0.14 1.99,0.2 1.99,0.3 2,0.31 1.98,0.29 2,0.18 1.99,0.13 1.99,0.05 1.99,0.05 2,0.15 1.99,0.13 1.99,0.09 1.99,0.02 2,0.07 1.99,0.21 1.99,0.24 1.99,0.27 2,0.33 1.99,0.32 1.99,0.27 1.99,0.3 1.99,0.25 2,0.2 1.99,0.16 1.99,0.24 2,0.2 1.98,0.12 2,0.06 1.99,0.02 1.99,0.15 2,0.25 1.98,0.25 2,0.14 1.99,0.1 1.99,0.21 2,0.31 1.99,0.3 1.99,0.14 1.99,0.12 2,0.12 1.98,0.22 2,0.32 1.99,0.31 1.99,0.22 2,0.08 1.99,0.09 1.99,0.16 2,0.25 1.98,0.21 2,0.2 1.99,0.28 1.99,0.33 1.99,0.36 1.99,0.32 2,0.24 1.99,0.06 1.99,0.03 2,0.03 1.99,0.2 1.99,0.29 1.99,0.35 1.99,0.26 2,0.16 1.99,0.13 1.99,0.14 1.99,0.2 2,0.28 1.99,0.37 1.99,0.39 2,0.28 1.98,0.15 2,0.11 1.98,0.15 2,0.12 2,0.11 1.98,0.11 2,0.16 1.99,0.25 1.99,0.29 2,0.31 1.98,0.31 2,0.32 1.99,0.25 1.99,0.25 1.99,0.19 2,0.13 1.99,0.2 1.99,0.25 2,0.26 1.99,0.24 1.99,0.27 1.99,0.28 1.99,0.18 2,0.19 1.99,0.19 1.99,0.33 1.99,0.3 1.99,0.3 2,0.17 2,0.28 1.98,0.36 2,0.45 1.98,0.41 2,0.3 1.99,0.15 1.99,0.06 2,0.13 1.99,0.24 1.99,0.43 1.99,0.32 1.99,0.12 2,0.16 1.99,0.34 1.99,0.34 1.99,0.26 2,0.25 1.98,0.2 2,0.13 2,0.06 1.98,0.19 2,0.32 1.99,0.41 1.99,0.38 2,0.27 1.98,0.19 2,0.1 1.99,0.15 1.99,0.21 1.99,0.31 2,0.36 1.99,0.35 2,0.21 1.98,0.12 2,0.1 1.99,0.13 1.99,0.24 1.99,0.3 2,0.36 1.99,0.35 1.99,0.37 1.99,0.34 1.99,0.2 2,0.12 1.99,0.09 1.99,0.16 2,0.31 1.98,0.44 2,0.45 1.99,0.29 1.99,0.09 2,0.07 1.98,0.16 2,0.37 1.99,0.42 1.99,0.41 2,0.35 1.99,0.36 1.99,0.23 1.99,0.12 h 1.99 l 1.99,0.1 2,0.21 1.99,0.28 2,0.3 1.99,0.37 1.99,0.46 1.99,0.44 1.99,0.33 1.99,0.25 2,0.32 1.99,0.4 1.99,0.36 1.99,0.33 1.99,0.21 2,0.25 1.99,0.13 1.99,0.16 2,0.22 1.99,0.3 1.99,0.44 1.99,0.41 1.99,0.24 2,0.02 1.99,0.01 1.99,0.18 1.99,0.4 2,0.42 1.99,0.41 1.99,0.38 1.99,0.39 1.99,0.24 2,0.2 1.98,0.3 2,0.26 2,0.09 1.99,-0.02 1.99,0.18 1.99,0.36 1.99,0.45 1.99,0.35 1.99,0.23 2,0.16 1.99,0.3 1.99,0.37 1.99,0.39 2,0.31 1.99,0.31 1.99,0.37 2,0.38 1.99,0.31 1.99,0.2 1.99,0.24 1.99,0.25 2,0.3 1.99,0.27 1.99,0.32 1.99,0.39 1.99,0.36 2,0.23 1.99,0.16 1.99,0.22 2,0.25 1.98,0.26 2,0.24 1.99,0.39 1.99,0.5 2,0.51 1.99,0.4 1.99,0.21 1.99,0.12 1.99,0.23 1.99,0.3 2,0.34 1.99,0.34 1.99,0.22 2,0.08 1.98,0.1 2,0.28 1.99,0.3 1.99,0.23 2,0.15 1.99,0.1 1.99,0.24 1.99,0.59 1.99,0.73 2,0.61 1.99,0.36 1.99,0.27 1.99,0.35 1.99,0.41 2,0.37 1.99,0.24 1.99,0.12 2,0.1 1.99,0.18 1.99,0.36 1.99,0.4 2,0.32 1.99,0.19 1.99,0.17 1.99,0.19 1.99,0.24 2,0.37 1.98,0.48 2,0.48 2,0.38 1.98,0.28 2,0.22 1.98,0.28 2,0.28 2,0.29 1.98,0.27 2,0.18 1.99,0.22 1.99,0.23 1.99,-3.75 2,0.99 1.99,0.98 1.99,0.84 1.99,0.63 1.99,0.56 2,0.48 1.99,0.56 1.99,0.59 2,0.59 1.99,0.51 1.99,0.48 1.99,0.48 1.99,0.46 2,0.48 1.99,0.36 1.99,0.36 2,0.38 1.98,0.56 2,0.15 1.99,0.13 1.99,0.02 2,0.11 1.98,0.24 2,1.32 1.99,0.86 1.99,-2.32 2,0.18 1.99,0.23 1.99,0.25 1.99,0.27 2,0.31 1.98,0.32 2,0.47 1.99,0.49 1.99,0.5 2,3.23 1.98,0.25 2,0.24 2,-0.53 1.98,0.57 2,1.11 1.99,-0.62 1.99,0.48 1.99,-1.27 1.99,0.19 2,0.26 1.99,0.63 1.99,1.26 2,0.43 1.99,1.61 1.99,0.28 1.99,1.65 1.99,-0.01 2,-0.05 1.99,0.27 1.99,0.28 1.99,0.31 2,0.43 1.99,0.39 1.99,0.28 2,-0.14 1.98,0.49 2,1.67 1.98,0.28 2,2.58"
         style="fill:none;stroke:#000000;stroke-width:20.0025;stroke-linecap:butt;stroke-linejoin:bevel;stroke-miterlimit:10;stroke-dasharray:60, 60;stroke-dashoffset:0;stroke-opacity:1"
         id="path334" /><path
         d="m 4960,1093.76 39.82,1.49 39.83,1.44 39.83,1.39 39.82,1.36 39.83,1.31 39.82,1.25 39.82,1.21 39.83,1.15 39.83,1.1 39.82,1.02 39.82,0.95 39.83,0.89 39.83,0.8 39.82,0.72 39.83,0.62 39.82,0.53 39.83,0.42 39.82,0.3 39.83,0.18 39.82,0.04 39.82,-0.11 39.83,-0.28 39.83,-0.45 39.82,-0.65 39.83,-0.87 39.82,-1.11 39.82,-1.38 39.83,-1.58 39.83,-1.77 39.82,-2.23 39.82,-3.29 39.83,-4.53 39.83,-4.32 39.82,0.18 39.83,-6.88 39.82,-9.48 39.82,-8.71 39.83,-0.37 39.83,-19.48 39.82,-12.66 39.82,-14.89 39.83,-17.289 39.83,-19.277 39.82,-18.215 39.83,-5.238 39.82,41.82 39.82,131.899 39.83,215.8 39.83,258.3 39.82,273.86 19.91,137.8 19.91,136.56 19.92,133.71 19.91,124.2 19.91,118.46 19.92,101.63 19.91,89.51 19.91,73.44 19.91,32.05 19.92,28.85 19.91,17.64 19.91,10.48 19.91,0.76 19.91,-3.27 19.92,-3.48 19.91,19.26 19.91,0.97 19.92,-1.76 19.91,-1.36 19.91,0.35 19.91,2.06 19.91,2.72 19.92,2.33 19.91,1.72 19.91,1.49 19.92,1.63 19.91,1.88 19.91,2.06 19.91,2.17 19.92,2.23 19.91,2.31 19.91,2.41 19.91,2.49 19.92,2.57 19.91,2.66 19.91,2.71 19.91,2.79 19.92,2.85 19.91,2.9 19.91,2.96 19.91,3.01 19.91,3.05 19.92,3.11 19.91,3.14 19.91,3.18 19.92,3.21 19.91,3.25 19.91,3.28 19.91,3.32 19.92,3.33 19.91,3.36 19.91,3.39 19.91,3.42 19.91,3.43 19.92,3.46 19.91,3.47 19.91,3.49 19.92,3.51 19.91,3.52 19.91,3.53 19.91,3.56 19.91,3.56 19.92,3.58 19.91,3.59 19.91,3.6 19.92,3.61 19.91,3.62 19.91,3.63 19.91,3.64 19.92,3.64 19.91,3.66 19.91,3.67 19.91,3.66 19.91,3.68 19.92,3.67 19.91,3.69 19.91,3.69 19.92,3.7 19.91,3.71 19.91,3.7 19.91,3.71 19.91,3.71 19.92,3.72 19.91,3.73 19.91,3.72 19.92,3.73 19.91,3.73 19.91,3.73 19.91,3.75 19.92,3.73 19.91,3.74 19.91,3.75 19.91,3.75 19.91,3.75 19.92,3.75 19.91,3.75 19.91,3.75 19.92,3.75 19.91,3.76 19.91,3.76"
         style="fill:none;stroke:#d95319;stroke-width:20.0025;stroke-linecap:butt;stroke-linejoin:round;stroke-miterlimit:10;stroke-dasharray:none;stroke-opacity:1"
         id="path336" /><path
         d="m 4960,1013.02 110.2,-1.04 199.13,7.59 199.13,5.62 199.12,2.81 199.13,-1.07 199.12,-9.02 156.81,-21.039 156.81,-30.211 104.54,-58.531 69.69,-38.922 69.7,29.152 199.12,556.621 199.13,655.6 29.18,96.32 99.57,318.65 7.34,21.16 90.73,258.54 1.49,5.81 58.99,121.76 40.57,45.89 19.91,11 79.65,14.39 9.96,-3.01 89.61,11.8 99.56,0.32 99.56,11.47 99.56,14.63 99.57,16.3 99.56,17.62 99.56,18.58 99.56,19.25 99.57,19.74 99.56,11.18 99.56,29.31 99.56,19.19 99.57,16.27 99.56,17.75 99.56,20.65"
         style="fill:none;stroke:#77ac30;stroke-width:20.0025;stroke-linecap:butt;stroke-linejoin:round;stroke-miterlimit:10;stroke-dasharray:none;stroke-opacity:1"
         id="path338" /></g></g></svg>
