<?xml version="1.0" encoding="UTF-8" standalone="no"?>
<!-- Created with Inkscape (http://www.inkscape.org/) -->

<svg
   version="1.1"
   id="svg2"
   xml:space="preserve"
   width="793.33331"
   height="397.33334"
   viewBox="0 0 793.33331 397.33334"
   sodipodi:docname="parity.svg"
   inkscape:version="1.1.1 (3bf5ae0d25, 2021-09-20)"
   xmlns:inkscape="http://www.inkscape.org/namespaces/inkscape"
   xmlns:sodipodi="http://sodipodi.sourceforge.net/DTD/sodipodi-0.dtd"
   xmlns="http://www.w3.org/2000/svg"
   xmlns:svg="http://www.w3.org/2000/svg"><defs
     id="defs6" /><sodipodi:namedview
     id="namedview4"
     pagecolor="#ffffff"
     bordercolor="#666666"
     borderopacity="1.0"
     inkscape:pageshadow="2"
     inkscape:pageopacity="0.0"
     inkscape:pagecheckerboard="0"
     showgrid="false"
     inkscape:zoom="0.9643986"
     inkscape:cx="467.1305"
     inkscape:cy="236.93523"
     inkscape:window-width="1920"
     inkscape:window-height="1027"
     inkscape:window-x="-8"
     inkscape:window-y="-8"
     inkscape:window-maximized="1"
     inkscape:current-layer="g8" /><g
     id="g8"
     inkscape:groupmode="layer"
     inkscape:label="parity"
     transform="matrix(1.3333333,0,0,-1.3333333,0,397.33333)"><path
       d="M 49.75,50.25 H 290.5 v 205.5 H 49.75 Z"
       style="fill:#ffffff;fill-opacity:1;fill-rule:nonzero;stroke:none;stroke-width:0.1"
       id="path18" /><path
       d="M 49.75,50.25 H 290.5"
       style="fill:none;stroke:#262626;stroke-width:0.50025;stroke-linecap:square;stroke-linejoin:round;stroke-miterlimit:10;stroke-dasharray:none;stroke-opacity:1"
       id="path20" /><path
       d="m 49.75,50.25 v 2.4074"
       style="fill:none;stroke:#262626;stroke-width:0.50025;stroke-linecap:square;stroke-linejoin:round;stroke-miterlimit:10;stroke-dasharray:none;stroke-opacity:1"
       id="path22" /><path
       d="m 170.125,50.25 v 2.4074"
       style="fill:none;stroke:#262626;stroke-width:0.50025;stroke-linecap:square;stroke-linejoin:round;stroke-miterlimit:10;stroke-dasharray:none;stroke-opacity:1"
       id="path24" /><path
       d="m 290.5,50.25 v 2.4074"
       style="fill:none;stroke:#262626;stroke-width:0.50025;stroke-linecap:square;stroke-linejoin:round;stroke-miterlimit:10;stroke-dasharray:none;stroke-opacity:1"
       id="path26" /><g
       id="g28"><text
         transform="matrix(1,0,0,-1,45.625,31.2)"
         style="font-style:normal;font-variant:normal;font-weight:normal;font-stretch:normal;font-size:14.0002px;font-family:'CMU Serif';-inkscape-font-specification:'CMU Serif';writing-mode:lr-tb;fill:#262626;fill-opacity:1;fill-rule:nonzero;stroke:none"
         id="text32"><tspan
           x="0 114.74956 122.53367 126.42573 240.74911"
           y="0"
           sodipodi:role="line"
           id="tspan30">00.51</tspan></text><text
         transform="matrix(1,0,0,-1,112.75,10.7)"
         style="font-style:normal;font-variant:normal;font-weight:normal;font-stretch:normal;font-size:15.3997px;font-family:'CMU Serif';-inkscape-font-specification:'CMU Serif';writing-mode:lr-tb;fill:#262626;fill-opacity:1;fill-rule:nonzero;stroke:none"
         id="text36"><tspan
           x="0 8.562233 17.124466 22.252567 35.080517 43.64275 47.061481 50.480217 58.180065 66.742302 75.304535 79.585648 87.2855 94.985352 102.6852 106.10394"
           y="0"
           sodipodi:role="line"
           id="tspan34">normalized cycle</tspan></text></g><path
       d="m 49.75,50.25 v 205.5"
       style="fill:none;stroke:#262626;stroke-width:0.50025;stroke-linecap:square;stroke-linejoin:round;stroke-miterlimit:10;stroke-dasharray:none;stroke-opacity:1"
       id="path38" /><path
       d="m 49.75,50.25 h 2.4074"
       style="fill:none;stroke:#262626;stroke-width:0.50025;stroke-linecap:square;stroke-linejoin:round;stroke-miterlimit:10;stroke-dasharray:none;stroke-opacity:1"
       id="path40" /><path
       d="m 49.75,84.5004 h 2.4074"
       style="fill:none;stroke:#262626;stroke-width:0.50025;stroke-linecap:square;stroke-linejoin:round;stroke-miterlimit:10;stroke-dasharray:none;stroke-opacity:1"
       id="path42" /><path
       d="m 49.75,118.75 h 2.4074"
       style="fill:none;stroke:#262626;stroke-width:0.50025;stroke-linecap:square;stroke-linejoin:round;stroke-miterlimit:10;stroke-dasharray:none;stroke-opacity:1"
       id="path44" /><path
       d="m 49.75,153 h 2.4074"
       style="fill:none;stroke:#262626;stroke-width:0.50025;stroke-linecap:square;stroke-linejoin:round;stroke-miterlimit:10;stroke-dasharray:none;stroke-opacity:1"
       id="path46" /><path
       d="m 49.75,187.25 h 2.4074"
       style="fill:none;stroke:#262626;stroke-width:0.50025;stroke-linecap:square;stroke-linejoin:round;stroke-miterlimit:10;stroke-dasharray:none;stroke-opacity:1"
       id="path48" /><path
       d="m 49.75,221.5 h 2.4074"
       style="fill:none;stroke:#262626;stroke-width:0.50025;stroke-linecap:square;stroke-linejoin:round;stroke-miterlimit:10;stroke-dasharray:none;stroke-opacity:1"
       id="path50" /><path
       d="m 49.75,255.75 h 2.4074"
       style="fill:none;stroke:#262626;stroke-width:0.50025;stroke-linecap:square;stroke-linejoin:round;stroke-miterlimit:10;stroke-dasharray:none;stroke-opacity:1"
       id="path52" /><g
       id="g54"><text
         transform="matrix(1,0,0,-1,32.2,45)"
         style="font-style:normal;font-variant:normal;font-weight:normal;font-stretch:normal;font-size:14.0002px;font-family:'CMU Serif';-inkscape-font-specification:'CMU Serif';writing-mode:lr-tb;fill:#262626;fill-opacity:1;fill-rule:nonzero;stroke:none"
         id="text70"><tspan
           x="0 4.6620665"
           y="0"
           sodipodi:role="line"
           id="tspan56">-1</tspan><tspan
           x="-12 -7.3379335 0.44617781 4.3382335"
           y="-34.25"
           sodipodi:role="line"
           id="tspan58">-0.5</tspan><tspan
           x="4.5"
           y="-68.5"
           id="tspan60"
           style="font-style:normal;font-variant:normal;font-weight:normal;font-stretch:normal;font-family:'CMU Serif';-inkscape-font-specification:'CMU Serif'">0</tspan><tspan
           x="-6.75 1.0341111 4.926167"
           y="-102.75"
           sodipodi:role="line"
           id="tspan62">0.5</tspan><tspan
           x="4.5"
           y="-137"
           id="tspan64"
           style="font-style:normal;font-variant:normal;font-weight:normal;font-stretch:normal;font-family:'CMU Serif';-inkscape-font-specification:'CMU Serif'">1</tspan><tspan
           x="-6.75 1.0341111 4.926167"
           y="-171.25"
           sodipodi:role="line"
           id="tspan66">1.5</tspan><tspan
           x="4.5"
           y="-205.5"
           id="tspan68"
           style="font-style:normal;font-variant:normal;font-weight:normal;font-stretch:normal;font-family:'CMU Serif';-inkscape-font-specification:'CMU Serif'">2</tspan></text><text
         transform="matrix(0,1,1,0,13.45,135.75)"
         style="font-style:normal;font-variant:normal;font-weight:normal;font-stretch:normal;font-size:15.3997px;font-family:'CMU Serif';-inkscape-font-specification:'CMU Serif';writing-mode:lr-tb;fill:#262626;fill-opacity:1;fill-rule:nonzero;stroke:none"
         id="text74"><tspan
           x="0 8.562233 12.843349 17.124466 29.952417"
           y="0"
           sodipodi:role="line"
           id="tspan72">u [m]</tspan></text></g><path
       d="m 51.8477,259.91 c 0,0.078 0.0234,0.145 0.0707,0.2 l 2.9644,2.953 -2.9644,2.964 c -0.0473,0.047 -0.0707,0.11 -0.0707,0.188 0,0.07 0.0273,0.135 0.082,0.193 0.0547,0.059 0.1215,0.088 0.1992,0.088 0.0625,0 0.1328,-0.027 0.2109,-0.082 l 2.9536,-2.953 2.9414,2.953 c 0.0781,0.055 0.148,0.082 0.2105,0.082 0.0781,0 0.1445,-0.027 0.1988,-0.082 0.0551,-0.055 0.0825,-0.121 0.0825,-0.199 0,-0.078 -0.0235,-0.141 -0.0703,-0.188 l -2.9649,-2.964 2.9649,-2.953 c 0.0468,-0.055 0.0703,-0.122 0.0703,-0.2 0,-0.078 -0.0274,-0.144 -0.0825,-0.199 -0.0543,-0.055 -0.1207,-0.082 -0.1988,-0.082 -0.0703,0 -0.1406,0.035 -0.2105,0.106 l -2.9414,2.929 -2.9536,-2.929 c -0.0625,-0.071 -0.1328,-0.106 -0.2109,-0.106 -0.0777,0 -0.1445,0.029 -0.1992,0.088 -0.0547,0.058 -0.082,0.123 -0.082,0.193"
       style="fill:#262626;fill-opacity:1;fill-rule:nonzero;stroke:none;stroke-width:0.1"
       id="path76" /><g
       id="g78"><text
         transform="matrix(1,0,0,-1,61,259.5)"
         style="font-style:normal;font-variant:normal;font-weight:normal;font-stretch:normal;font-size:14.0002px;font-family:'CMU Serif';-inkscape-font-specification:'CMU Serif';writing-mode:lr-tb;fill:#262626;fill-opacity:1;fill-rule:nonzero;stroke:none"
         id="text82"><tspan
           x="0 7.784111"
           y="0"
           sodipodi:role="line"
           id="tspan80">10</tspan></text><text
         transform="matrix(1,0,0,-1,76.75,266.25)"
         style="font-style:normal;font-variant:normal;font-weight:normal;font-stretch:normal;font-size:11.1997px;font-family:'CMU Serif';-inkscape-font-specification:'CMU Serif';writing-mode:lr-tb;fill:#262626;fill-opacity:1;fill-rule:nonzero;stroke:none"
         id="text86"><tspan
           x="0 3.7295001"
           y="0"
           sodipodi:role="line"
           id="tspan84">-3</tspan></text></g><g
       id="g88"><text
         transform="matrix(1,0,0,-1,109.375,262.387)"
         style="font-style:normal;font-variant:normal;font-weight:bold;font-stretch:normal;font-size:15.3997px;font-family:'CMU Serif';-inkscape-font-specification:'CMU Serif Bold';writing-mode:lr-tb;fill:#000000;fill-opacity:1;fill-rule:nonzero;stroke:none"
         id="text92"><tspan
           x="0 4.2811165 13.690333 23.09955 32.508766 37.636868 41.917984 50.480217 59.889435 69.298653 73.579765 82.988983 92.398201 97.526299 106.93552 116.34473"
           y="0"
           sodipodi:role="line"
           id="tspan90">input and output</tspan></text></g><path
       d="m 49.75,118.75 0.3734,0.667 0.0024,0.005 0.3726,0.667 0.0032,0.004 0.3726,0.667 0.0024,0.004 0.3734,0.667 0.0023,0.004 0.3704,0.662 0.0031,0.005 0.3726,0.666 0.0024,0.004 0.3734,0.666 0.0024,0.004 0.3734,0.665 0.0023,0.004 0.3704,0.661 0.0023,0.005 0.3734,0.664 0.0024,0.004 0.3734,0.664 0.0024,0.004 0.3726,0.662 0.0031,0.005 0.3704,0.658 0.0023,0.004 0.3734,0.661 0.0024,0.004 0.3734,0.661 0.0024,0.004 0.3726,0.66 0.0031,0.004 0.3704,0.655 0.0023,0.003 0.3734,0.658 0.0024,0.004 0.3726,0.656 0.0032,0.004 0.3726,0.655 0.0024,0.005 0.3734,0.654 0.0023,0.004 0.3704,0.648 0.0031,0.004 0.3726,0.651 0.0024,0.004 0.3734,0.65 0.0024,0.004 0.3734,0.648 0.0023,0.004 0.3704,0.642 0.0031,0.005 0.3726,0.645 0.0024,0.004 0.3734,0.643 0.0024,0.004 0.3734,0.641 0.0023,0.005 0.3704,0.635 0.0023,0.004 0.3734,0.638 0.0024,0.003 0.3734,0.636 0.0024,0.004 0.3726,0.634 0.0031,0.004 0.3704,0.627 0.0023,0.004 0.3734,0.63 0.0024,0.004 0.3726,0.627 0.0032,0.005 0.3726,0.624 0.0024,0.005 0.3734,0.622 0.0023,0.004 0.3711,0.617 0.0024,0.003 0.3726,0.618 0.0032,0.004 0.3726,0.616 0.0024,0.003 0.3734,0.613 0.0023,0.005 0.3704,0.606 0.0031,0.003 0.3726,0.608 0.0024,0.004 0.3734,0.605 0.0024,0.004 0.3734,0.602 0.0023,0.004 0.3704,0.595 0.0023,0.004 0.3734,0.596 0.0024,0.004 0.3734,0.593 0.0024,0.004 0.3726,0.591 0.0031,0.004 0.3704,0.583 0.0023,0.004 0.3734,0.584 0.0024,0.004 0.3734,0.58 0.0024,0.004 0.3726,0.578 0.0031,0.004 0.3704,0.57 0.0023,0.004 0.3734,0.572 0.0024,0.003 0.3726,0.568 0.0032,0.003 0.3726,0.565 0.0024,0.004 0.3734,0.56 0.0023,0.003 0.3704,0.554 0.0031,0.004 0.3726,0.553 0.0024,0.004 0.3734,0.55 0.0024,0.004 0.3734,0.545 0.0023,0.004 0.3704,0.539 0.0023,0.003 0.3734,0.539 0.0024,0.003 0.3734,0.535 0.0024,0.004 0.3734,0.53 0.0023,0.004 0.3704,0.523 0.0023,0.003 0.3734,0.523 0.0024,0.004 0.3734,0.518 0.0024,0.004 0.3726,0.514 0.0031,0.003 0.3704,0.507 0.0023,0.004 0.3734,0.506 0.0024,0.003 0.3726,0.502 0.0032,0.003 0.3726,0.498 0.0024,0.003 0.3734,0.492 0.0023,0.004 0.3711,0.486 0.0024,0.003 0.3726,0.484 0.0032,0.003 0.3726,0.48 0.0024,0.003 0.3734,0.475 0.0023,0.003 0.3704,0.468 0.0031,0.003 0.3726,0.465 0.0024,0.004 0.3734,0.461 0.0024,0.003 0.3734,0.457 0.0023,0.002 0.3704,0.449 0.0023,0.003 0.3734,0.447 0.0024,0.002 0.3734,0.443 0.0024,0.002 0.3726,0.437 0.0031,0.003 0.3704,0.429 0.0023,0.003 0.3734,0.428 0.0024,0.002 0.3734,0.422 0.0024,0.003 0.3726,0.417 0.0031,0.003 0.3704,0.409 0.0023,0.003 0.3734,0.407 0.0024,0.002 0.3726,0.402 0.0032,0.002 0.3726,0.397 0.0024,0.002 0.3734,0.391 0.0023,0.003 0.3704,0.383 0.0031,0.002 0.3726,0.381 0.0024,0.003 0.3734,0.375 0.0024,0.002 0.3734,0.37 0.0023,0.002 0.3704,0.361 0.0023,0.003 0.3734,0.359 0.0024,0.002 0.3734,0.353 0.0024,0.002 0.3734,0.348 0.0023,0.002 0.3704,0.34 0.0023,0.002 0.3734,0.336 0.0024,0.002 0.3734,0.331 0.0024,0.002 0.3726,0.325 0.0031,0.002 0.3704,0.317 0.0023,0.003 0.3734,0.313 0.0024,0.002 0.3726,0.308 0.0032,0.002 0.3726,0.302 0.0024,0.002 0.3734,0.296 0.0023,0.002 0.3711,0.288 0.0024,0.002 0.3726,0.285 0.0024,0.002 0.3734,0.278 0.0024,0.002 0.3734,0.272 0.0023,0.002 0.3704,0.264 0.0031,0.003 0.3726,0.26 0.0024,0.001 0.3734,0.256 0.0024,0.001 0.3734,0.248 0.0023,0.002 0.3704,0.241 0.0023,0.002 0.3734,0.236 0.0024,0.002 0.3734,0.23 0.0024,10e-4 0.3726,0.224 0.0031,0.001 0.3704,0.217 0.0023,0.002 0.3734,0.211 0.0024,0.001 0.3734,0.206 0.0024,10e-4 0.3726,0.199 0.0031,0.002 0.3704,0.192 h 0.0023 l 0.3734,0.188 0.0024,0.001 0.3726,0.181 h 0.0032 l 0.3726,0.175 0.0028,0.001 0.373,0.168 0.002,0.001 0.371,0.161 0.003,0.001 0.372,0.155 h 0.003 l 0.373,0.15 h 0.003 l 0.373,0.143 0.002,0.001 0.371,0.135 0.002,0.001 0.373,0.13 0.003,0.001 0.373,0.123 h 0.003 l 0.373,0.118 h 0.002 l 0.371,0.111 h 0.002 l 0.373,0.104 0.003,0.001 0.373,0.097 0.003,0.001 0.372,0.09 0.003,0.001 0.371,0.084 0.002,0.001 0.373,0.078 0.003,0.001 0.372,0.072 h 0.004 l 0.372,0.065 0.003,0.001 0.373,0.058 h 0.002 l 0.371,0.052 0.003,0.001 0.372,0.045 h 0.003 l 0.373,0.039 0.003,0.001 0.373,0.033 h 0.002 l 0.371,0.026 h 0.003 l 0.372,0.019 h 0.003 l 0.373,0.014 h 0.003 l 0.373,0.007 h 0.002 0.186 0.185 0.002 l 0.373,-0.007 h 0.003 l 0.373,-0.014 h 0.003 l 0.372,-0.019 h 0.003 l 0.371,-0.026 h 0.002 l 0.373,-0.033 0.003,-0.001 0.373,-0.039 h 0.003 l 0.372,-0.045 0.003,-0.001 0.371,-0.052 h 0.002 l 0.373,-0.058 0.003,-0.001 0.372,-0.065 h 0.004 l 0.372,-0.072 0.003,-0.001 0.373,-0.078 0.002,-0.001 0.371,-0.084 0.003,-0.001 0.372,-0.09 0.003,-0.001 0.373,-0.097 0.003,-0.001 0.373,-0.104 h 0.002 l 0.371,-0.111 h 0.002 l 0.373,-0.118 h 0.003 l 0.373,-0.123 0.003,-0.001 0.373,-0.13 0.002,-0.001 0.371,-0.135 0.002,-0.001 0.373,-0.143 h 0.003 l 0.373,-0.15 h 0.003 l 0.372,-0.155 0.003,-0.001 0.371,-0.161 0.002,-0.001 0.373,-0.168 0.003,-0.001 0.372,-0.175 h 0.004 l 0.372,-0.181 0.003,-0.001 0.373,-0.188 h 0.002 l 0.371,-0.192 0.003,-0.002 0.372,-0.199 0.003,-10e-4 0.373,-0.206 0.003,-0.001 0.373,-0.211 0.002,-0.002 0.371,-0.217 0.003,-0.001 0.372,-0.224 0.003,-10e-4 0.373,-0.23 0.003,-0.002 0.373,-0.236 0.002,-0.002 0.371,-0.241 0.002,-0.002 0.373,-0.248 0.003,-0.001 0.373,-0.256 0.003,-0.001 0.372,-0.26 0.003,-0.003 0.371,-0.264 0.002,-0.002 0.373,-0.272 0.003,-0.002 0.373,-0.278 0.003,-0.002 0.372,-0.285 0.003,-0.002 0.371,-0.288 0.002,-0.002 0.373,-0.296 0.003,-0.002 0.372,-0.302 0.004,-0.002 0.372,-0.308 0.003,-0.002 0.373,-0.313 0.002,-0.003 0.371,-0.317 0.003,-0.002 0.372,-0.325 0.003,-0.002 0.373,-0.331 0.003,-0.002 0.373,-0.336 0.002,-0.002 0.371,-0.34 0.002,-0.002 0.373,-0.348 0.003,-0.002 0.373,-0.353 0.003,-0.002 0.373,-0.359 0.002,-0.003 0.371,-0.361 0.002,-0.002 0.373,-0.37 0.003,-0.002 0.373,-0.375 0.003,-0.003 0.372,-0.381 0.003,-0.002 0.371,-0.383 0.002,-0.003 0.373,-0.391 0.003,-0.002 0.372,-0.397 0.004,-0.002 0.372,-0.402 0.003,-0.002 0.373,-0.407 0.002,-0.003 0.371,-0.409 0.003,-0.003 0.372,-0.417 0.003,-0.003 0.373,-0.422 0.003,-0.002 0.373,-0.428 0.002,-0.003 0.371,-0.429 0.003,-0.003 0.372,-0.437 0.003,-0.002 0.373,-0.443 0.003,-0.002 0.373,-0.447 0.002,-0.003 0.371,-0.449 0.002,-0.002 0.373,-0.457 0.003,-0.003 0.373,-0.461 0.003,-0.004 0.372,-0.465 0.003,-0.003 0.371,-0.468 0.002,-0.003 0.373,-0.475 0.003,-0.003 0.373,-0.48 0.003,-0.003 0.372,-0.484 0.003,-0.003 0.371,-0.486 0.002,-0.004 0.373,-0.492 0.003,-0.003 0.372,-0.498 0.004,-0.003 0.372,-0.502 0.003,-0.003 0.373,-0.506 0.002,-0.004 0.371,-0.507 0.003,-0.003 0.372,-0.514 0.003,-0.004 0.373,-0.518 0.003,-0.004 0.373,-0.523 0.002,-0.003 0.371,-0.523 0.002,-0.004 0.373,-0.53 0.003,-0.004 0.373,-0.535 0.003,-0.003 0.373,-0.539 0.002,-0.003 0.371,-0.539 0.002,-0.004 0.373,-0.545 0.003,-0.004 0.373,-0.55 0.003,-0.004 0.372,-0.553 0.003,-0.004 0.371,-0.554 0.002,-0.003 0.373,-0.56 0.003,-0.004 0.372,-0.565 0.004,-0.003 0.372,-0.568 0.003,-0.003 0.373,-0.572 0.002,-0.004 0.371,-0.57 0.003,-0.004 0.372,-0.578 0.003,-0.004 0.373,-0.58 0.003,-0.004 0.373,-0.584 0.002,-0.004 0.371,-0.583 0.003,-0.004 0.372,-0.591 0.003,-0.004 0.373,-0.593 0.003,-0.004 0.373,-0.596 0.002,-0.004 0.371,-0.595 0.002,-0.004 0.373,-0.602 0.003,-0.004 0.373,-0.605 0.003,-0.004 0.372,-0.608 0.003,-0.003 0.371,-0.606 0.002,-0.005 0.373,-0.613 0.003,-0.003 0.372,-0.616 0.004,-0.004 0.372,-0.618 0.003,-0.003 0.371,-0.617 0.002,-0.004 0.373,-0.622 0.003,-0.005 0.372,-0.624 0.004,-0.005 0.372,-0.627 0.003,-0.004 0.373,-0.63 0.002,-0.004 0.371,-0.627 0.003,-0.004 0.372,-0.634 0.003,-0.004 0.373,-0.636 0.003,-0.003 0.373,-0.638 0.002,-0.004 0.371,-0.635 0.002,-0.005 0.373,-0.641 0.003,-0.004 0.373,-0.643 0.003,-0.004 0.373,-0.645 0.002,-0.005 0.371,-0.642 0.002,-0.004 0.373,-0.648 0.003,-0.004 0.373,-0.65 0.003,-0.004 0.372,-0.651 0.003,-0.004 0.371,-0.648 0.002,-0.004 0.373,-0.654 0.003,-0.005 0.372,-0.655 0.004,-0.004 0.372,-0.656 0.003,-0.004 0.373,-0.658 0.002,-0.003 0.371,-0.655 0.003,-0.004 0.372,-0.66 0.003,-0.004 0.373,-0.661 0.003,-0.004 0.373,-0.661 0.002,-0.004 0.371,-0.658 0.003,-0.005 0.372,-0.662 0.003,-0.004 0.373,-0.664 0.003,-0.004 0.373,-0.664 0.002,-0.005 0.371,-0.661 0.002,-0.004 0.373,-0.665 0.003,-0.004 0.373,-0.666 0.003,-0.004 0.372,-0.666 0.003,-0.005 0.371,-0.662 0.002,-0.004 0.373,-0.667 0.003,-0.004 0.372,-0.667 0.004,-0.004 0.372,-0.667 0.003,-0.005 0.371,-0.663 0.002,-0.004 0.373,-0.667 0.003,-0.004 0.372,-0.667 0.004,-0.005 0.372,-0.666 0.003,-0.005 0.373,-0.667 0.002,-0.004 0.371,-0.663 0.003,-0.003 0.372,-0.666 0.003,-0.005 0.373,-0.666 0.003,-0.004 0.373,-0.665 0.002,-0.004 0.371,-0.661 0.002,-0.005 0.373,-0.663 0.003,-0.005 0.373,-0.664 0.003,-0.004 0.372,-0.663 0.003,-0.004 0.371,-0.657 0.002,-0.005 0.373,-0.662 0.003,-0.004 0.373,-0.66 0.003,-0.005 0.372,-0.659 0.003,-0.004 0.371,-0.654 0.002,-0.005 0.373,-0.657 0.003,-0.004 0.372,-0.656 0.004,-0.004 0.372,-0.656 0.003,-0.003 0.373,-0.655 0.002,-0.004 0.371,-0.648 0.003,-0.004 0.372,-0.651 0.003,-0.004 0.373,-0.65 0.003,-0.004 0.373,-0.648 0.002,-0.004 0.371,-0.643 0.002,-0.003 0.373,-0.646 0.003,-0.003 0.373,-0.644 0.003,-0.003 0.373,-0.6426 0.002,-0.0036 0.371,-0.6351 0.002,-0.0047 0.373,-0.6375 0.003,-0.0039 0.373,-0.6359 0.003,-0.0036 0.372,-0.6339 0.003,-0.0043 0.371,-0.627 0.002,-0.0047 0.373,-0.6293 0.003,-0.0035 0.372,-0.6277 0.004,-0.0039 0.372,-0.6246 0.003,-0.0047 0.373,-0.6223 0.002,-0.0039 0.371,-0.6164 0.003,-0.0047 0.372,-0.6172 0.004,-0.0047 0.372,-0.6148 0.003,-0.0039 0.373,-0.6133 0.002,-0.0039 0.371,-0.6059 0.003,-0.0039 0.372,-0.6082 0.003,-0.0035 0.373,-0.6047 0.003,-0.0035 0.373,-0.6023 0.002,-0.0039 0.371,-0.5954 0.002,-0.0039 0.373,-0.5961 0.003,-0.0039 0.373,-0.5941 0.003,-0.0035 0.372,-0.5903 0.003,-0.0039 0.371,-0.5836 0.002,-0.0035 0.373,-0.5843 0.003,-0.0036 0.373,-0.5808 0.003,-0.0035 0.372,-0.5782 0.003,-0.0039 0.371,-0.5707 0.002,-0.0039 0.373,-0.5707 0.003,-0.0039 0.372,-0.5676 0.004,-0.0039 0.372,-0.5636 0.003,-0.0039 0.373,-0.561 0.002,-0.0031 0.371,-0.5543 0.003,-0.0027 0.372,-0.5536 0.003,-0.0039 0.373,-0.5496 0.003,-0.0039 0.373,-0.5461 0.002,-0.0035 0.371,-0.5387 0.002,-0.0035 0.373,-0.5386 0.003,-0.004 0.373,-0.5347 0.003,-0.0028 0.373,-0.5312 0.002,-0.0027 0.371,-0.5235 0.002,-0.0039 0.373,-0.5226 0.003,-0.0032 0.373,-0.5191 0.003,-0.0027 0.372,-0.5145 0.003,-0.0039 0.371,-0.507 0.002,-0.0032 0.373,-0.5062 0.003,-0.0027 0.372,-0.502 0.004,-0.0035 0.372,-0.4973 0.003,-0.0031 0.373,-0.4934 0.002,-0.0031 0.371,-0.4851 0.003,-0.0039 0.372,-0.4836 0.003,-0.0032 0.373,-0.48 0.003,-0.0028 0.373,-0.4758 0.002,-0.0027 0.371,-0.4676 0.003,-0.0027 0.372,-0.466 0.003,-0.0028 0.373,-0.4613 0.003,-0.0031 0.373,-0.4566 0.002,-0.0032 0.371,-0.4484 0.002,-0.0027 0.373,-0.4473 0.003,-0.0027 0.373,-0.4418 0.003,-0.0032 0.372,-0.4371 0.003,-0.0023 0.371,-0.4297 0.002,-0.0024 0.373,-0.4273 0.003,-0.0031 0.373,-0.4215 0.003,-0.0031 0.372,-0.4168 0.003,-0.0032 0.371,-0.4085 0.002,-0.0032 0.373,-0.4066 0.003,-0.0027 0.372,-0.4016 0.004,-0.0027 0.372,-0.3961 0.003,-0.0024 0.373,-0.3914 0.002,-0.0023 0.371,-0.3832 0.003,-0.0024 0.372,-0.3808 0.003,-0.0024 0.373,-0.375 0.003,-0.0023 0.373,-0.3696 0.002,-0.0023 0.371,-0.3621 0.002,-0.0024 0.373,-0.3585 0.003,-0.0024 0.373,-0.3531 0.003,-0.0024 0.373,-0.3472 0.002,-0.002 0.371,-0.3398 0.002,-0.0024 0.373,-0.3367 0.003,-0.0023 0.373,-0.3305 0.003,-0.0016 0.372,-0.3257 0.003,-0.002 0.371,-0.3176 0.002,-0.0011 0.373,-0.3137 0.003,-0.0024 0.372,-0.3074 0.004,-0.0023 0.372,-0.302 0.003,-0.0015 0.373,-0.2965 0.002,-0.002 0.371,-0.2883 0.003,-0.0019 0.372,-0.2844 0.003,-0.0015 0.373,-0.279 0.003,-0.0015 0.373,-0.2723 0.002,-0.0023 0.371,-0.2649 0.003,-0.0011 0.372,-0.2614 0.003,-0.0011 0.373,-0.2543 0.003,-0.0016 0.373,-0.2492 0.002,-0.0012 0.371,-0.241 0.002,-0.0016 0.373,-0.2359 0.003,-0.0016 0.373,-0.2304 0.003,-0.0012 0.372,-0.2246 0.003,-0.0012 0.371,-0.216 0.002,-0.0016 0.373,-0.2117 0.003,-0.0012 0.373,-0.2058 0.003,-0.0012 0.372,-0.1996 0.003,-8e-4 0.371,-0.1922 0.002,-0.0011 0.373,-0.1868 0.003,-0.0015 0.372,-0.1801 0.004,-0.0016 0.372,-0.1738 0.003,-0.0016 0.373,-0.1671 0.002,-0.0016 0.371,-0.1606 0.003,-7e-4 0.372,-0.1551 0.003,-0.0016 0.373,-0.1484 0.003,-8e-4 0.373,-0.1426 0.002,-0.0015 0.371,-0.1352 0.002,-8e-4 0.373,-0.1297 0.003,-7e-4 0.373,-0.1235 0.003,-8e-4 0.373,-0.1171 0.002,-8e-4 0.371,-0.1094 0.002,-8e-4 0.373,-0.1043 h 0.003 l 0.373,-0.098 h 0.003 l 0.372,-0.0918 0.003,-8e-4 0.371,-0.084 h 0.002 l 0.373,-0.0785 h 0.003 l 0.372,-0.0723 h 0.004 l 0.372,-0.0652 0.003,-4e-4 0.373,-0.0586 0.002,-8e-4 0.371,-0.0519 h 0.003 l 0.372,-0.0457 h 0.003 l 0.373,-0.0399 h 0.003 l 0.373,-0.032 0.002,-8e-4 0.371,-0.0254 h 0.003 l 0.372,-0.0203 h 0.003 l 0.373,-0.0129 h 0.003 l 0.373,-0.0066 h 0.002 l 0.186,-8e-4 0.185,8e-4 h 0.002 l 0.373,0.0066 h 0.003 l 0.373,0.0129 h 0.003 l 0.372,0.0203 h 0.003 l 0.371,0.0254 0.002,8e-4 0.373,0.032 h 0.003 l 0.373,0.0399 h 0.003 l 0.372,0.0457 h 0.003 l 0.371,0.0519 0.002,8e-4 0.373,0.0586 0.003,4e-4 0.372,0.0652 h 0.004 l 0.372,0.0723 h 0.003 L 235,50.7621 h 0.002 l 0.371,0.084 0.003,8e-4 0.372,0.0918 h 0.003 l 0.373,0.098 h 0.003 l 0.373,0.1043 0.002,8e-4 0.371,0.1094 0.002,8e-4 0.373,0.1171 0.003,8e-4 0.373,0.1235 0.003,7e-4 0.373,0.1297 0.002,8e-4 0.371,0.1352 0.002,0.0015 0.373,0.1426 0.003,8e-4 0.373,0.1484 0.003,0.0016 0.372,0.1551 0.003,7e-4 0.371,0.1606 0.002,0.0016 0.373,0.1671 0.003,0.0016 0.372,0.1738 0.004,0.0016 0.372,0.1801 0.003,0.0015 0.373,0.1868 0.002,0.0011 0.371,0.1922 0.003,8e-4 0.372,0.1996 0.003,0.0012 0.373,0.2058 0.003,0.0012 0.373,0.2117 0.002,0.0016 0.371,0.216 0.003,0.0012 0.372,0.2246 0.003,0.0012 0.373,0.2304 0.003,0.0016 0.373,0.2359 0.002,0.0016 0.371,0.241 0.002,0.0012 0.373,0.2492 0.003,0.0016 0.373,0.2543 0.003,0.0011 0.372,0.2614 0.003,0.0011 0.371,0.2649 0.002,0.0023 0.373,0.2723 0.003,0.0015 0.373,0.279 0.003,0.0015 0.372,0.2844 0.003,0.0019 0.371,0.2883 0.002,0.002 0.373,0.2965 0.003,0.0015 0.372,0.302 0.004,0.0023 0.372,0.3074 0.003,0.0024 0.373,0.3137 0.002,0.0011 0.371,0.3176 0.003,0.002 0.372,0.3257 0.003,0.0016 0.373,0.3305 0.003,0.0023 0.373,0.3367 0.002,0.0024 0.371,0.3398 0.002,0.002 0.373,0.3472 0.003,0.0024 0.373,0.3531 0.003,0.0024 0.373,0.3585 0.002,0.0024 0.371,0.3621 0.002,0.0023 0.373,0.3696 0.003,0.0023 0.373,0.375 0.003,0.0024 0.372,0.3808 0.003,0.0024 0.371,0.3832 0.002,0.0023 0.373,0.3914 0.003,0.0024 0.372,0.3961 0.004,0.0027 0.372,0.4016 0.003,0.0027 0.373,0.4066 0.002,0.0032 0.371,0.4085 0.003,0.0032 0.372,0.4168 0.003,0.0031 0.373,0.4215 0.003,0.0031 0.373,0.4273 0.002,0.0024 0.371,0.4297 0.003,0.0023 0.372,0.4371 0.003,0.0032 0.373,0.4418 0.003,0.0027 0.373,0.4473 0.002,0.0027 0.371,0.4484 0.002,0.0032 0.373,0.4566 0.003,0.0031 0.373,0.4613 0.003,0.0028 0.372,0.466 0.003,0.0027 0.371,0.4676 0.002,0.0027 0.373,0.4758 0.003,0.0028 0.373,0.48 0.003,0.0032 0.372,0.4836 0.003,0.0039 0.371,0.4851 0.002,0.0031 0.373,0.4934 0.003,0.0031 0.372,0.4973 0.004,0.0035 0.372,0.502 0.003,0.0027 0.373,0.5062 0.002,0.0032 0.371,0.507 0.003,0.0039 0.372,0.5145 0.003,0.0027 0.373,0.5191 0.003,0.0032 0.373,0.5226 0.002,0.0039 0.371,0.5235 0.002,0.0027 0.373,0.5312 0.003,0.0028 0.373,0.5347 0.003,0.004 0.373,0.5386 0.002,0.0035 0.371,0.5387 0.002,0.0035 0.373,0.5461 0.003,0.0039 0.373,0.5496 0.003,0.0039 0.372,0.5536 0.003,0.0027 0.371,0.5543 0.002,0.0031 0.373,0.561 0.003,0.0039 0.372,0.5636 0.004,0.0039 0.372,0.5676 0.003,0.0039 0.373,0.5707 0.002,0.0039 0.371,0.5707 0.003,0.0039 0.372,0.5782 0.003,0.0035 0.373,0.5808 0.003,0.0036 0.373,0.5843 0.002,0.0035 0.371,0.5836 0.003,0.0039 0.372,0.5903 0.003,0.0035 0.373,0.5941 0.003,0.0039 0.373,0.5961 0.002,0.0039 0.371,0.5954 0.002,0.0039 0.373,0.6023 0.003,0.0035 0.373,0.6047 0.003,0.0035 0.372,0.6082 0.003,0.0039 0.371,0.6059 0.002,0.0039 0.373,0.6133 0.003,0.0039 0.373,0.6148 0.003,0.0047 0.372,0.6172 0.003,0.0047 0.371,0.6164 0.002,0.0039 0.373,0.6223 0.003,0.0047 0.372,0.6246 0.004,0.0039 0.372,0.6277 0.003,0.0035 0.373,0.6293 0.002,0.0047 0.371,0.627 0.003,0.0043 0.372,0.6339 0.003,0.0036 0.373,0.6359 0.003,0.0039 0.373,0.6375 0.002,0.0047 0.371,0.6351 0.002,0.0036 0.373,0.6426 0.003,0.003 0.373,0.644 0.003,0.003 0.373,0.646 0.002,0.003 0.371,0.643 0.002,0.004 0.373,0.648 0.003,0.004 0.373,0.65 0.003,0.004 0.372,0.651 0.003,0.004 0.371,0.648 0.002,0.004 0.373,0.655 0.003,0.003 0.372,0.656 0.004,0.004 0.372,0.656 0.003,0.004 0.373,0.657 0.002,0.005 0.371,0.654 0.003,0.004 0.372,0.659 0.003,0.005 0.373,0.66 0.003,0.004 0.373,0.662 0.002,0.005 0.371,0.657 0.003,0.004 0.372,0.663 0.003,0.004 0.373,0.664 0.003,0.005 0.373,0.663 0.002,0.005 0.371,0.661 0.002,0.004 0.373,0.665 0.003,0.004 0.373,0.666 0.003,0.005 0.372,0.666 0.003,0.003 0.371,0.663 0.002,0.004 0.373,0.667 0.003,0.005 0.372,0.666 0.004,0.005 0.372,0.667 0.003,0.004 0.371,0.663 0.002,0.004"
       style="fill:none;stroke:#0072bd;stroke-width:1.5;stroke-linecap:butt;stroke-linejoin:round;stroke-miterlimit:10;stroke-dasharray:none;stroke-opacity:1"
       id="path94" /><path
       d="m 49.75,118.75 0.3734,0.013 h 0.0024 l 0.3726,0.039 0.0032,10e-4 0.3726,0.065 h 0.0024 l 0.3734,0.092 0.0023,0.001 0.3704,0.116 0.0031,0.001 0.3726,0.143 0.0024,10e-4 0.3734,0.17 0.0024,0.001 0.3734,0.195 0.0023,0.001 0.3704,0.22 0.0023,0.001 0.3734,0.247 0.0024,0.002 0.3734,0.272 0.0024,0.002 0.3726,0.298 0.0031,0.002 0.3704,0.321 0.0023,0.002 0.3734,0.348 0.0024,0.003 0.3734,0.373 0.0024,0.003 0.3726,0.398 0.0031,0.003 0.3704,0.421 0.0023,0.002 0.3734,0.449 0.0024,0.003 0.3726,0.472 0.0032,0.003 0.3726,0.498 0.0024,0.002 0.3734,0.522 0.0023,0.003 0.3704,0.542 0.0031,0.004 0.3726,0.568 0.0024,0.004 0.3734,0.593 0.0024,0.003 0.3734,0.616 0.0023,0.004 0.3704,0.634 0.0031,0.005 0.3726,0.661 0.0024,0.004 0.3734,0.684 0.0024,0.005 0.3734,0.706 0.0023,0.004 0.3704,0.724 0.0023,0.005 0.3734,0.75 0.0024,0.005 0.3734,0.772 0.0024,0.004 0.3726,0.793 0.0031,0.005 0.3704,0.809 0.0023,0.005 0.3734,0.834 0.0024,0.005 0.3726,0.854 0.0032,0.007 0.3726,0.873 0.0024,0.006 0.3734,0.894 0.0023,0.005 0.3711,0.908 0.0024,0.006 0.3726,0.931 0.0032,0.007 0.3726,0.95 0.0024,0.007 0.3734,0.968 0.0023,0.006 0.3704,0.98 0.0031,0.006 0.3726,1.004 0.0024,0.006 0.3734,1.021 0.0024,0.007 0.3734,1.037 0.0023,0.007 0.3704,1.047 0.0023,0.006 0.3734,1.07 0.0024,0.007 0.3734,1.084 0.0024,0.008 0.3726,1.099 0.0031,0.008 0.3704,1.107 0.0023,0.006 0.3734,1.129 0.0024,0.008 0.3734,1.142 0.0024,0.007 0.3726,1.155 0.0031,0.008 0.3704,1.161 0.0023,0.008 0.3734,1.18 0.0024,0.008 0.3726,1.192 0.0032,0.008 0.3726,1.204 0.0024,0.008 0.3734,1.215 0.0023,0.008 0.3704,1.218 0.0031,0.008 0.3726,1.235 0.0024,0.009 0.3734,1.245 0.0024,0.008 0.3734,1.254 0.0023,0.009 0.3704,1.254 0.0023,0.009 0.3734,1.271 0.0024,0.008 0.3734,1.279 0.0024,0.008 0.3734,1.287 0.0023,0.008 0.3704,1.285 0.0023,0.008 0.3734,1.299 0.0024,0.009 0.3734,1.304 0.0024,0.008 0.3726,1.311 0.0031,0.008 0.3704,1.306 0.0023,0.008 0.3734,1.32 0.0024,0.008 0.3726,1.323 0.0032,0.008 0.3726,1.326 0.0024,0.009 0.3734,1.328 0.0023,0.009 0.3711,1.322 0.0024,0.008 0.3726,1.332 0.0032,0.009 0.3726,1.334 0.0024,0.008 0.3734,1.334 0.0023,0.009 0.3704,1.325 0.0031,0.009 0.3726,1.334 0.0024,0.008 0.3734,1.334 0.0024,0.008 0.3734,1.331 0.0023,0.009 0.3704,1.321 0.0023,0.009 0.3734,1.327 0.0024,0.009 0.3734,1.323 0.0024,0.01 0.3726,1.32 0.0031,0.009 0.3704,1.308 0.0023,0.008 0.3734,1.313 0.0024,0.008 0.3734,1.308 0.0024,0.008 0.3726,1.302 0.0031,0.009 0.3704,1.288 0.0023,0.008 0.3734,1.289 0.0024,0.008 0.3726,1.283 0.0032,0.008 0.3726,1.276 0.0024,0.008 0.3734,1.267 0.0023,0.008 0.3704,1.251 0.0031,0.008 0.3726,1.25 0.0024,0.008 0.3734,1.24 0.0024,0.009 0.3734,1.231 0.0023,0.007 0.3704,1.213 0.0023,0.008 0.3734,1.209 0.0024,0.008 0.3734,1.199 0.0024,0.007 0.3734,1.187 0.0023,0.007 0.3704,1.167 0.0023,0.008 0.3734,1.162 0.0024,0.008 0.3734,1.148 0.0024,0.008 0.3726,1.135 0.0031,0.008 0.3704,1.113 0.0023,0.008 0.3734,1.107 0.0024,0.007 0.3726,1.092 0.0032,0.007 0.3726,1.078 0.0024,0.007 0.3734,1.061 0.0023,0.007 0.3711,1.038 0.0024,0.007 0.3726,1.029 0.0024,0.007 0.3734,1.012 0.0024,0.006 0.3734,0.996 0.0023,0.005 0.3704,0.972 0.0031,0.006 0.3726,0.959 0.0024,0.007 0.3734,0.94 0.0024,0.007 0.3734,0.922 0.0023,0.006 0.3704,0.897 0.0023,0.006 0.3734,0.884 0.0024,0.006 0.3734,0.864 0.0024,0.006 0.3726,0.844 0.0031,0.005 0.3704,0.819 0.0023,0.005 0.3734,0.804 0.0024,0.004 0.3734,0.782 0.0024,0.005 0.3726,0.761 0.0031,0.005 0.3704,0.734 0.0023,0.005 0.3734,0.718 0.0024,0.004 0.3726,0.695 0.0032,0.005 0.3726,0.673 0.0028,0.004 0.373,0.65 0.002,0.003 0.371,0.624 0.003,0.004 0.372,0.604 0.003,0.004 0.373,0.58 0.003,0.004 0.373,0.557 0.002,0.003 0.371,0.53 0.002,0.003 0.373,0.51 0.003,0.003 0.373,0.484 0.003,0.004 0.373,0.46 0.002,0.003 0.371,0.433 0.002,0.003 0.373,0.411 0.003,0.003 0.373,0.386 0.003,0.002 0.372,0.361 0.003,0.002 0.371,0.334 0.002,0.002 0.373,0.311 0.003,0.002 0.372,0.285 0.004,0.001 0.372,0.26 0.003,0.001 0.373,0.234 0.002,0.002 0.371,0.206 0.003,0.002 0.372,0.182 h 0.003 l 0.373,0.157 0.003,0.001 0.373,0.13 0.002,0.001 0.371,0.104 h 0.003 l 0.372,0.079 h 0.003 l 0.373,0.053 h 0.003 l 0.373,0.026 h 0.002 l 0.186,0.003 0.185,-0.003 h 0.002 l 0.373,-0.026 h 0.003 l 0.373,-0.053 h 0.003 l 0.372,-0.079 h 0.003 l 0.371,-0.104 0.002,-0.001 0.373,-0.13 0.003,-0.001 0.373,-0.157 h 0.003 l 0.372,-0.182 0.003,-0.002 0.371,-0.206 0.002,-0.002 0.373,-0.234 0.003,-0.001 0.372,-0.26 0.004,-0.001 0.372,-0.285 0.003,-0.002 0.373,-0.311 0.002,-0.002 0.371,-0.334 0.003,-0.002 0.372,-0.361 0.003,-0.002 0.373,-0.386 0.003,-0.003 0.373,-0.411 0.002,-0.003 0.371,-0.433 0.002,-0.003 0.373,-0.46 0.003,-0.004 0.373,-0.484 0.003,-0.003 0.373,-0.51 0.002,-0.003 0.371,-0.53 0.002,-0.003 0.373,-0.557 0.003,-0.004 0.373,-0.58 0.003,-0.004 0.372,-0.604 0.003,-0.004 0.371,-0.624 0.002,-0.003 0.373,-0.65 0.003,-0.004 0.372,-0.673 0.004,-0.005 0.372,-0.695 0.003,-0.004 0.373,-0.718 0.002,-0.005 0.371,-0.734 0.003,-0.005 0.372,-0.761 0.003,-0.005 0.373,-0.782 0.003,-0.004 0.373,-0.804 0.002,-0.005 0.371,-0.819 0.003,-0.005 0.372,-0.844 0.003,-0.006 0.373,-0.864 0.003,-0.006 0.373,-0.884 0.002,-0.006 0.371,-0.897 0.002,-0.006 0.373,-0.922 0.003,-0.007 0.373,-0.94 0.003,-0.007 0.372,-0.959 0.003,-0.006 0.371,-0.972 0.002,-0.005 0.373,-0.996 0.003,-0.006 0.373,-1.012 0.003,-0.007 0.372,-1.029 0.003,-0.007 0.371,-1.038 0.002,-0.007 0.373,-1.061 0.003,-0.007 0.372,-1.078 0.004,-0.007 0.372,-1.092 0.003,-0.007 0.373,-1.107 0.002,-0.008 0.371,-1.113 0.003,-0.008 0.372,-1.135 0.003,-0.008 0.373,-1.148 0.003,-0.008 0.373,-1.162 0.002,-0.008 0.371,-1.167 0.002,-0.007 0.373,-1.187 0.003,-0.007 0.373,-1.199 0.003,-0.008 0.373,-1.209 0.002,-0.008 0.371,-1.213 0.002,-0.007 0.373,-1.231 0.003,-0.009 0.373,-1.24 0.003,-0.008 0.372,-1.25 0.003,-0.008 0.371,-1.251 0.002,-0.008 0.373,-1.267 0.003,-0.008 0.372,-1.276 0.004,-0.008 0.372,-1.283 0.003,-0.008 0.373,-1.289 0.002,-0.008 0.371,-1.288 0.003,-0.009 0.372,-1.302 0.003,-0.008 0.373,-1.308 0.003,-0.008 0.373,-1.313 0.002,-0.008 0.371,-1.308 0.003,-0.009 0.372,-1.32 0.003,-0.01 0.373,-1.323 0.003,-0.009 0.373,-1.327 0.002,-0.009 0.371,-1.321 0.002,-0.009 0.373,-1.331 0.003,-0.008 0.373,-1.334 0.003,-0.008 0.372,-1.334 0.003,-0.009 0.371,-1.325 0.002,-0.009 0.373,-1.334 0.003,-0.008 0.373,-1.334 0.003,-0.009 0.372,-1.332 0.003,-0.008 0.371,-1.322 0.002,-0.009 0.373,-1.328 0.003,-0.009 0.372,-1.326 0.004,-0.008 0.372,-1.323 0.003,-0.008 0.373,-1.32 0.002,-0.008 0.371,-1.306 0.003,-0.008 0.372,-1.311 0.003,-0.008 0.373,-1.304 0.003,-0.009 0.373,-1.299 0.002,-0.008 0.371,-1.285 0.002,-0.008 0.373,-1.287 0.003,-0.008 0.373,-1.279 0.003,-0.008 0.373,-1.271 0.002,-0.009 0.371,-1.254 0.002,-0.009 0.373,-1.254 0.003,-0.008 0.373,-1.245 0.003,-0.009 0.372,-1.235 0.003,-0.008 0.371,-1.218 0.002,-0.008 0.373,-1.215 0.003,-0.008 0.372,-1.204 0.004,-0.008 0.372,-1.192 0.003,-0.008 0.373,-1.18 0.002,-0.008 0.371,-1.161 0.003,-0.008 0.372,-1.155 0.003,-0.007 0.373,-1.142 0.003,-0.008 0.373,-1.129 0.002,-0.006 0.371,-1.107 0.003,-0.008 0.372,-1.099 0.003,-0.008 0.373,-1.084 0.003,-0.007 0.373,-1.07 0.002,-0.006 0.371,-1.047 0.002,-0.007 0.373,-1.037 0.003,-0.007 0.373,-1.021 0.003,-0.006 0.372,-1.004 0.003,-0.006 0.371,-0.98 0.002,-0.006 0.373,-0.968 0.003,-0.007 0.372,-0.95 0.004,-0.007 0.372,-0.931 0.003,-0.006 0.371,-0.908 0.002,-0.005 0.373,-0.894 0.003,-0.006 0.372,-0.873 0.004,-0.007 0.372,-0.854 0.003,-0.005 0.373,-0.834 0.002,-0.005 0.371,-0.809 0.003,-0.005 0.372,-0.793 0.003,-0.004 0.373,-0.772 0.003,-0.005 0.373,-0.75 0.002,-0.005 0.371,-0.724 0.002,-0.004 0.373,-0.706 0.003,-0.005 0.373,-0.684 0.003,-0.004 0.373,-0.661 0.002,-0.005 0.371,-0.634 0.002,-0.004 0.373,-0.616 0.003,-0.003 0.373,-0.593 0.003,-0.004 0.372,-0.568 0.003,-0.004 0.371,-0.542 0.002,-0.003 0.373,-0.522 0.003,-0.002 0.372,-0.498 0.004,-0.003 0.372,-0.472 0.003,-0.003 0.373,-0.449 0.002,-0.002 0.371,-0.421 0.003,-0.003 0.372,-0.398 0.003,-0.003 0.373,-0.373 0.003,-0.003 0.373,-0.348 0.002,-0.002 0.371,-0.321 0.003,-0.002 0.372,-0.298 0.003,-0.002 0.373,-0.272 0.003,-0.002 0.373,-0.247 0.002,-0.001 0.371,-0.22 0.002,-0.001 0.373,-0.195 0.003,-0.001 0.373,-0.17 0.003,-10e-4 0.372,-0.143 0.003,-0.001 0.371,-0.116 0.002,-0.001 0.373,-0.092 h 0.003 l 0.372,-0.065 0.004,-10e-4 0.372,-0.039 h 0.003 l 0.371,-0.013 h 0.002 l 0.373,0.013 h 0.003 l 0.372,0.039 0.004,10e-4 0.372,0.065 h 0.003 l 0.373,0.092 0.002,0.001 0.371,0.116 0.003,0.001 0.372,0.143 0.003,10e-4 0.373,0.17 0.003,0.001 0.373,0.195 0.002,0.001 0.371,0.22 0.002,0.001 0.373,0.247 0.003,0.002 0.373,0.272 0.003,0.002 0.372,0.298 0.003,0.002 0.371,0.321 0.002,0.002 0.373,0.348 0.003,0.003 0.373,0.373 0.003,0.003 0.372,0.398 0.003,0.003 0.371,0.421 0.002,0.002 0.373,0.449 0.003,0.003 0.372,0.472 0.004,0.003 0.372,0.498 0.003,0.002 0.373,0.522 0.002,0.003 0.371,0.542 0.003,0.004 0.372,0.568 0.003,0.004 0.373,0.593 0.003,0.003 0.373,0.616 0.002,0.004 0.371,0.634 0.002,0.005 0.373,0.661 0.003,0.004 0.373,0.684 0.003,0.005 0.373,0.706 0.002,0.004 0.371,0.724 0.002,0.005 0.373,0.75 0.003,0.005 0.373,0.772 0.003,0.004 0.372,0.793 0.003,0.005 0.371,0.809 0.002,0.005 0.373,0.834 0.003,0.005 0.372,0.854 0.004,0.007 0.372,0.873 0.003,0.006 0.373,0.894 0.002,0.005 0.371,0.908 0.003,0.006 0.372,0.931 0.004,0.007 0.372,0.95 0.003,0.007 0.373,0.968 0.002,0.006 0.371,0.98 0.003,0.006 0.372,1.004 0.003,0.006 0.373,1.021 0.003,0.007 0.373,1.037 0.002,0.007 0.371,1.047 0.002,0.006 0.373,1.07 0.003,0.007 0.373,1.084 0.003,0.008 0.372,1.099 0.003,0.008 0.371,1.107 0.002,0.006 0.373,1.129 0.003,0.008 0.373,1.142 0.003,0.007 0.372,1.155 0.003,0.008 0.371,1.161 0.002,0.008 0.373,1.18 0.003,0.008 0.372,1.192 0.004,0.008 0.372,1.204 0.003,0.008 0.373,1.215 0.002,0.008 0.371,1.218 0.003,0.008 0.372,1.235 0.003,0.009 0.373,1.245 0.003,0.008 0.373,1.254 0.002,0.009 0.371,1.254 0.002,0.009 0.373,1.271 0.003,0.008 0.373,1.279 0.003,0.008 0.373,1.287 0.002,0.008 0.371,1.285 0.002,0.008 0.373,1.299 0.003,0.009 0.373,1.304 0.003,0.008 0.372,1.311 0.003,0.008 0.371,1.306 0.002,0.008 0.373,1.32 0.003,0.008 0.372,1.323 0.004,0.008 0.372,1.326 0.003,0.009 0.373,1.328 0.002,0.009 0.371,1.322 0.003,0.008 0.372,1.332 0.003,0.009 0.373,1.334 0.003,0.008 0.373,1.334 0.002,0.009 0.371,1.325 0.003,0.009 0.372,1.334 0.003,0.008 0.373,1.334 0.003,0.008 0.373,1.331 0.002,0.009 0.371,1.321 0.002,0.009 0.373,1.327 0.003,0.009 0.373,1.323 0.003,0.01 0.372,1.32 0.003,0.009 0.371,1.308 0.002,0.008 0.373,1.313 0.003,0.008 0.373,1.308 0.003,0.008 0.372,1.302 0.003,0.009 0.371,1.288 0.002,0.008 0.373,1.289 0.003,0.008 0.372,1.283 0.004,0.008 0.372,1.276 0.003,0.008 0.373,1.267 0.002,0.008 0.371,1.251 0.003,0.008 0.372,1.25 0.003,0.008 0.373,1.24 0.003,0.009 0.373,1.231 0.002,0.007 0.371,1.213 0.002,0.008 0.373,1.209 0.003,0.008 0.373,1.199 0.003,0.007 0.373,1.187 0.002,0.007 0.371,1.167 0.002,0.008 0.373,1.162 0.003,0.008 0.373,1.148 0.003,0.008 0.372,1.135 0.003,0.008 0.371,1.113 0.002,0.008 0.373,1.107 0.003,0.007 0.372,1.092 0.004,0.007 0.372,1.078 0.003,0.007 0.373,1.061 0.002,0.007 0.371,1.038 0.003,0.007 0.372,1.029 0.003,0.007 0.373,1.012 0.003,0.006 0.373,0.996 0.002,0.005 0.371,0.972 0.003,0.006 0.372,0.959 0.003,0.007 0.373,0.94 0.003,0.007 0.373,0.922 0.002,0.006 0.371,0.897 0.002,0.006 0.373,0.884 0.003,0.006 0.373,0.864 0.003,0.006 0.372,0.844 0.003,0.005 0.371,0.819 0.002,0.005 0.373,0.804 0.003,0.004 0.373,0.782 0.003,0.005 0.372,0.761 0.003,0.005 0.371,0.734 0.002,0.005 0.373,0.718 0.003,0.004 0.372,0.695 0.004,0.005 0.372,0.673 0.003,0.004 0.373,0.65 0.002,0.003 0.371,0.624 0.003,0.004 0.372,0.604 0.003,0.004 0.373,0.58 0.003,0.004 0.373,0.557 0.002,0.003 0.371,0.53 0.002,0.003 0.373,0.51 0.003,0.003 0.373,0.484 0.003,0.004 0.373,0.46 0.002,0.003 0.371,0.433 0.002,0.003 0.373,0.411 0.003,0.003 0.373,0.386 0.003,0.002 0.372,0.361 0.003,0.002 0.371,0.334 0.002,0.002 0.373,0.311 0.003,0.002 0.372,0.285 0.004,0.001 0.372,0.26 0.003,0.001 0.373,0.234 0.002,0.002 0.371,0.206 0.003,0.002 0.372,0.182 h 0.003 l 0.373,0.157 0.003,0.001 0.373,0.13 0.002,0.001 0.371,0.104 h 0.003 l 0.372,0.079 h 0.003 l 0.373,0.053 h 0.003 l 0.373,0.026 h 0.002 l 0.186,0.003 0.185,-0.003 h 0.002 l 0.373,-0.026 h 0.003 l 0.373,-0.053 h 0.003 l 0.372,-0.079 h 0.003 l 0.371,-0.104 0.002,-0.001 0.373,-0.13 0.003,-0.001 0.373,-0.157 h 0.003 l 0.372,-0.182 0.003,-0.002 0.371,-0.206 0.002,-0.002 0.373,-0.234 0.003,-0.001 0.372,-0.26 0.004,-0.001 0.372,-0.285 0.003,-0.002 0.373,-0.311 0.002,-0.002 0.371,-0.334 0.003,-0.002 0.372,-0.361 0.003,-0.002 0.373,-0.386 0.003,-0.003 0.373,-0.411 0.002,-0.003 0.371,-0.433 0.002,-0.003 0.373,-0.46 0.003,-0.004 0.373,-0.484 0.003,-0.003 0.373,-0.51 0.002,-0.003 0.371,-0.53 0.002,-0.003 0.373,-0.557 0.003,-0.004 0.373,-0.58 0.003,-0.004 0.372,-0.604 0.003,-0.004 0.371,-0.624 0.002,-0.003 0.373,-0.65 0.003,-0.004 0.372,-0.673 0.004,-0.005 0.372,-0.695 0.003,-0.004 0.373,-0.718 0.002,-0.005 0.371,-0.734 0.003,-0.005 0.372,-0.761 0.003,-0.005 0.373,-0.782 0.003,-0.004 0.373,-0.804 0.002,-0.005 0.371,-0.819 0.003,-0.005 0.372,-0.844 0.003,-0.006 0.373,-0.864 0.003,-0.006 0.373,-0.884 0.002,-0.006 0.371,-0.897 0.002,-0.006 0.373,-0.922 0.003,-0.007 0.373,-0.94 0.003,-0.007 0.372,-0.959 0.003,-0.006 0.371,-0.972 0.002,-0.005 0.373,-0.996 0.003,-0.006 0.373,-1.012 0.003,-0.007 0.372,-1.029 0.003,-0.007 0.371,-1.038 0.002,-0.007 0.373,-1.061 0.003,-0.007 0.372,-1.078 0.004,-0.007 0.372,-1.092 0.003,-0.007 0.373,-1.107 0.002,-0.008 0.371,-1.113 0.003,-0.008 0.372,-1.135 0.003,-0.008 0.373,-1.148 0.003,-0.008 0.373,-1.162 0.002,-0.008 0.371,-1.167 0.002,-0.007 0.373,-1.187 0.003,-0.007 0.373,-1.199 0.003,-0.008 0.373,-1.209 0.002,-0.008 0.371,-1.213 0.002,-0.007 0.373,-1.231 0.003,-0.009 0.373,-1.24 0.003,-0.008 0.372,-1.25 0.003,-0.008 0.371,-1.251 0.002,-0.008 0.373,-1.267 0.003,-0.008 0.372,-1.276 0.004,-0.008 0.372,-1.283 0.003,-0.008 0.373,-1.289 0.002,-0.008 0.371,-1.288 0.003,-0.009 0.372,-1.302 0.003,-0.008 0.373,-1.308 0.003,-0.008 0.373,-1.313 0.002,-0.008 0.371,-1.308 0.003,-0.009 0.372,-1.32 0.003,-0.01 0.373,-1.323 0.003,-0.009 0.373,-1.327 0.002,-0.009 0.371,-1.321 0.002,-0.009 0.373,-1.331 0.003,-0.008 0.373,-1.334 0.003,-0.008 0.372,-1.334 0.003,-0.009 0.371,-1.325 0.002,-0.009 0.373,-1.334 0.003,-0.008 0.373,-1.334 0.003,-0.009 0.372,-1.332 0.003,-0.008 0.371,-1.322 0.002,-0.009 0.373,-1.328 0.003,-0.009 0.372,-1.326 0.004,-0.008 0.372,-1.323 0.003,-0.008 0.373,-1.32 0.002,-0.008 0.371,-1.306 0.003,-0.008 0.372,-1.311 0.003,-0.008 0.373,-1.304 0.003,-0.009 0.373,-1.299 0.002,-0.008 0.371,-1.285 0.002,-0.008 0.373,-1.287 0.003,-0.008 0.373,-1.279 0.003,-0.008 0.373,-1.271 0.002,-0.009 0.371,-1.254 0.002,-0.009 0.373,-1.254 0.003,-0.008 0.373,-1.245 0.003,-0.009 0.372,-1.235 0.003,-0.008 0.371,-1.218 0.002,-0.008 0.373,-1.215 0.003,-0.008 0.372,-1.204 0.004,-0.008 0.372,-1.192 0.003,-0.008 0.373,-1.18 0.002,-0.008 0.371,-1.161 0.003,-0.008 0.372,-1.155 0.003,-0.007 0.373,-1.142 0.003,-0.008 0.373,-1.129 0.002,-0.006 0.371,-1.107 0.003,-0.008 0.372,-1.099 0.003,-0.008 0.373,-1.084 0.003,-0.007 0.373,-1.07 0.002,-0.006 0.371,-1.047 0.002,-0.007 0.373,-1.037 0.003,-0.007 0.373,-1.021 0.003,-0.006 0.372,-1.004 0.003,-0.006 0.371,-0.98 0.002,-0.006 0.373,-0.968 0.003,-0.007 0.373,-0.95 0.003,-0.007 0.372,-0.931 0.003,-0.006 0.371,-0.908 0.002,-0.005 0.373,-0.894 0.003,-0.006 0.372,-0.873 0.004,-0.007 0.372,-0.854 0.003,-0.005 0.373,-0.834 0.002,-0.005 0.371,-0.809 0.003,-0.005 0.372,-0.793 0.003,-0.004 0.373,-0.772 0.003,-0.005 0.373,-0.75 0.002,-0.005 0.371,-0.724 0.002,-0.004 0.373,-0.706 0.003,-0.005 0.373,-0.684 0.003,-0.004 0.373,-0.661 0.002,-0.005 0.371,-0.634 0.002,-0.004 0.373,-0.616 0.003,-0.003 0.373,-0.593 0.003,-0.004 0.372,-0.568 0.003,-0.004 0.371,-0.542 0.002,-0.003 0.373,-0.522 0.003,-0.002 0.372,-0.498 0.004,-0.003 0.372,-0.472 0.003,-0.003 0.373,-0.449 0.002,-0.002 0.371,-0.421 0.003,-0.003 0.372,-0.398 0.003,-0.003 0.373,-0.373 0.003,-0.003 0.373,-0.348 0.002,-0.002 0.371,-0.321 0.003,-0.002 0.372,-0.298 0.003,-0.002 0.373,-0.272 0.003,-0.002 0.373,-0.247 0.002,-0.001 0.371,-0.22 0.002,-0.001 0.373,-0.195 0.003,-0.001 0.373,-0.17 0.003,-10e-4 0.372,-0.143 0.003,-0.001 0.371,-0.116 0.002,-0.001 0.373,-0.092 h 0.003 l 0.372,-0.065 0.004,-10e-4 0.372,-0.039 h 0.003 l 0.371,-0.013 h 0.002"
       style="fill:none;stroke:#a2142f;stroke-width:1.5;stroke-linecap:butt;stroke-linejoin:round;stroke-miterlimit:10;stroke-dasharray:none;stroke-opacity:1"
       id="path96" /><path
       d="m 133.75,212.25 h 73.5 v 35.25 h -73.5 z"
       style="fill:#ffffff;fill-opacity:1;fill-rule:nonzero;stroke:none;stroke-width:0.1"
       id="path98" /><g
       id="g100"><text
         transform="matrix(1,0,0,-1,169,233.149)"
         style="font-style:normal;font-variant:normal;font-weight:normal;font-stretch:normal;font-size:12.6px;font-family:'CMU Serif';-inkscape-font-specification:'CMU Serif';writing-mode:lr-tb;fill:#000000;fill-opacity:1;fill-rule:nonzero;stroke:none"
         id="text104"><tspan
           x="0 2.7972 9.8028002 16.808399 23.813999"
           y="0"
           sodipodi:role="line"
           id="tspan102">input</tspan></text></g><path
       d="m 136.75,238.025 h 30"
       style="fill:none;stroke:#0072bd;stroke-width:1.5;stroke-linecap:butt;stroke-linejoin:round;stroke-miterlimit:10;stroke-dasharray:none;stroke-opacity:1"
       id="path106" /><g
       id="g108"><text
         transform="matrix(1,0,0,-1,169,216.851)"
         style="font-style:normal;font-variant:normal;font-weight:normal;font-stretch:normal;font-size:12.6px;font-family:'CMU Serif';-inkscape-font-specification:'CMU Serif';writing-mode:lr-tb;fill:#000000;fill-opacity:1;fill-rule:nonzero;stroke:none"
         id="text112"><tspan
           x="0 7.0056 14.0112 17.514 24.5196 31.5252"
           y="0"
           sodipodi:role="line"
           id="tspan110">output</tspan></text></g><path
       d="m 136.75,221.725 h 30"
       style="fill:none;stroke:#a2142f;stroke-width:1.5;stroke-linecap:butt;stroke-linejoin:round;stroke-miterlimit:10;stroke-dasharray:none;stroke-opacity:1"
       id="path114" /><path
       d="m 133.75,212.25 h 73.5 v 35.25 h -73.5 z"
       style="fill:none;stroke:#262626;stroke-width:0.50025;stroke-linecap:butt;stroke-linejoin:round;stroke-miterlimit:10;stroke-dasharray:none;stroke-opacity:1"
       id="path116" /><path
       d="m 348.25,50.25 h 240 v 205.5 h -240 z"
       style="fill:#ffffff;fill-opacity:1;fill-rule:nonzero;stroke:none;stroke-width:0.1"
       id="path118" /><path
       d="m 348.25,50.25 h 240"
       style="fill:none;stroke:#262626;stroke-width:0.50025;stroke-linecap:square;stroke-linejoin:round;stroke-miterlimit:10;stroke-dasharray:none;stroke-opacity:1"
       id="path120" /><path
       d="m 348.25,50.25 v 2.4"
       style="fill:none;stroke:#262626;stroke-width:0.50025;stroke-linecap:square;stroke-linejoin:round;stroke-miterlimit:10;stroke-dasharray:none;stroke-opacity:1"
       id="path122" /><path
       d="m 428.25,50.25 v 2.4"
       style="fill:none;stroke:#262626;stroke-width:0.50025;stroke-linecap:square;stroke-linejoin:round;stroke-miterlimit:10;stroke-dasharray:none;stroke-opacity:1"
       id="path124" /><path
       d="m 508.25,50.25 v 2.4"
       style="fill:none;stroke:#262626;stroke-width:0.50025;stroke-linecap:square;stroke-linejoin:round;stroke-miterlimit:10;stroke-dasharray:none;stroke-opacity:1"
       id="path126" /><path
       d="m 588.25,50.25 v 2.4"
       style="fill:none;stroke:#262626;stroke-width:0.50025;stroke-linecap:square;stroke-linejoin:round;stroke-miterlimit:10;stroke-dasharray:none;stroke-opacity:1"
       id="path128" /><g
       id="g130"><text
         transform="matrix(1,0,0,-1,341.875,31.2)"
         style="font-style:normal;font-variant:normal;font-weight:normal;font-stretch:normal;font-size:14.0002px;font-family:'CMU Serif';-inkscape-font-specification:'CMU Serif';writing-mode:lr-tb;fill:#262626;fill-opacity:1;fill-rule:nonzero;stroke:none"
         id="text134"><tspan
           x="0 4.6620665 82.249779 162.24944 242.2491"
           y="0"
           sodipodi:role="line"
           id="tspan132">-1012</tspan></text><text
         transform="matrix(1,0,0,-1,445.75,10.5)"
         style="font-style:normal;font-variant:normal;font-weight:normal;font-stretch:normal;font-size:15.3997px;font-family:'CMU Serif';-inkscape-font-specification:'CMU Serif';writing-mode:lr-tb;fill:#262626;fill-opacity:1;fill-rule:nonzero;stroke:none"
         id="text138"><tspan
           x="0"
           y="0"
           id="tspan136"
           style="font-style:normal;font-variant:normal;font-weight:normal;font-stretch:normal;font-family:'CMU Serif';-inkscape-font-specification:'CMU Serif'">u</tspan></text><text
         transform="matrix(1,0,0,-1,454.75,3)"
         style="font-style:normal;font-variant:normal;font-weight:normal;font-stretch:normal;font-size:12.3202px;font-family:'CMU Serif';-inkscape-font-specification:'CMU Serif';writing-mode:lr-tb;fill:#262626;fill-opacity:1;fill-rule:nonzero;stroke:none"
         id="text142"><tspan
           x="0 2.7350843"
           y="0"
           sodipodi:role="line"
           id="tspan140">in</tspan></text><text
         transform="matrix(1,0,0,-1,468.78112,10.5)"
         style="font-style:normal;font-variant:normal;font-weight:normal;font-stretch:normal;font-size:15.3997px;font-family:'CMU Serif';-inkscape-font-specification:'CMU Serif';writing-mode:lr-tb;fill:#262626;fill-opacity:1;fill-rule:nonzero;stroke:none"
         id="text146"><tspan
           x="0 4.2811165 17.109066"
           y="0"
           sodipodi:role="line"
           id="tspan144">[m]</tspan></text></g><path
       d="m 552.848,8.66016 c 0,0.07812 0.023,0.14453 0.07,0.19961 l 2.965,2.95273 -2.965,2.9648 c -0.047,0.0469 -0.07,0.1094 -0.07,0.1875 0,0.0704 0.027,0.1348 0.082,0.1934 0.054,0.0586 0.121,0.0879 0.199,0.0879 0.062,0 0.133,-0.0273 0.211,-0.082 l 2.953,-2.9532 2.942,2.9532 c 0.078,0.0547 0.148,0.082 0.211,0.082 0.077,0 0.144,-0.0273 0.198,-0.082 0.055,-0.0547 0.083,-0.1215 0.083,-0.1993 0,-0.0781 -0.024,-0.1406 -0.071,-0.1875 l -2.965,-2.9648 2.965,-2.95273 c 0.047,-0.05508 0.071,-0.12149 0.071,-0.19961 0,-0.07774 -0.028,-0.14453 -0.083,-0.19922 -0.054,-0.05469 -0.121,-0.08203 -0.198,-0.08203 -0.071,0 -0.141,0.03515 -0.211,0.10586 l -2.942,2.92933 -2.953,-2.92933 c -0.063,-0.07071 -0.133,-0.10586 -0.211,-0.10586 -0.078,0 -0.145,0.02929 -0.199,0.08789 -0.055,0.05859 -0.082,0.12304 -0.082,0.19336"
       style="fill:#262626;fill-opacity:1;fill-rule:nonzero;stroke:none;stroke-width:0.1"
       id="path148" /><g
       id="g150"><text
         transform="matrix(1,0,0,-1,562,8.25)"
         style="font-style:normal;font-variant:normal;font-weight:normal;font-stretch:normal;font-size:14.0002px;font-family:'CMU Serif';-inkscape-font-specification:'CMU Serif';writing-mode:lr-tb;fill:#262626;fill-opacity:1;fill-rule:nonzero;stroke:none"
         id="text154"><tspan
           x="0 7.784111"
           y="0"
           sodipodi:role="line"
           id="tspan152">10</tspan></text><text
         transform="matrix(1,0,0,-1,577.75,15)"
         style="font-style:normal;font-variant:normal;font-weight:normal;font-stretch:normal;font-size:11.1997px;font-family:'CMU Serif';-inkscape-font-specification:'CMU Serif';writing-mode:lr-tb;fill:#262626;fill-opacity:1;fill-rule:nonzero;stroke:none"
         id="text158"><tspan
           x="0 3.7295001"
           y="0"
           sodipodi:role="line"
           id="tspan156">-3</tspan></text></g><path
       d="m 348.25,50.25 v 205.5"
       style="fill:none;stroke:#262626;stroke-width:0.50025;stroke-linecap:square;stroke-linejoin:round;stroke-miterlimit:10;stroke-dasharray:none;stroke-opacity:1"
       id="path160" /><path
       d="m 348.25,50.25 h 2.4"
       style="fill:none;stroke:#262626;stroke-width:0.50025;stroke-linecap:square;stroke-linejoin:round;stroke-miterlimit:10;stroke-dasharray:none;stroke-opacity:1"
       id="path162" /><path
       d="m 348.25,101.625 h 2.4"
       style="fill:none;stroke:#262626;stroke-width:0.50025;stroke-linecap:square;stroke-linejoin:round;stroke-miterlimit:10;stroke-dasharray:none;stroke-opacity:1"
       id="path164" /><path
       d="m 348.25,153 h 2.4"
       style="fill:none;stroke:#262626;stroke-width:0.50025;stroke-linecap:square;stroke-linejoin:round;stroke-miterlimit:10;stroke-dasharray:none;stroke-opacity:1"
       id="path166" /><path
       d="m 348.25,204.375 h 2.4"
       style="fill:none;stroke:#262626;stroke-width:0.50025;stroke-linecap:square;stroke-linejoin:round;stroke-miterlimit:10;stroke-dasharray:none;stroke-opacity:1"
       id="path168" /><path
       d="m 348.25,255.75 h 2.4"
       style="fill:none;stroke:#262626;stroke-width:0.50025;stroke-linecap:square;stroke-linejoin:round;stroke-miterlimit:10;stroke-dasharray:none;stroke-opacity:1"
       id="path170" /><g
       id="g172"><text
         transform="matrix(1,0,0,-1,335.2,45)"
         style="font-style:normal;font-variant:normal;font-weight:normal;font-stretch:normal;font-size:14.0002px;font-family:'CMU Serif';-inkscape-font-specification:'CMU Serif';writing-mode:lr-tb;fill:#262626;fill-opacity:1;fill-rule:nonzero;stroke:none"
         id="text184"><tspan
           x="0"
           y="0"
           id="tspan174"
           style="font-style:normal;font-variant:normal;font-weight:normal;font-stretch:normal;font-family:'CMU Serif';-inkscape-font-specification:'CMU Serif'">0</tspan><tspan
           x="-11.25 -3.4658887 0.4261668"
           y="-51.375"
           sodipodi:role="line"
           id="tspan176">0.5</tspan><tspan
           x="0"
           y="-102.75"
           id="tspan178"
           style="font-style:normal;font-variant:normal;font-weight:normal;font-stretch:normal;font-family:'CMU Serif';-inkscape-font-specification:'CMU Serif'">1</tspan><tspan
           x="-11.25 -3.4658887 0.4261668"
           y="-154.125"
           sodipodi:role="line"
           id="tspan180">1.5</tspan><tspan
           x="0"
           y="-205.5"
           id="tspan182"
           style="font-style:normal;font-variant:normal;font-weight:normal;font-stretch:normal;font-family:'CMU Serif';-inkscape-font-specification:'CMU Serif'">2</tspan></text><text
         transform="matrix(0,1,1,0,310.75,126.75)"
         style="font-style:normal;font-variant:normal;font-weight:normal;font-stretch:normal;font-size:15.3997px;font-family:'CMU Serif';-inkscape-font-specification:'CMU Serif';writing-mode:lr-tb;fill:#262626;fill-opacity:1;fill-rule:nonzero;stroke:none"
         id="text188"><tspan
           x="0"
           y="0"
           id="tspan186"
           style="font-style:normal;font-variant:normal;font-weight:normal;font-stretch:normal;font-family:'CMU Serif';-inkscape-font-specification:'CMU Serif'">u</tspan></text><text
         transform="matrix(0,1,1,0,318.25,135.75)"
         style="font-style:normal;font-variant:normal;font-weight:normal;font-stretch:normal;font-size:12.3202px;font-family:'CMU Serif';-inkscape-font-specification:'CMU Serif';writing-mode:lr-tb;fill:#262626;fill-opacity:1;fill-rule:nonzero;stroke:none"
         id="text192"><tspan
           x="0 6.8500314 13.700063"
           y="0"
           sodipodi:role="line"
           id="tspan190">out</tspan></text><text
         transform="matrix(0,1,1,0,310.75,157.28112)"
         style="font-style:normal;font-variant:normal;font-weight:normal;font-stretch:normal;font-size:15.3997px;font-family:'CMU Serif';-inkscape-font-specification:'CMU Serif';writing-mode:lr-tb;fill:#262626;fill-opacity:1;fill-rule:nonzero;stroke:none"
         id="text196"><tspan
           x="0 4.2811165 17.109066"
           y="0"
           sodipodi:role="line"
           id="tspan194">[m]</tspan></text></g><path
       d="m 350.348,259.91 c 0,0.078 0.023,0.145 0.07,0.2 l 2.965,2.953 -2.965,2.964 c -0.047,0.047 -0.07,0.11 -0.07,0.188 0,0.07 0.027,0.135 0.082,0.193 0.054,0.059 0.121,0.088 0.199,0.088 0.062,0 0.133,-0.027 0.211,-0.082 l 2.953,-2.953 2.942,2.953 c 0.078,0.055 0.148,0.082 0.211,0.082 0.077,0 0.144,-0.027 0.198,-0.082 0.055,-0.055 0.083,-0.121 0.083,-0.199 0,-0.078 -0.024,-0.141 -0.071,-0.188 l -2.965,-2.964 2.965,-2.953 c 0.047,-0.055 0.071,-0.122 0.071,-0.2 0,-0.078 -0.028,-0.144 -0.083,-0.199 -0.054,-0.055 -0.121,-0.082 -0.198,-0.082 -0.071,0 -0.141,0.035 -0.211,0.106 l -2.942,2.929 -2.953,-2.929 c -0.063,-0.071 -0.133,-0.106 -0.211,-0.106 -0.078,0 -0.145,0.029 -0.199,0.088 -0.055,0.058 -0.082,0.123 -0.082,0.193"
       style="fill:#262626;fill-opacity:1;fill-rule:nonzero;stroke:none;stroke-width:0.1"
       id="path198" /><g
       id="g200"><text
         transform="matrix(1,0,0,-1,359.5,259.5)"
         style="font-style:normal;font-variant:normal;font-weight:normal;font-stretch:normal;font-size:14.0002px;font-family:'CMU Serif';-inkscape-font-specification:'CMU Serif';writing-mode:lr-tb;fill:#262626;fill-opacity:1;fill-rule:nonzero;stroke:none"
         id="text204"><tspan
           x="0 7.784111"
           y="0"
           sodipodi:role="line"
           id="tspan202">10</tspan></text><text
         transform="matrix(1,0,0,-1,375.25,266.25)"
         style="font-style:normal;font-variant:normal;font-weight:normal;font-stretch:normal;font-size:11.1997px;font-family:'CMU Serif';-inkscape-font-specification:'CMU Serif';writing-mode:lr-tb;fill:#262626;fill-opacity:1;fill-rule:nonzero;stroke:none"
         id="text208"><tspan
           x="0 3.7295001"
           y="0"
           sodipodi:role="line"
           id="tspan206">-3</tspan></text></g><g
       id="g210"><text
         transform="matrix(1,0,0,-1,388.75,262.387)"
         style="font-style:normal;font-variant:normal;font-weight:bold;font-stretch:normal;font-size:15.3997px;font-family:'CMU Serif';-inkscape-font-specification:'CMU Serif Bold';writing-mode:lr-tb;fill:#000000;fill-opacity:1;fill-rule:nonzero;stroke:none"
         id="text214"><tspan
           x="0 9.4092169 13.690333 22.252567 31.661783 35.942902 44.505135 53.067368 61.629601 75.319931 83.882164 93.291382 98.419479 102.7006 108.69109 117.25332 121.53443 130.09666 135.22476 139.50589 148.9151"
           y="0"
           sodipodi:role="line"
           id="tspan212">displacement relation</tspan></text></g><path
       d="m 348.25,255.75 3.337,-16.786 3.936,-18.88 3.807,-17.315 3.466,-14.953 3.567,-14.589 3.705,-14.282 4.013,-14.475 3.26,-11.001 4.053,-12.723 3.22,-9.355 3.507,-9.436 3.765,-9.246 3.496,-7.7715 3.777,-7.5141 4.056,-7.0496 3.217,-4.8386 1.95,-2.6102 1.95,-2.3664 1.686,-1.8484 1.687,-1.6668 1.913,-1.67 1.914,-1.4347 1.723,-1.0907 0.861,-0.4734 0.861,-0.4266 0.901,-0.3945 0.9,-0.3422 0.901,-0.2906 0.901,-0.2379 0.918,-0.1898 0.917,-0.1348 0.917,-0.0812 0.918,-0.027 0.909,0.0262 0.91,0.0804 0.909,0.1329 0.909,0.1851 0.909,0.2391 0.909,0.2918 0.909,0.3449 0.909,0.3976 0.945,0.4704 0.945,0.5277 0.946,0.5852 0.945,0.6421 1.746,1.3371 1.746,1.5329 1.963,1.9586 1.964,2.2054 1.673,2.0739 1.672,2.2539 3.574,5.4179 3.699,6.4703 3.66,7.268 3.612,8.0176 3.64,8.923 3.634,9.759 3.901,11.422 3.371,10.656 3.465,11.713 3.808,13.763 3.816,14.724 3.456,14.147 2.745,11.779 4.528,20.489 3.569,17.078 3.704,18.588"
       style="fill:none;stroke:#d95319;stroke-width:1.5;stroke-linecap:butt;stroke-linejoin:round;stroke-miterlimit:10;stroke-dasharray:none;stroke-opacity:1"
       id="path216" /><path
       d="m 428.25,255.75 3.337,-16.786 3.936,-18.88 3.807,-17.315 3.466,-14.953 3.568,-14.589 3.704,-14.282 4.012,-14.475 3.261,-11.001 4.052,-12.723 3.22,-9.355 3.509,-9.436 3.765,-9.246 3.495,-7.7715 3.777,-7.5141 4.057,-7.0496 3.216,-4.8386 1.95,-2.6102 1.95,-2.3664 1.686,-1.8484 1.686,-1.6668 1.914,-1.67 1.914,-1.4347 1.723,-1.0907 0.861,-0.4734 0.861,-0.4266 0.901,-0.3945 0.901,-0.3422 0.9,-0.2906 0.901,-0.2379 0.917,-0.1898 0.918,-0.1348 0.917,-0.0812 0.918,-0.027 0.909,0.0262 0.909,0.0804 0.91,0.1329 0.909,0.1851 0.909,0.2391 0.909,0.2918 0.909,0.3449 0.909,0.3976 0.945,0.4704 0.945,0.5277 0.945,0.5852 0.946,0.6421 1.745,1.3371 1.746,1.5329 1.964,1.9586 1.964,2.2054 1.672,2.0739 1.673,2.2539 3.575,5.4179 3.698,6.4703 3.661,7.268 3.612,8.0176 3.638,8.923 3.634,9.759 3.902,11.422 3.371,10.656 3.465,11.713 3.808,13.763 3.816,14.724 3.457,14.147 2.745,11.779 4.527,20.489 3.569,17.078 3.704,18.588"
       style="fill:none;stroke:#edb120;stroke-width:1.5;stroke-linecap:butt;stroke-linejoin:round;stroke-miterlimit:10;stroke-dasharray:none;stroke-opacity:1"
       id="path218" /><path
       d="m 478,193.5 h 102 v 54 H 478 Z"
       style="fill:#ffffff;fill-opacity:1;fill-rule:nonzero;stroke:none;stroke-width:0.1"
       id="path220" /><g
       id="g222"><text
         transform="matrix(1,0,0,-1,530.875,214.304)"
         style="font-style:normal;font-variant:normal;font-weight:normal;font-stretch:normal;font-size:12.6px;font-family:'CMU Serif';-inkscape-font-specification:'CMU Serif';writing-mode:lr-tb;fill:#000000;fill-opacity:1;fill-rule:nonzero;stroke:none"
         id="text226"><tspan
           x="0 7.0056 10.5084 17.8668 21.3696"
           y="0"
           sodipodi:role="line"
           id="tspan224">n = 1</tspan></text></g><path
       d="m 498.625,219.179 h 30"
       style="fill:none;stroke:#d95319;stroke-width:1.5;stroke-linecap:butt;stroke-linejoin:round;stroke-miterlimit:10;stroke-dasharray:none;stroke-opacity:1"
       id="path228" /><g
       id="g230"><text
         transform="matrix(1,0,0,-1,530.875,198.066)"
         style="font-style:normal;font-variant:normal;font-weight:normal;font-stretch:normal;font-size:12.6px;font-family:'CMU Serif';-inkscape-font-specification:'CMU Serif';writing-mode:lr-tb;fill:#000000;fill-opacity:1;fill-rule:nonzero;stroke:none"
         id="text234"><tspan
           x="0 7.0056 10.5084 17.8668 21.3696"
           y="0"
           sodipodi:role="line"
           id="tspan232">n &gt; 1</tspan></text></g><path
       d="m 498.625,202.94 h 30"
       style="fill:none;stroke:#edb120;stroke-width:1.5;stroke-linecap:butt;stroke-linejoin:round;stroke-miterlimit:10;stroke-dasharray:none;stroke-opacity:1"
       id="path236" /><g
       id="g238"><text
         transform="matrix(1,0,0,-1,481,233.184)"
         style="font-style:normal;font-variant:normal;font-weight:normal;font-stretch:normal;font-size:12.6px;font-family:'CMU Serif';-inkscape-font-specification:'CMU Serif';writing-mode:lr-tb;fill:#000000;fill-opacity:1;fill-rule:nonzero;stroke:none"
         id="text242"><tspan
           x="0 7.0056 14.7042 22.4028 29.4084 36.414001 40.609798 47.615398 55.313999 62.319599 66.515404 70.018204 77.716797 85.415398 88.918198"
           y="0"
           sodipodi:role="line"
           id="tspan240">concatenation #</tspan></text></g><path
       d="m 478,193.5 h 102 v 54 H 478 Z"
       style="fill:none;stroke:#262626;stroke-width:0.50025;stroke-linecap:butt;stroke-linejoin:round;stroke-miterlimit:10;stroke-dasharray:none;stroke-opacity:1"
       id="path244" /><path
       d="M 478,228.619 H 580"
       style="fill:none;stroke:#262626;stroke-width:0.50025;stroke-linecap:butt;stroke-linejoin:round;stroke-miterlimit:10;stroke-dasharray:none;stroke-opacity:1"
       id="path246" /><text
       xml:space="preserve"
       style="font-style:normal;font-variant:normal;font-weight:bold;font-stretch:normal;font-size:18px;line-height:1.25;font-family:'CMU Serif';-inkscape-font-specification:'CMU Serif Bold';stroke-width:0.75"
       x="292.27386"
       y="-284.836"
       id="text7340"
       transform="scale(1,-1)"><tspan
         sodipodi:role="line"
         id="tspan7338"
         style="font-style:normal;font-variant:normal;font-weight:bold;font-stretch:normal;font-family:'CMU Serif';-inkscape-font-specification:'CMU Serif Bold';stroke-width:0.75"
         x="292.27386"
         y="-284.836">parity</tspan></text></g></svg>
