<?xml version="1.0" encoding="UTF-8" standalone="no"?>
<!-- Created with Inkscape (http://www.inkscape.org/) -->

<svg
   version="1.1"
   id="svg2"
   xml:space="preserve"
   width="1589.0347"
   height="578.67188"
   viewBox="0 0 1589.0347 578.67188"
   sodipodi:docname="ManufacturedPrototype.svg"
   inkscape:version="1.1.1 (3bf5ae0d25, 2021-09-20)"
   xmlns:inkscape="http://www.inkscape.org/namespaces/inkscape"
   xmlns:sodipodi="http://sodipodi.sourceforge.net/DTD/sodipodi-0.dtd"
   xmlns="http://www.w3.org/2000/svg"
   xmlns:svg="http://www.w3.org/2000/svg"><defs
     id="defs6" /><sodipodi:namedview
     id="namedview4"
     pagecolor="#ffffff"
     bordercolor="#666666"
     borderopacity="1.0"
     inkscape:pageshadow="2"
     inkscape:pageopacity="0.0"
     inkscape:pagecheckerboard="0"
     showgrid="false"
     inkscape:zoom="0.36594545"
     inkscape:cx="892.20949"
     inkscape:cy="255.50256"
     inkscape:window-width="1920"
     inkscape:window-height="1027"
     inkscape:window-x="-8"
     inkscape:window-y="-8"
     inkscape:window-maximized="1"
     inkscape:current-layer="g8" /><g
     id="g8"
     inkscape:groupmode="layer"
     inkscape:label="ManufacturedPrototype"
     transform="matrix(1.3333333,0,0,1.3333333,0,9.8001302e-6)"><g
       id="g26043"><g
         id="g12"
         transform="scale(1,-1)"><path
           d="m 510.793,-167.332 h 2.598"
           style="fill:none;stroke:#000000;stroke-width:0.075;stroke-linecap:butt;stroke-linejoin:miter;stroke-miterlimit:4;stroke-dasharray:none;stroke-opacity:1"
           id="path14" /></g><g
         id="g16"
         transform="scale(1,-1)"><path
           d="m 680.891,-167.332 h 2.5"
           style="fill:none;stroke:#000000;stroke-width:0.075;stroke-linecap:butt;stroke-linejoin:miter;stroke-miterlimit:4;stroke-dasharray:none;stroke-opacity:1"
           id="path18" /></g><path
         d="m 499.992,128.164 c 0,12.879 0,25.762 0,38.645 12.672,0.199 25.481,0.082 38.207,0.16 5.563,0.015 11.125,0.027 16.688,0.043 0.043,33.031 0.086,66.062 0.129,99.093 12.504,0.176 25.14,0.024 37.695,0.075 15.441,0 30.879,0 46.32,0 0.192,-12.504 0.059,-25.141 0.125,-37.696 0.028,-20.492 0.051,-40.984 0.078,-61.472 18.36,-0.047 36.719,-0.094 55.078,-0.129 0.172,-12.461 0.024,-25.055 0.075,-37.567 0.578,-2.136 -2.211,-0.91 -3.403,-1.226 -63.64,0 -127.277,0 -190.918,0 z"
         style="fill:#1a5fb4;fill-opacity:1;fill-rule:nonzero;stroke:none"
         id="path20" /><g
         id="g22"
         transform="scale(1,-1)"><path
           d="m 510.793,-280.73 h 2.598"
           style="fill:none;stroke:#000000;stroke-width:0.075;stroke-linecap:butt;stroke-linejoin:miter;stroke-miterlimit:4;stroke-dasharray:none;stroke-opacity:1"
           id="path24" /></g><g
         id="g26"
         transform="scale(1,-1)"><path
           d="M 489.391,-337.43 H 704.793"
           style="fill:none;stroke:#000000;stroke-width:0.075;stroke-linecap:butt;stroke-linejoin:miter;stroke-miterlimit:4;stroke-dasharray:none;stroke-opacity:1"
           id="path28" /></g><path
         d="m 508.715,281.094 c -6.184,0.051 -12.445,0.027 -18.578,0.277 0.051,18.598 -0.098,37.281 0.078,55.828 14.687,-0.051 29.457,0.098 44.094,-0.074 -0.051,-18.594 0.097,-37.27 -0.075,-55.813 -8.507,-0.117 -17.015,-0.257 -25.519,-0.218 z"
         style="fill:#1a5fb4;fill-opacity:1;fill-rule:nonzero;stroke:none"
         id="path30" /><path
         d="m 679.18,281.09 c -6.364,0.058 -12.801,0.031 -19.11,0.281 0.051,18.598 -0.101,37.281 0.075,55.828 14.687,-0.051 29.457,0.098 44.093,-0.074 -0.047,-18.602 0.098,-37.281 -0.074,-55.828 -8.328,-0.117 -16.656,-0.242 -24.988,-0.207 z"
         style="fill:#62a0ea;fill-opacity:1;fill-rule:nonzero;stroke:none"
         id="path32" /><path
         d="m 511.25,167.574 c 0,37.707 0,75.414 0,113.117 2.172,0.899 1.699,-1.382 1.688,-2.812 0,-36.77 0,-73.535 0,-110.305 -0.454,-0.125 -1.231,-0.125 -1.688,0 z"
         style="fill:#62a0ea;fill-opacity:1;fill-rule:nonzero;stroke:none"
         id="path34" /><path
         d="m 681.184,167.574 c 0,37.793 0,75.582 0,113.375 2.171,0.899 1.699,-1.387 1.687,-2.816 0,-36.852 0,-73.707 0,-110.559 -0.457,-0.125 -1.23,-0.125 -1.687,0 z"
         style="fill:#62a0ea;fill-opacity:1;fill-rule:nonzero;stroke:none"
         id="path36" /><path
         d="m 555.016,267.129 c 0.05,8.973 -0.102,18.027 0.074,26.945 27.98,0 55.961,0 83.941,0 0.176,-8.918 0.028,-17.972 0.074,-26.945 -12.5,-0.176 -25.14,-0.024 -37.695,-0.074 -15.437,0 -30.879,0 -46.32,0 z"
         style="fill:#1a5fb4;fill-opacity:1;fill-rule:nonzero;stroke:none"
         id="path38" /><path
         d="m 683.586,281.227 c -7.652,0.156 -15.356,-0.266 -22.981,0.406 -0.835,1.539 -0.101,4.285 -0.347,6.273 0.047,16.391 -0.102,32.864 0.074,49.203 14.613,-0.05 29.309,0.098 43.867,-0.074 -0.051,-18.594 0.102,-37.273 -0.074,-55.812 -6.848,0 -13.695,0 -20.539,0.004 z"
         style="fill:#1a5fb4;fill-opacity:1;fill-rule:nonzero;stroke:none"
         id="path40" /><path
         d="m 513.676,261.027 c 0.051,6.407 -0.102,12.895 0.074,19.246 7.152,0.067 14.309,0.129 21.461,0.192 0.117,4.515 0.035,9.113 0.269,13.574 6.165,-0.051 12.411,0.102 18.52,-0.074 -0.051,-10.992 0.098,-22.07 -0.074,-33.012 -13.406,0.051 -26.899,-0.098 -40.25,0.074 z"
         style="fill:#26a269;fill-opacity:1;fill-rule:nonzero;stroke:none"
         id="path42" /><path
         d="m 639.988,261.027 c 0.051,10.993 -0.101,22.071 0.074,33.012 6.29,-0.051 12.661,0.102 18.895,-0.074 0,-4.559 0,-9.121 0,-13.68 7.109,-0.051 14.301,0.102 21.355,-0.074 -0.05,-6.41 0.102,-12.902 -0.074,-19.258 -13.406,0.051 -26.894,-0.098 -40.25,0.074 z"
         style="fill:#26a269;fill-opacity:1;fill-rule:nonzero;stroke:none"
         id="path44" /><g
         id="g46"
         transform="scale(1,-1)"><path
           d="m 700.59,-276.332 -1.098,-2.297"
           style="fill:none;stroke:#000000;stroke-width:0.075;stroke-linecap:butt;stroke-linejoin:miter;stroke-miterlimit:4;stroke-dasharray:none;stroke-opacity:1"
           id="path48" /></g><g
         id="g50"
         transform="scale(1,-1)"><path
           d="m 493.691,-276.332 1.102,-2.297"
           style="fill:none;stroke:#000000;stroke-width:0.075;stroke-linecap:butt;stroke-linejoin:miter;stroke-miterlimit:4;stroke-dasharray:none;stroke-opacity:1"
           id="path52" /></g><g
         id="g54"
         transform="scale(1,-1)"><path
           d="m 391.293,-326.43 1.098,-2.3"
           style="fill:none;stroke:#000000;stroke-width:0.075;stroke-linecap:butt;stroke-linejoin:miter;stroke-miterlimit:4;stroke-dasharray:none;stroke-opacity:1"
           id="path56" /></g><g
         id="g58"
         transform="scale(1,-1)"><path
           d="m 392.391,-119.332 -1.098,-2.297"
           style="fill:none;stroke:#000000;stroke-width:0.075;stroke-linecap:butt;stroke-linejoin:miter;stroke-miterlimit:4;stroke-dasharray:none;stroke-opacity:1"
           id="path60" /></g><g
         id="g62"
         transform="scale(1,-1)"><path
           d="m 494.793,-169.43 -1.102,-2.3"
           style="fill:none;stroke:#000000;stroke-width:0.075;stroke-linecap:butt;stroke-linejoin:miter;stroke-miterlimit:4;stroke-dasharray:none;stroke-opacity:1"
           id="path64" /></g><g
         id="g66"
         transform="scale(1,-1)"><path
           d="m 699.492,-169.43 1.098,-2.3"
           style="fill:none;stroke:#000000;stroke-width:0.075;stroke-linecap:butt;stroke-linejoin:miter;stroke-miterlimit:4;stroke-dasharray:none;stroke-opacity:1"
           id="path68" /></g><g
         id="g70"
         transform="scale(1,-1)"><path
           d="m 801.793,-119.332 1.098,-2.297"
           style="fill:none;stroke:#000000;stroke-width:0.075;stroke-linecap:butt;stroke-linejoin:miter;stroke-miterlimit:4;stroke-dasharray:none;stroke-opacity:1"
           id="path72" /></g><g
         id="g74"
         transform="scale(1,-1)"><path
           d="m 802.891,-326.43 -1.098,-2.3"
           style="fill:none;stroke:#000000;stroke-width:0.075;stroke-linecap:butt;stroke-linejoin:miter;stroke-miterlimit:4;stroke-dasharray:none;stroke-opacity:1"
           id="path76" /></g><g
         id="g78"
         transform="scale(1,-1)"><path
           d="m 653.793,-307.832 v -2.5"
           style="fill:none;stroke:#000000;stroke-width:0.075;stroke-linecap:butt;stroke-linejoin:miter;stroke-miterlimit:4;stroke-dasharray:none;stroke-opacity:1"
           id="path80" /></g><g
         id="g82"
         transform="scale(1,-1)"><path
           d="m 540.391,-307.832 v -2.5"
           style="fill:none;stroke:#000000;stroke-width:0.075;stroke-linecap:butt;stroke-linejoin:miter;stroke-miterlimit:4;stroke-dasharray:none;stroke-opacity:1"
           id="path84" /></g><path
         d="m 495.512,260.789 c -2.688,0.293 -5.813,-0.441 -8.301,0.609 2.832,6.168 5.512,12.563 8.961,18.399 4.215,1.305 8.918,0.211 13.293,0.586 1.894,-1.199 0.219,-5.809 0.785,-8.266 -0.051,-3.765 0.102,-7.617 -0.074,-11.332 -4.891,0 -9.778,-0.008 -14.664,0.004 z"
         style="fill:#26a269;fill-opacity:1;fill-rule:nonzero;stroke:none"
         id="path86" /><path
         d="m 684.129,260.859 c 0.051,6.504 -0.106,13.102 0.074,19.555 4.66,-0.125 9.352,-0.141 13.992,-0.328 3.075,-6.293 6.434,-12.672 9.047,-19.059 -7.676,-0.394 -15.48,-0.254 -23.113,-0.168 z"
         style="fill:#26a269;fill-opacity:1;fill-rule:nonzero;stroke:none"
         id="path88" /><path
         d="m 822.082,97.617 c -8.203,3.742 -16.477,7.613 -24.324,11.965 3.234,7.656 7.324,14.914 10.797,22.461 -23.043,23.066 -46.137,46.102 -69.149,69.187 0.016,15.2 -0.027,30.411 0.024,45.602 23.035,23.039 46.07,46.078 69.105,69.113 -3.359,7.59 -7.812,14.953 -10.687,22.617 7.882,4.2 16.039,8.317 24.136,11.852 7.93,-15.652 15.704,-31.43 23,-47.367 -18.207,-19.133 -37.183,-37.531 -55.781,-56.293 0,-15.164 0,-30.332 0,-45.5 18.582,-18.777 37.641,-37.164 55.789,-56.32 -7.5,-15.821 -15.015,-31.758 -22.91,-47.317 z"
         style="fill:#26a269;fill-opacity:1;fill-rule:nonzero;stroke:none"
         id="path90" /><path
         d="m 695.824,164.707 c -1.183,0.934 0.606,3.813 -1.972,2.922 -3.231,0.051 -6.543,-0.102 -9.723,0.074 0.047,6.496 -0.102,13.078 0.074,19.524 7.66,-0.172 15.563,0.359 23.106,-0.344 -3.582,-7.305 -6.676,-14.942 -10.934,-21.875 -0.148,-0.141 -0.328,-0.324 -0.551,-0.301 z"
         style="fill:#26a269;fill-opacity:1;fill-rule:nonzero;stroke:none"
         id="path92" /><path
         d="m 640.109,167.703 c 0.051,6.496 -0.101,13.078 0.075,19.524 13.324,-0.047 26.726,0.101 40,-0.075 -0.051,-6.496 0.097,-13.078 -0.075,-19.523 -13.324,0.051 -26.73,-0.102 -40,0.074 z"
         style="fill:#26a269;fill-opacity:1;fill-rule:nonzero;stroke:none"
         id="path94" /><path
         d="m 513.684,167.703 c 0.05,6.496 -0.102,13.078 0.074,19.524 13.492,-0.051 27.07,0.101 40.512,-0.075 -0.051,-6.496 0.097,-13.078 -0.075,-19.523 -13.496,0.051 -27.07,-0.102 -40.511,0.074 z"
         style="fill:#26a269;fill-opacity:1;fill-rule:nonzero;stroke:none"
         id="path96" /><path
         d="m 498.5,164.688 c -2.984,3 -4.191,7.496 -6.27,11.156 -1.593,3.699 -3.902,7.574 -5.035,11.222 7.672,0.239 15.434,0.207 23.055,0.086 -0.051,-6.496 0.102,-13.078 -0.074,-19.523 -3.731,0 -7.457,0 -11.188,0 -0.289,-0.66 0.489,-2.609 -0.488,-2.941 z"
         style="fill:#26a269;fill-opacity:1;fill-rule:nonzero;stroke:none"
         id="path98" /><path
         d="m 372.133,97.672 c -7.762,15.738 -15.535,31.523 -23.145,47.308 18.727,18.766 37.457,37.536 56.184,56.301 0,15.149 0,30.301 0,45.449 -18.723,18.805 -37.57,37.543 -56.211,56.387 7.805,15.774 15.336,31.778 23.363,47.383 8.117,-3.887 16.328,-7.77 24.313,-11.812 -3.586,-7.547 -7.278,-15.036 -11.004,-22.512 23.105,-23.137 46.262,-46.238 69.34,-69.395 -0.016,-15.199 0.027,-30.41 -0.024,-45.601 -23.105,-23.118 -46.211,-46.231 -69.316,-69.344 3.676,-7.484 7.531,-14.977 10.933,-22.539 -8.14,-3.832 -16.191,-8.152 -24.433,-11.625 z"
         style="fill:#26a269;fill-opacity:1;fill-rule:nonzero;stroke:none"
         id="path100" /><path
         d="m 535.18,295.152 c 0.05,11.957 -0.098,23.996 0.074,35.903 3.566,0.664 5.812,-0.125 4.684,-4.168 -0.051,-10.594 0.101,-21.27 -0.075,-31.809 -1.543,0.059 -3.191,-0.109 -4.683,0.074 z"
         style="fill:#613583;fill-opacity:1;fill-rule:nonzero;stroke:none"
         id="path102" /><path
         d="m 654.516,295.148 c -0.219,8.715 -0.43,17.52 0.062,26.184 3.563,0.68 5.727,-0.172 4.617,-4.172 -0.05,-7.348 0.102,-14.785 -0.074,-22.082 -1.516,0.059 -3.137,-0.109 -4.605,0.07 z"
         style="fill:#613583;fill-opacity:1;fill-rule:nonzero;stroke:none"
         id="path104" /><path
         d="m 654.441,247.551 c 0.051,4.109 -0.101,8.301 0.075,12.359 8.546,-0.051 17.172,0.102 25.668,-0.074 -0.051,-4.109 0.097,-8.301 -0.075,-12.359 -8.547,0.05 -17.175,-0.102 -25.668,0.074 z"
         style="fill:#613583;fill-opacity:1;fill-rule:nonzero;stroke:none"
         id="path106" /><path
         d="m 654.441,188.176 c 0.051,4.281 -0.101,8.644 0.075,12.871 8.546,-0.051 17.172,0.101 25.668,-0.074 -0.055,-4.278 0.101,-8.645 -0.075,-12.871 -8.547,0.05 -17.175,-0.102 -25.668,0.074 z"
         style="fill:#613583;fill-opacity:1;fill-rule:nonzero;stroke:none"
         id="path108" /><path
         d="m 684.129,188.176 c 0.051,4.281 -0.102,8.644 0.074,12.871 2.914,-0.055 5.914,0.105 8.777,-0.074 -0.054,-4.278 0.102,-8.645 -0.078,-12.871 -2.91,0.054 -5.914,-0.102 -8.773,0.074 z"
         style="fill:#613583;fill-opacity:1;fill-rule:nonzero;stroke:none"
         id="path110" /><path
         d="m 684.129,247.551 c 0.047,4.109 -0.102,8.301 0.074,12.359 2.914,-0.055 5.914,0.102 8.777,-0.074 -0.05,-4.109 0.098,-8.301 -0.078,-12.359 -2.91,0.05 -5.914,-0.106 -8.773,0.074 z"
         style="fill:#613583;fill-opacity:1;fill-rule:nonzero;stroke:none"
         id="path112" /><path
         d="m 654.121,126.18 c -0.32,1.097 0.438,1.246 1.356,1.097 12.582,0 25.164,0 37.746,0 0.422,-0.941 -0.203,-1.425 -1.153,-1.172 -12.625,0 -25.25,0 -37.875,0 z"
         style="fill:#613583;fill-opacity:1;fill-rule:nonzero;stroke:none"
         id="path114" /><path
         d="m 483.996,286.727 c 0.051,14.851 -0.098,29.789 0.074,44.589 1.575,-0.504 5.469,1.297 4.782,-1.523 -0.051,-14.371 0.101,-28.824 -0.075,-43.145 -1.578,0.059 -3.254,-0.105 -4.781,0.079 z"
         style="fill:#613583;fill-opacity:1;fill-rule:nonzero;stroke:none"
         id="path116" /><path
         d="m 483.996,116.98 c 0.051,14.735 -0.098,29.551 0.074,44.231 4.692,-0.203 9.485,0.398 14.121,-0.324 1.157,-1.067 0.344,-3.114 0.684,-4.508 0.191,-9.731 0.082,-19.461 0.109,-29.188 13.625,-0.05 27.328,0.098 40.899,-0.078 -0.051,-3.39 0.101,-6.867 -0.074,-10.207 -18.594,0.051 -37.27,-0.101 -55.813,0.074 z"
         style="fill:#613583;fill-opacity:1;fill-rule:nonzero;stroke:none"
         id="path118" /><path
         d="m 540.363,308.27 c 0.16,0.585 -0.445,1.968 0.586,1.738 37.578,0 75.156,0 112.735,0 -0.016,-0.496 0.468,-1.922 -0.383,-1.817 -37.621,0 -75.242,0 -112.863,0 z"
         style="fill:#c061cb;fill-opacity:1;fill-rule:nonzero;stroke:none"
         id="path120" /><path
         d="m 445.777,300.133 c -18.058,8.847 -36.121,17.679 -54.164,26.551 -0.035,0.488 0.328,1.023 0.567,1.461 0.437,0.39 0.98,-0.336 1.433,-0.411 20.449,-9.964 40.891,-19.949 61.293,-30.007 0.246,-0.606 0.028,-1.332 0.067,-1.973 -0.871,0.152 -1.762,0.82 -2.637,1.172 -2.188,1.07 -4.371,2.14 -6.559,3.207 z"
         style="fill:#8ff0a4;fill-opacity:1;fill-rule:nonzero;stroke:none"
         id="path122" /><path
         d="m 493.715,276.727 c -3.203,1.519 -6.449,3.023 -9.59,4.625 0.117,0.57 -0.355,1.808 0.148,1.972 1.579,-0.816 3.336,-1.379 4.754,-2.469 0.168,-0.625 1.008,-0.3 1.453,-0.585 1.375,-0.575 2.797,-1.172 3.989,-2.067 -0.121,-0.515 -0.364,-1.074 -0.703,-1.476 z"
         style="fill:#8ff0a4;fill-opacity:1;fill-rule:nonzero;stroke:none"
         id="path124" /><path
         d="m 392.254,119.766 c -0.184,0.55 -1.199,1.73 -0.02,1.898 20.903,10.168 41.746,20.469 62.672,30.57 0.367,-0.472 0.145,-1.296 0.153,-1.847 -20.899,-10.219 -41.801,-20.438 -62.704,-30.657 z"
         style="fill:#8ff0a4;fill-opacity:1;fill-rule:nonzero;stroke:none"
         id="path126" /><path
         d="m 484.316,164.812 c -0.468,0.407 -0.128,1.305 -0.187,1.825 3.195,1.515 6.336,3.222 9.582,4.59 0.441,-0.348 0.66,-1.028 0.758,-1.524 -3.387,-1.617 -6.739,-3.348 -10.153,-4.891 z"
         style="fill:#8ff0a4;fill-opacity:1;fill-rule:nonzero;stroke:none"
         id="path128" /><path
         d="m 709.875,164.789 c -3.375,1.606 -6.73,3.254 -10.047,4.977 0.09,0.492 0.352,1.195 0.781,1.492 3.18,-1.504 6.371,-3.059 9.473,-4.68 -0.152,-0.43 0.254,-1.586 -0.207,-1.789 z"
         style="fill:#8ff0a4;fill-opacity:1;fill-rule:nonzero;stroke:none"
         id="path130" /><path
         d="m 770.598,135.004 c -10.414,5.117 -20.891,10.156 -31.262,15.324 0.137,0.551 -0.598,2.473 0.508,1.676 20.886,-10.246 41.847,-20.375 62.695,-30.68 -0.059,-0.562 -0.398,-1.176 -0.727,-1.582 -10.406,5.086 -20.812,10.172 -31.214,15.262 z"
         style="fill:#8ff0a4;fill-opacity:1;fill-rule:nonzero;stroke:none"
         id="path132" /><path
         d="m 739.465,295.824 c -0.488,0.422 0,1.344 -0.129,1.906 17.25,8.532 34.613,16.938 51.906,25.418 3.524,1.723 7.047,3.446 10.57,5.168 0.254,-0.418 0.793,-1.086 0.688,-1.636 -20.992,-10.309 -41.984,-20.637 -63.016,-30.856 z"
         style="fill:#8ff0a4;fill-opacity:1;fill-rule:nonzero;stroke:none"
         id="path134" /><path
         d="m 700.551,276.797 c -0.301,0.418 -0.828,1.047 -0.68,1.558 1.535,0.84 3.16,1.711 4.891,2.032 0.496,0.058 0.574,0.726 1.097,0.843 1.313,0.727 2.684,1.551 4.086,2.004 0.243,-0.597 0.055,-1.339 0,-1.949 -3.133,-1.484 -6.226,-3.101 -9.394,-4.488 z"
         style="fill:#8ff0a4;fill-opacity:1;fill-rule:nonzero;stroke:none"
         id="path136" /><path
         d="m 514.219,201.852 c 0.051,14.734 -0.102,29.55 0.074,44.23 13.285,-0.051 26.652,0.102 39.887,-0.074 -0.051,-14.735 0.101,-29.547 -0.075,-44.231 -13.285,0.051 -26.652,-0.097 -39.886,0.075 z"
         style="fill:#26a269;fill-opacity:1;fill-rule:nonzero;stroke:none"
         id="path138" /><path
         d="m 484.539,201.852 c 0.051,14.734 -0.098,29.55 0.074,44.23 8.461,-0.051 17.004,0.102 25.41,-0.074 -0.05,-14.735 0.102,-29.547 -0.074,-44.231 -8.457,0.051 -17.004,-0.097 -25.41,0.075 z"
         style="fill:#26a269;fill-opacity:1;fill-rule:nonzero;stroke:none"
         id="path140" /><path
         d="m 640.168,201.852 c 0.051,14.734 -0.098,29.55 0.078,44.23 13.285,-0.051 26.652,0.102 39.887,-0.074 -0.051,-14.735 0.097,-29.547 -0.078,-44.231 -13.285,0.051 -26.653,-0.097 -39.887,0.075 z"
         style="fill:#26a269;fill-opacity:1;fill-rule:nonzero;stroke:none"
         id="path142" /><path
         d="m 684.324,201.852 c 0.051,14.734 -0.101,29.55 0.074,44.23 8.461,-0.051 17.004,0.102 25.411,-0.074 -0.051,-14.735 0.101,-29.547 -0.075,-44.231 -8.457,0.051 -17.004,-0.097 -25.41,0.075 z"
         style="fill:#26a269;fill-opacity:1;fill-rule:nonzero;stroke:none"
         id="path144" /><g
         id="g146"
         transform="scale(1,-1)"><path
           d="m 683.391,-280.73 v 113.398 m 21.402,-113.398 h -21.402 m 55.402,-85 V -82.332 M 639.59,-266.531 v 99.199 m -84.996,-99.199 h 84.996 m -84.996,99.199 v -99.199 m -41.203,99.199 V -280.73 m 21.402,0 v -56.7 m 146.098,56.7 v 113.398 m 23.902,-170.098 v 56.7 m -150.199,113.398 h -41.203 m -29.7,56.703 H 710.492 M 513.391,-280.73 h 21.402 m 175.699,-56.7 h -5.699 m -221.102,0 h 5.7 m 170.101,0 H 534.793 m 124.699,56.7 v -56.7 m 21.399,56.7 h -21.399 m 79.301,198.398 H 455.391 m 225.5,-85 H 639.59 M 455.391,-365.73 h 283.402 m -283.402,0 v 283.398 m 255.101,-28.297 V -337.43 M 483.691,-110.629 V -337.43 m 5.7,0 v 56.7 m 0,0 h 21.402 m 0,0 v 113.398 m 0,0 h -11.301 m 0,0 v 39.703 m 0,0 h 195.301 m 0,0 v -39.703 m 0,0 H 683.391 M 554.594,-294.43 h 84.996 m 0,0 v 27.899 m -84.996,-27.899 v 27.899 m -58.801,-14.199 -1,2.101 m 0,0 -4.301,-2.101 m -1.101,-0.5 -5.7,-2.801 m -28.3,-13.899 -63,-30.8 m 0,0 5,-10.2 m 0,0 -25.399,-12.5 m 0,0 -23.801,48.598 m 0,0 56.2,56.102 m 0,45.398 v -45.398 m -56.2,101.5 56.2,-56.102 m -32.399,104.703 -23.801,-48.601 m 49.2,36.101 -25.399,12.5 m 20.399,-22.703 5,10.203 m 97.402,-60.301 -11.102,5.399 m -28.3,13.902 -63,30.797 m 107.101,-40.5 -4.699,-9.598 m 200,9.598 4.699,-9.598 m 0,0 11,5.399 m 28.301,13.902 63,30.797 m 0,0 -5,10.203 m 0,0 25.5,12.5 m 0,0 23.699,-48.601 m 0,0 -56.101,-56.102 m 0,0 v -45.398 m 56.101,-56.102 -56.101,56.102 m 32.402,-104.7 23.699,48.598 m -49.199,-36.098 25.5,-12.5 m -20.5,22.7 -5,-10.2 m -97.301,60.301 4.301,-2.101 m 1,-0.5 5.699,-2.801 m 28.301,-13.899 63,-30.8 m -103.402,48 1.101,2.101 m -59.902,18.199 h 41.301 m 2.5,0 h 24.902 m -7.703,-15.902 7.703,15.902 m 94.598,-66 -64.098,31.399 m -28.301,13.902 -9.902,4.797 m 107.301,-39.898 -5,-10.2 m -64.098,79.2 69.098,-69 m -97.399,69.5 h -27.101 m -2.5,0 H 639.59 m -84.996,0 h -41.203 m -2.598,0 h -27.102 m -28.3,-0.5 -69.098,-69 m 0,0 5,-10.2 m 0,0 64.098,31.399 m 28.3,13.902 10,4.797 m 0,0 -7.8,15.902 m 0,0 h 24.902 m 2.598,0 h 41.203 m -60.903,88.7 -7.8,-15.899 m -94.598,66 64.098,-31.301 m 28.3,-13.902 10,-4.898 m -107.398,40 5,10.101 m 64.098,-79.203 -69.098,69.102 m 324.199,-69.602 h -27.101 m -2.5,0 H 639.59 m -84.996,0 h -41.203 m -2.598,0 h -27.102 m 255.102,0.5 69.098,69.102 m 0,0 -5,10.101 m 0,0 -64.098,-31.301 m -28.301,-13.902 -9.902,-4.898 m 0,0 7.703,-15.899 m -222.402,0 h 24.902 m 2.598,0 h 41.203 m 84.996,0 h 41.301 m 2.5,0 h 24.902 M 554.594,-294.43 h -19.801 m 124.699,0 H 639.59 m -155.899,178.098 h 56.7 m 0,0 v -11.297 m 113.402,0 v 1.891 h 39.793 v -1.891 m -34.094,-194 h -5.699 m 0,0 v 11.297 m 0,0 H 540.391 m 0,0 v -21.398 m 0,0 h -5.598 m -45.402,0 h -5.7 m 56.7,37.3 v -13.402 m 153.101,120.203 v -13.703 m 0,-45.398 v -13.7 m -39.699,-47.402 v 13.402 m -113.402,-13.402 h 113.402 m -170.102,21.5 h 5.7 m 9.203,124.703 h -14.903"
           style="fill:none;stroke:#000000;stroke-width:1.5;stroke-linecap:round;stroke-linejoin:round;stroke-miterlimit:4;stroke-dasharray:none;stroke-opacity:1"
           id="path148" /></g><g
         id="g150"
         transform="scale(1,-1)"><path
           d="m 653.816,-187.738 v -13.391"
           style="fill:none;stroke:#000000;stroke-width:1.5;stroke-linecap:butt;stroke-linejoin:miter;stroke-miterlimit:4;stroke-dasharray:none;stroke-opacity:1"
           id="path152" /></g><g
         id="g154"
         transform="scale(1,-1)"><path
           d="m 653.816,-246.914 v -13.027"
           style="fill:none;stroke:#000000;stroke-width:1.5;stroke-linecap:butt;stroke-linejoin:miter;stroke-miterlimit:4;stroke-dasharray:none;stroke-opacity:1"
           id="path156" /></g><path
         d="m 903.699,135.816 c -0.871,52.493 -0.351,105.051 -0.41,157.539 8.777,4.86 17.375,10.403 26.328,14.762 1.262,-2.445 -0.461,-6.234 1.192,-8.23 1.902,0.976 -1.145,-1.676 -0.289,-2.457 -0.528,-10.989 -0.723,-22.696 0.105,-33.289 23.367,12.953 46.363,26.937 69.711,39.699 -0.031,-22.598 0.035,-45.219 -0.066,-67.797 -23.383,-13.441 -46.766,-26.883 -70.145,-40.324 -0.027,-15.043 0.051,-30.11 -0.039,-45.137 -8.793,-4.875 -17.41,-10.355 -26.387,-14.766 z"
         style="fill:#613583;fill-opacity:1;fill-rule:nonzero;stroke:none"
         id="path158" /><path
         d="m 909.191,130.766 c -1.211,0.996 -4.089,1.695 -4.222,3.367 8.152,5.437 16.73,10.461 25.476,14.797 3.012,-1.426 6.946,-2.922 9.004,-5.317 -8.304,-5.511 -17.125,-10.261 -25.719,-15.269 -1.511,0.804 -3.027,1.613 -4.539,2.422 z"
         style="fill:#613583;fill-opacity:1;fill-rule:nonzero;stroke:none"
         id="path160" /><path
         d="m 957.715,177.984 c -5.113,7.43 -10.996,14.59 -15.535,22.282 18.793,12.296 38.617,23.074 58.172,34.097 3.453,-4.113 7.109,-8.648 9.394,-13.355 -0.031,-4.395 0.043,-8.82 -0.055,-13.196 -17.363,-9.859 -34.636,-20.007 -51.976,-29.828 z"
         style="fill:#613583;fill-opacity:1;fill-rule:nonzero;stroke:none"
         id="path162" /><path
         d="m 1009,225.043 c -2.504,4.074 -6.32,7.727 -8.09,12.043 0.238,22.199 -0.547,44.535 0.641,66.652 7.387,-4.48 15.574,-8.027 22.226,-13.586 1.391,-5.031 0.504,-10.687 1.278,-15.894 0.648,-12.973 1.972,-25.965 2.004,-38.942 -6.024,-3.398 -12.02,-6.992 -18.059,-10.273 z"
         style="fill:#613583;fill-opacity:1;fill-rule:nonzero;stroke:none"
         id="path164" /><path
         d="m 941.574,144.195 c -3.625,1.977 -7.234,4.035 -10.773,6.133 0.058,2.742 -0.149,5.516 0.148,8.242 1.297,-0.441 2.531,-1.41 3.793,-2.058 4.606,-2.739 9.313,-5.364 13.789,-8.282 -2.176,-1.48 -4.578,-2.75 -6.902,-4.035 z"
         style="fill:#613583;fill-opacity:1;fill-rule:nonzero;stroke:none"
         id="path166" /><path
         d="m 952.441,182.926 c -6.996,3.859 -13.894,7.91 -20.726,12.051 -0.317,0.402 0.738,0.632 0.941,0.91 2.489,1.508 4.981,3.101 7.594,4.347 4.246,-5.504 8.309,-11.168 12.289,-16.871 0.106,-0.129 0.152,-0.457 -0.098,-0.437 z"
         style="fill:#613583;fill-opacity:1;fill-rule:nonzero;stroke:none"
         id="path168" /><path
         d="m 930.938,265.473 c -0.254,9.179 -0.133,18.382 -0.106,27.57 0.043,1.445 -0.023,2.914 0.106,4.348 2.808,-1.36 5.531,-3.11 8.296,-4.625 4.918,-2.848 9.907,-5.625 14.778,-8.524 -0.028,-1.875 0.05,-3.781 -0.039,-5.64 -7.649,-4.387 -15.246,-8.864 -22.946,-13.161 z"
         style="fill:#613583;fill-opacity:1;fill-rule:nonzero;stroke:none"
         id="path170" /><path
         d="m 931.051,301.137 c -0.453,0.675 -0.129,1.718 -0.258,2.508 0.066,1.703 -0.156,3.511 0.191,5.16 2.243,-1.188 4.411,-2.559 6.621,-3.821 -1.386,-1.101 -3.25,-1.933 -4.832,-2.914 -0.574,-0.3 -1.121,-0.699 -1.722,-0.933 z"
         style="fill:#613583;fill-opacity:1;fill-rule:nonzero;stroke:none"
         id="path172" /><path
         d="m 954.895,281.449 c -0.086,0.899 -0.02,1.817 -0.043,2.723 0.203,0.219 0.586,0.457 0.867,0.195 0.672,-0.394 1.41,-0.719 2.008,-1.222 0.07,-0.25 -0.352,-0.286 -0.477,-0.43 -0.754,-0.434 -1.5,-0.887 -2.27,-1.289 l -0.062,0.015 z"
         style="fill:#613583;fill-opacity:1;fill-rule:nonzero;stroke:none"
         id="path174" /><path
         d="m 958.152,283.738 c -0.664,0.309 -1.312,0.692 -1.89,1.137 0.008,0.246 0.386,0.305 0.543,0.461 0.457,0.258 0.902,0.57 1.383,0.769 0.113,-0.449 0.031,-0.972 0.066,-1.449 -0.039,-0.293 0.082,-0.652 -0.066,-0.914 l -0.032,-0.004 z"
         style="fill:#613583;fill-opacity:1;fill-rule:nonzero;stroke:none"
         id="path176" /><path
         d="m 954.418,285.379 c -7.465,3.711 -14.785,7.941 -21.586,12.754 5.914,4.363 12.801,7.836 19.125,11.765 19.199,11.18 38.52,22.477 57.781,33.332 0.168,-5.496 0.34,-10.996 0.508,-16.496 2.613,-1.66 5.535,-3.144 7.965,-4.906 -21.078,-12.422 -42.32,-24.613 -63.723,-36.457 z"
         style="fill:#c061cb;fill-opacity:1;fill-rule:nonzero;stroke:none"
         id="path178" /><path
         d="m 930.895,298.91 c -0.102,0.219 0.199,0.445 0.265,0.656 0.067,0.145 0.223,0.325 0.223,0.461 -0.145,-0.039 -0.41,0.114 -0.223,0.254 3.621,2.188 7.309,4.258 10.957,6.387 22.668,13.078 45.317,26.187 68,39.234 0.274,0.09 0.156,-0.355 0.184,-0.507 -0.055,-0.309 0.137,-0.786 -0.278,-0.887 -25.492,-14.711 -50.968,-29.438 -76.464,-44.133 -0.864,-0.492 -1.723,-0.996 -2.598,-1.473 l -0.063,0.008 z"
         style="fill:#c061cb;fill-opacity:1;fill-rule:nonzero;stroke:none"
         id="path180" /><path
         d="m 930.066,159.664 c 0.051,0.469 -0.105,1.031 0.075,1.449 0.597,-0.031 1.058,0.5 1.589,0.703 14.09,8.016 28.094,16.172 42.137,24.262 12.086,6.973 24.149,13.977 36.25,20.906 0.301,-0.066 0.106,-0.574 0.149,-0.804 0.129,-0.645 -0.704,-0.703 -1.078,-1.032 -26.313,-15.171 -52.649,-30.304 -78.95,-45.496 -0.039,-0.043 -0.148,-0.082 -0.172,0.008 z"
         style="fill:#c061cb;fill-opacity:1;fill-rule:nonzero;stroke:none"
         id="path182" /><path
         d="m 948.348,149.391 c -5.649,3.308 -11.34,6.539 -16.946,9.918 -0.062,0.3 0.5,0.359 0.68,0.554 22.875,13.317 45.844,26.477 68.773,39.707 3.094,1.782 6.188,3.563 9.278,5.344 0.273,-0.32 0.035,-1.047 0.121,-1.512 0.055,-5.027 0,-10.07 0.137,-15.086 -0.067,-0.558 0.644,-0.625 0.972,-0.91 0.821,-0.511 1.731,-0.918 2.473,-1.535 -0.344,-0.402 -1,-0.601 -1.457,-0.93 -20.914,-12.093 -41.848,-24.16 -62.77,-36.238 -0.437,0.152 -0.839,0.473 -1.261,0.688 z"
         style="fill:#c061cb;fill-opacity:1;fill-rule:nonzero;stroke:none"
         id="path184" /><path
         d="m 1141.871,225.184 c -2.144,0.054 0.512,3.375 0.465,4.539 1.363,2.211 0.773,5.078 1.957,7.16 2.016,3.277 3.387,7.344 3.465,11.16 -15.977,9.363 -31.719,19.281 -48.348,27.457 -1.773,1.25 -5.176,-1.438 -4.035,2.266 0.027,10.875 -0.059,21.781 0.043,32.636 4.473,1.801 5.555,7.512 8.465,10.946 15.203,25.382 29.746,51.164 44.605,76.75 -2.621,4.668 -5.3,9.351 -7.746,14.09 5.735,6.031 10.688,13.32 17.145,18.429 5.523,-9.129 10.668,-18.519 15.89,-27.805 -13.3,-23.003 -26.597,-46.003 -39.894,-69.007 0.121,-12.465 0.246,-24.93 0.367,-37.395 12.922,-7.582 26.227,-14.976 38.945,-22.613 -4.539,-16.25 -10.472,-32.125 -15.843,-48.09 -5.161,-0.191 -10.317,-0.547 -15.481,-0.523 z"
         style="fill:#26a269;fill-opacity:1;fill-rule:nonzero;stroke:none"
         id="path186" /><path
         d="m 1173.277,217.059 c -5.129,2.136 -9.832,5.32 -14.601,8.078 5.512,15.672 10.512,31.679 16.347,47.14 4.532,-1.004 8.348,-4.621 12.571,-6.597 3.836,-1.852 -0.258,-6.192 -0.465,-8.953 -4.586,-13.204 -8.844,-26.739 -13.852,-39.668 z"
         style="fill:#26a269;fill-opacity:1;fill-rule:nonzero;stroke:none"
         id="path188" /><path
         d="m 1150.297,326.176 c -4.906,2.465 -9.68,5.355 -14.332,8.176 13.043,22.355 25.629,45.253 39.121,67.183 4.91,-2.617 9.793,-5.457 14.492,-8.336 -13.094,-22.316 -25.523,-45.125 -39.195,-67.043 z"
         style="fill:#26a269;fill-opacity:1;fill-rule:nonzero;stroke:none"
         id="path190" /><path
         d="m 1149.984,289.258 c -5.039,2.566 -9.922,5.492 -14.796,8.324 0.304,11.594 -0.645,23.645 0.656,35.004 4.89,-2.875 9.855,-5.684 14.695,-8.617 -0.211,-11.539 0.457,-23.324 -0.48,-34.731 z"
         style="fill:#26a269;fill-opacity:1;fill-rule:nonzero;stroke:none"
         id="path192" /><path
         d="m 1187.621,396.465 c -4.383,2.148 -9.078,4.41 -12.773,7.445 -4.45,8.649 -10.297,16.762 -13.907,25.758 4.243,-1.41 8.301,-4.715 12.387,-6.875 4.633,-8.719 10.496,-17.535 14.293,-26.328 z"
         style="fill:#26a269;fill-opacity:1;fill-rule:nonzero;stroke:none"
         id="path194" /><path
         d="m 1155.695,216.086 c -3.406,2.539 -8.468,4.016 -10.906,7.469 3.984,1.273 8.793,0.902 12.902,-0.012 4.407,-1.953 8.743,-4.613 12.68,-7.055 -4.891,-0.129 -9.785,-0.289 -14.676,-0.402 z"
         style="fill:#26a269;fill-opacity:1;fill-rule:nonzero;stroke:none"
         id="path196" /><path
         d="m 839.801,43.488 c -6.113,8.395 -11.321,17.672 -15.832,27.047 12.183,23.383 26.074,45.961 39.074,68.938 -0.129,12.597 -0.258,25.195 -0.387,37.789 -13.066,7.562 -26.265,15.015 -39.254,22.648 5.563,16.07 10.922,32.258 16.723,48.215 5.18,-0.34 10.848,0.672 15.805,-0.695 -0.797,-3.375 -2.465,-6.946 -2.598,-10.258 -2.449,-2.438 -2.926,-6.68 -4.066,-9.93 -0.664,-3.359 4.699,-3.551 6.363,-5.492 4.648,-2.723 9.391,-5.336 14.004,-8.082 0,-34.035 0.023,-68.07 0.004,-102.102 -6.965,-12.035 -13.93,-24.07 -20.895,-36.105 2.09,-4.566 5.446,-8.762 7.149,-13.41 -3.508,-6.446 -9.293,-11.52 -14.149,-16.992 -0.621,-0.5 -1.164,-1.317 -1.941,-1.571 z"
         style="fill:#26a269;fill-opacity:1;fill-rule:nonzero;stroke:none"
         id="path198" /><path
         d="m 854.957,33.012 c -4.922,2.406 -9.703,5.336 -14.309,8.172 5.883,6.054 10.633,13.445 17.278,18.66 3.394,-0.489 6.176,-3.719 9.414,-4.946 1,-1.195 5.988,-2.207 3.531,-4.289 -5.137,-5.941 -10.16,-12.382 -15.914,-17.597 z"
         style="fill:#26a269;fill-opacity:1;fill-rule:nonzero;stroke:none"
         id="path200" /><path
         d="m 872.297,53.281 c -4.887,2.774 -9.731,5.633 -14.598,8.446 -0.926,1.574 -1.867,3.156 -2.746,4.753 0.09,0.29 0.43,-0.105 0.586,-0.136 4.731,-2.676 9.457,-5.367 14.168,-8.082 0.895,-1.637 1.844,-3.242 2.691,-4.903 0.016,-0.058 -0.054,-0.097 -0.101,-0.078 z"
         style="fill:#26a269;fill-opacity:1;fill-rule:nonzero;stroke:none"
         id="path202" /><path
         d="m 853.086,69.816 c -0.871,1.426 -1.699,2.887 -2.477,4.368 -0.011,0.296 0.34,0.05 0.461,-0.02 1.313,-0.738 2.645,-1.449 3.903,-2.273 -0.09,-0.344 -0.457,-0.579 -0.661,-0.871 -0.386,-0.407 -0.726,-0.875 -1.167,-1.223 z"
         style="fill:#26a269;fill-opacity:1;fill-rule:nonzero;stroke:none"
         id="path204" /><path
         d="m 865.027,217.637 c -4.992,2.902 -10.097,5.722 -15,8.715 1.102,3.078 2.055,6.246 3.246,9.269 0.915,-0.031 1.668,-0.945 2.52,-1.25 4.246,-2.461 8.621,-4.812 12.781,-7.351 -0.969,-3.196 -2.023,-6.403 -3.297,-9.481 -0.097,-0.023 -0.168,0.055 -0.25,0.098 z"
         style="fill:#26a269;fill-opacity:1;fill-rule:nonzero;stroke:none"
         id="path206" /><path
         d="m 855.238,239.117 c -0.582,-0.164 -0.91,0.125 -0.554,0.66 0.984,2.852 1.777,5.797 3.019,8.543 0.664,0.032 1.332,-0.742 1.988,-0.972 3.422,-1.993 6.891,-3.953 10.262,-6.008 0.008,-0.992 0.563,-2.602 -1.055,-2.11 -4.55,-0.042 -9.105,-0.117 -13.66,-0.113 z"
         style="fill:#26a269;fill-opacity:1;fill-rule:nonzero;stroke:none"
         id="path208" /><path
         d="m 869.562,227.582 c -3.98,1.98 -7.804,4.273 -11.671,6.469 -0.95,0.605 -2.028,1.078 -2.879,1.797 0.121,0.386 0.781,0.125 1.09,0.226 4.609,0.098 9.218,0.106 13.824,0.231 0.179,-1.602 0.027,-3.348 0.078,-5.004 -0.051,-1.227 0.101,-2.543 -0.074,-3.719 -0.121,0 -0.246,-0.004 -0.368,0 z"
         style="fill:#8ff0a4;fill-opacity:1;fill-rule:nonzero;stroke:none"
         id="path210" /><path
         d="m 853.25,236.875 c 0.137,0.414 -0.059,1.121 0.336,1.395 5.441,0.242 10.894,0.183 16.34,0.335 0.066,-0.574 0.433,-1.972 -0.637,-1.652 -5.32,-0.09 -10.641,-0.18 -15.965,-0.16 z"
         style="fill:#8ff0a4;fill-opacity:1;fill-rule:nonzero;stroke:none"
         id="path212" /><path
         d="m 869.746,59.148 c -5.055,2.715 -10.023,5.622 -14.894,8.653 -0.04,0.566 0.804,1.047 1.082,1.562 4.543,5.325 9.128,10.621 13.855,15.782 0.414,-0.321 0.117,-1.239 0.242,-1.754 0.031,-1.438 0.016,-2.879 0.028,-4.317 3.839,-2.211 7.679,-4.418 11.519,-6.625 -1.789,-2.34 -3.984,-4.558 -5.93,-6.855 -1.964,-2.133 -3.769,-4.481 -5.875,-6.453 z"
         style="fill:#8ff0a4;fill-opacity:1;fill-rule:nonzero;stroke:none"
         id="path214" /><path
         d="m 855.504,72.516 c -1.774,0.945 -3.606,1.851 -5.231,3.043 -0.222,0.418 0.461,0.839 0.532,1.246 6.289,10.898 12.515,21.84 18.949,32.652 0.351,-0.012 0.086,-0.711 0.184,-0.969 0.097,-6.515 0.074,-13.039 0.046,-19.547 -4.824,-5.468 -9.601,-11 -14.457,-16.429 z"
         style="fill:#26a269;fill-opacity:1;fill-rule:nonzero;stroke:none"
         id="path216" /><path
         d="m 853.297,67.246 c -1.184,2.035 -2.434,4.027 -3.559,6.094 -0.363,0.687 -0.734,1.379 -1.043,2.094 0.043,0.187 0.188,0.339 0.266,0.515 4.355,7.543 8.715,15.086 13.086,22.621 0.094,0.141 0.293,0.078 0.433,0.082 0.122,-0.011 0.102,-0.152 0.036,-0.214 -4.211,-7.317 -8.454,-14.614 -12.653,-21.934 -0.195,-0.367 -0.425,-0.723 -0.601,-1.094 0.019,-0.199 0.176,-0.351 0.25,-0.531 1.097,-1.984 2.191,-3.973 3.304,-5.949 0.098,-0.149 0.356,-0.157 0.446,0.004 2.226,2.488 4.422,5.007 6.629,7.511 3.339,3.801 6.675,7.606 10.023,11.399 0.113,0.078 0.16,-0.078 0.145,-0.164 0.007,-0.348 0.015,-0.703 0,-1.051 -0.329,-0.41 -0.696,-0.797 -1.039,-1.199 -5.122,-5.84 -10.258,-11.664 -15.36,-17.516 -0.176,-0.144 -0.066,-0.387 0.035,-0.531 0.117,-0.156 -0.105,-0.18 -0.215,-0.156 -0.062,0.003 -0.128,-0.016 -0.183,0.019 z"
         style="fill:#8ff0a4;fill-opacity:1;fill-rule:nonzero;stroke:none"
         id="path218" /><path
         d="m 1095.375,225.324 c 0.051,2.821 -0.102,5.723 0.074,8.488 15.672,0.184 31.481,0.422 47.071,0.282 -1.032,-2.594 -1.575,-5.551 -2.922,-7.949 -11.575,-0.817 -23.223,-0.5 -34.828,-0.786 -3.122,0.016 -6.329,-0.175 -9.395,-0.035 z"
         style="fill:#8ff0a4;fill-opacity:1;fill-rule:nonzero;stroke:none"
         id="path220" /><path
         d="m 1095.195,234.691 c 0.051,0.532 -0.101,1.145 0.075,1.625 15.687,0.098 31.375,0.414 47.062,0.524 0.586,-0.063 1.246,0.101 1.801,-0.117 0.035,-0.383 -0.278,-0.778 -0.336,-1.168 -0.039,-0.723 -0.899,-0.336 -1.367,-0.442 -15.719,-0.16 -31.442,-0.308 -47.16,-0.496 z"
         style="fill:#8ff0a4;fill-opacity:1;fill-rule:nonzero;stroke:none"
         id="path222" /><path
         d="m 1095.293,321.715 c -0.129,2.461 -0.059,4.945 -0.094,7.418 0,6.285 -0.027,12.586 0.012,18.867 16.262,18.559 32.48,37.156 48.785,55.68 0.313,-0.02 0.359,-0.539 0.566,-0.742 0.895,-1.594 1.821,-3.176 2.626,-4.817 -2.137,-3.879 -4.407,-7.703 -6.602,-11.555 -7.535,-13.078 -15.09,-26.148 -22.641,-39.214 -7.511,-8.547 -14.98,-17.137 -22.543,-25.641 l -0.09,0.004 z"
         style="fill:#8ff0a4;fill-opacity:1;fill-rule:nonzero;stroke:none"
         id="path224" /><path
         d="m 1095.223,349.105 c -0.106,0.149 -0.032,0.372 -0.055,0.547 0.023,0.235 -0.043,0.496 0.051,0.711 7.508,8.578 15.015,17.153 22.523,25.727 0.348,0.058 0.719,0.012 1.078,0.027 0.188,-0.109 -0.121,-0.277 -0.183,-0.398 -7.742,-8.832 -15.465,-17.68 -23.227,-26.496 -0.055,-0.047 -0.098,-0.153 -0.183,-0.118 v 0 z"
         style="fill:#8ff0a4;fill-opacity:1;fill-rule:nonzero;stroke:none"
         id="path226" /><path
         d="m 1095.598,256.504 c -0.403,5.652 -0.18,11.398 -0.188,17.058 1.332,0.836 3.008,2.29 4.485,0.77 4.382,-2.434 8.89,-4.75 12.996,-7.613 -5.45,-3.688 -11.344,-6.965 -17.125,-10.203 -0.055,-0.02 -0.114,-0.059 -0.168,-0.012 z"
         style="fill:#26a269;fill-opacity:1;fill-rule:nonzero;stroke:none"
         id="path228" /><path
         d="m 1029.188,236.918 c -1.465,1.707 -0.571,4.707 -1.129,6.816 -0.504,8.981 -1.426,18.032 -1.149,27.004 7.504,4.532 15.152,9.25 22.891,13.145 0.656,-11.695 0.289,-23.473 0.336,-35.172 -6.996,-3.867 -13.782,-8.328 -20.949,-11.793 z"
         style="fill:#26a269;fill-opacity:1;fill-rule:nonzero;stroke:none"
         id="path230" /><path
         d="m 1025.594,282.637 c -0.364,2.922 -0.332,5.894 -0.711,8.812 -4.934,2.992 -10.039,5.699 -14.891,8.824 -0.058,0.364 0.715,0.461 0.938,0.719 7.328,4.262 14.691,8.469 22.039,12.703 0.664,-0.105 1.293,-1.019 1.933,-0.769 5.11,2.906 10.188,5.871 15.328,8.719 0.297,-0.27 0.043,-0.907 0.141,-1.301 0.07,-7.836 0,-15.672 -0.01,-23.504 -5.902,-3.504 -11.922,-6.891 -17.871,-10.34 -2.269,-1.297 -4.527,-2.613 -6.808,-3.887 l -0.09,0.024 z"
         style="fill:#26a269;fill-opacity:1;fill-rule:nonzero;stroke:none"
         id="path232" /><path
         d="m 976.512,291.691 c -0.317,0.11 -0.942,0.321 -0.887,0.715 2.293,1.559 4.797,2.805 7.168,4.242 13.25,7.625 26.426,15.379 39.766,22.844 0.445,0.188 0.855,-0.406 1.273,-0.512 2.77,-1.57 5.566,-3.105 8.273,-4.777 -0.312,-0.484 -1.105,-0.652 -1.57,-1.031 -7.172,-4.168 -14.355,-8.32 -21.558,-12.43 -2.786,1.446 -5.418,3.281 -8.286,4.59 -0.832,-0.219 -1.589,-0.855 -2.39,-1.227 -7.289,-4.078 -14.465,-8.371 -21.766,-12.417 z"
         style="fill:#26a269;fill-opacity:1;fill-rule:nonzero;stroke:none"
         id="path234" /><path
         d="m 974.895,290.641 c -0.079,0.121 -0.02,0.289 -0.043,0.425 0.011,0.219 -0.024,0.45 0.023,0.664 0.125,0.055 0.238,-0.101 0.355,-0.136 0.196,-0.114 0.399,-0.215 0.586,-0.332 0.094,-0.125 -0.113,-0.184 -0.183,-0.246 -0.227,-0.133 -0.442,-0.286 -0.684,-0.387 -0.015,0.004 -0.035,0.008 -0.054,0.012 z"
         style="fill:#26a269;fill-opacity:1;fill-rule:nonzero;stroke:none"
         id="path236" /><path
         d="m 931.629,163.18 c -0.285,0.789 -0.09,1.75 -0.176,2.593 -0.039,9.161 -0.09,18.325 0.055,27.485 0.609,-0.043 1.187,-0.664 1.781,-0.899 6.766,-3.859 13.504,-7.765 20.25,-11.652 0.063,-1.609 0.066,-3.289 0,-4.898 -7.305,-4.2 -14.594,-8.477 -21.91,-12.629 z"
         style="fill:#613583;fill-opacity:1;fill-rule:nonzero;stroke:none"
         id="path238" /><path
         d="m 1011.598,328.254 c -0.75,5.445 0.207,11.133 -0.719,16.566 -0.734,0.887 0.578,1.969 0.262,2.996 0.359,5.387 0.183,10.817 0.367,16.196 12.914,7.386 25.726,15.054 38.73,22.215 0.496,-11.84 0.059,-23.754 0.11,-35.622 -12.864,-7.492 -25.743,-15.128 -38.75,-22.351 z"
         style="fill:#613583;fill-opacity:1;fill-rule:nonzero;stroke:none"
         id="path240" /><path
         d="m 1023.473,320.223 c -3.715,2.234 -7.614,4.246 -11.114,6.793 7.7,5.093 15.969,9.535 23.95,14.269 4.523,2.492 9.05,5.457 13.597,7.625 0.446,-8.746 0.219,-17.547 0.219,-26.289 -5.172,-2.918 -10.328,-5.926 -15.504,-8.809 -3.715,2.137 -7.433,4.274 -11.148,6.411 z"
         style="fill:#613583;fill-opacity:1;fill-rule:nonzero;stroke:none"
         id="path242" /><path
         d="m 1011.473,189.395 c -0.258,5.386 0.261,10.914 -0.539,16.226 -0.985,0.387 -0.77,1.441 0.043,1.848 0.695,5.785 0.101,11.742 0.363,17.562 12.965,7.391 25.828,15.082 38.898,22.231 0.469,-11.844 0.11,-23.782 0.071,-35.637 -12.907,-7.43 -25.817,-14.863 -38.723,-22.297 z"
         style="fill:#613583;fill-opacity:1;fill-rule:nonzero;stroke:none"
         id="path244" /><path
         d="m 1014.484,186.719 c -0.867,0.031 -2.918,1.515 -1.445,2.172 12.215,7.148 24.445,14.359 36.852,21.117 0.402,-0.942 0.41,-2.66 -0.254,-3.36 -11.688,-6.64 -23.172,-13.679 -35.067,-19.933 z"
         style="fill:#613583;fill-opacity:1;fill-rule:nonzero;stroke:none"
         id="path246" /><path
         d="m 90.113,172.938 c 0.035,30.523 -0.09,61.05 0.117,91.578 0.805,-0.075 1.668,-0.911 2.489,-1.258 7.031,-4.047 14.105,-8.07 21.07,-12.192 -0.004,-21.543 -0.008,-43.086 -0.012,-64.628 -7.797,-4.575 -15.695,-9.059 -23.55,-13.567 z"
         style="fill:#62a0ea;fill-opacity:1;fill-rule:nonzero;stroke:none"
         id="path248" /><path
         d="m 80.609,134.934 c -0.379,1.269 -0.117,2.742 -0.222,4.078 -0.012,9.234 -0.02,18.496 0.082,27.718 2.793,1.633 5.593,3.305 8.457,4.774 3.363,2.254 7.012,4.055 10.472,6.152 6.672,3.891 13.426,7.653 20.032,11.653 0,26.976 0,53.957 0,80.933 16.504,9.641 33.117,19.18 49.679,28.75 3.254,1.867 6.496,3.754 9.762,5.59 0.328,-0.582 0.043,-1.543 0.152,-2.25 0.204,-25.867 -0.046,-51.734 0.231,-77.602 -0.09,-0.675 0.023,-1.07 0.656,-0.48 9.656,5.383 19.152,11.059 28.84,16.379 1.496,0.578 2.609,1.812 4.07,2.488 1.746,1.031 3.481,2.082 5.274,3.028 0.258,-1.887 0.035,-4.043 0.109,-6.036 -0.031,-8.621 0.043,-17.265 -0.051,-25.867 -45.847,-26.41 -91.636,-52.941 -137.504,-79.312 z"
         style="fill:#1a5fb4;fill-opacity:1;fill-rule:nonzero;stroke:none"
         id="path250" /><path
         d="m 179.848,224.723 c -0.407,0.879 -0.145,2.023 -0.258,2.988 -0.16,25.805 -0.047,51.609 -0.078,77.414 1.336,6.621 2.562,13.277 3.98,19.879 0.387,0.539 1.051,-0.551 1.508,-0.57 7.441,-4.309 14.953,-8.543 22.348,-12.899 -0.039,-9.004 0.082,-18.015 -0.051,-27.015 -1.016,-15.211 -1.883,-30.43 -3.016,-45.629 -0.488,-0.832 -1.789,-1.09 -2.574,-1.707 -7.277,-4.153 -14.508,-8.414 -21.832,-12.469 z"
         style="fill:#1a5fb4;fill-opacity:1;fill-rule:nonzero;stroke:none"
         id="path252" /><path
         d="m 119.766,271.043 c -0.289,0.789 0.214,1.781 0.246,2.617 1.101,5.703 2.187,11.422 3.343,17.106 19.821,11.422 39.614,22.898 59.465,34.261 0.293,-0.41 -0.175,-1.195 -0.152,-1.718 -1.109,-5.84 -2.215,-11.688 -3.445,-17.5 -0.27,-1.036 -1.653,-1.121 -2.352,-1.774 -19,-11.039 -37.992,-22.094 -57.07,-32.996 z"
         style="fill:#1a5fb4;fill-opacity:1;fill-rule:nonzero;stroke:none"
         id="path254" /><path
         d="m 229.184,208.191 c -3.551,1.989 -7.114,4.02 -10.586,6.114 0,10.59 0,21.179 0,31.769 1.504,-0.512 2.984,-1.664 4.472,-2.429 2.078,-1.235 4.231,-2.403 6.266,-3.684 -0.004,-10.578 0.144,-21.16 -0.012,-31.734 l -0.101,-0.051 z"
         style="fill:#1a5fb4;fill-opacity:1;fill-rule:nonzero;stroke:none"
         id="path256" /><path
         d="m 92.309,127.91 c -2.864,0.981 -5.34,2.902 -8.008,4.32 -0.981,0.739 -2.481,1.223 -3.164,2.157 8.172,5.226 16.754,9.797 25.097,14.738 37.403,21.555 74.719,43.254 112.207,64.652 3.586,-2.066 7.375,-3.945 10.692,-6.453 0.191,-0.66 -1.149,-0.867 -1.485,-1.316 -14.187,-8.524 -28.644,-16.598 -42.945,-24.938 -30.73,-17.703 -61.422,-35.5 -92.18,-53.144 -0.07,-0.016 -0.144,-0.02 -0.214,-0.016 z"
         style="fill:#1a5fb4;fill-opacity:1;fill-rule:nonzero;stroke:none"
         id="path258" /><path
         d="m 229.211,240.586 c -3.641,2 -7.168,4.226 -10.859,6.125 -2.633,-1.324 -5.122,-2.934 -7.719,-4.332 -0.289,1.16 -0.039,2.609 -0.133,3.871 -0.039,28.027 -0.109,56.055 0.027,84.082 0.094,1.242 -0.113,2.574 0.231,3.762 3.062,-1.59 6.078,-3.485 9.117,-5.188 3.145,-1.847 6.363,-3.617 9.461,-5.511 0.004,-27.586 0.117,-55.176 0.016,-82.762 l -0.106,-0.063 z"
         style="fill:#62a0ea;fill-opacity:1;fill-rule:nonzero;stroke:none"
         id="path260" /><path
         d="m 208.965,241.738 c -0.223,23.996 -0.106,47.992 -0.141,71.989 0.028,6.535 -0.051,13.101 0.039,19.621 0.364,0.132 1.434,1.039 1.262,0.062 0.203,-30.359 0.086,-60.722 0.117,-91.086 -0.355,-0.211 -0.875,-0.59 -1.277,-0.586 z"
         style="fill:#62a0ea;fill-opacity:1;fill-rule:nonzero;stroke:none"
         id="path262" /><path
         d="m 88.441,172.398 c -0.222,24.313 -0.105,48.633 -0.136,72.946 0.023,6.113 -0.051,12.25 0.035,18.347 1.297,1.262 1.469,0.157 1.293,-1.16 0.012,-29.785 0.097,-59.586 0.066,-89.359 -0.379,-0.168 -0.808,-0.899 -1.258,-0.774 z"
         style="fill:#62a0ea;fill-opacity:1;fill-rule:nonzero;stroke:none"
         id="path264" /><path
         d="m 326.035,224.844 c -2.113,0.242 -4.683,-0.332 -6.57,0.605 2.121,7.453 5.863,14.586 6.851,22.301 -16.062,9.992 -32.668,19.133 -49.004,28.691 -3.652,-3.57 -3.796,-0.484 -3.402,3.153 0.028,10.367 -0.051,20.765 0.043,31.113 4.586,1.93 5.961,7.375 8.75,11.047 14.836,25.434 29.742,50.848 43.895,76.668 -1.653,4.941 -5.453,9 -7.012,13.937 5.445,6.59 10.992,13.403 16.992,19.36 5.598,-9.281 11.098,-18.715 16.043,-28.336 -8.621,-17.051 -18.73,-33.336 -28.133,-49.973 -3.582,-6.551 -7.863,-12.918 -11.015,-19.582 0,-12.363 0,-24.726 0,-37.09 13.113,-7.734 26.609,-14.988 39.41,-23.168 -5.363,-16.211 -10.961,-32.441 -16.485,-48.543 -3.445,-0.254 -6.914,-0.172 -10.363,-0.183 z"
         style="fill:#26a269;fill-opacity:1;fill-rule:nonzero;stroke:none"
         id="path266" /><path
         d="m 328.969,288.84 c -4.934,2.68 -9.805,5.523 -14.625,8.367 0.148,11.895 -0.313,23.992 0.304,35.773 4.957,-2.66 9.848,-5.511 14.692,-8.343 -0.082,-11.922 0.183,-23.867 -0.219,-35.782 l -0.094,-0.035 z"
         style="fill:#26a269;fill-opacity:1;fill-rule:nonzero;stroke:none"
         id="path268" /><path
         d="m 352.449,216.238 c -5.137,2.664 -10.355,5.489 -15.051,8.817 5.297,15.84 10.45,31.761 16.215,47.425 1.063,1.536 2.821,-1.144 4.063,-1.296 3.816,-2.184 7.734,-4.301 11.453,-6.579 -5.594,-16.082 -10.82,-32.507 -16.68,-48.367 z"
         style="fill:#26a269;fill-opacity:1;fill-rule:nonzero;stroke:none"
         id="path270" /><path
         d="m 329.395,326.094 c -5.286,2.07 -10.231,5.222 -14.915,8.371 13.047,22.566 25.875,45.293 39.375,67.594 4.934,-2.602 10.211,-5.125 14.536,-8.727 0.097,-1.906 -2.063,-3.629 -2.672,-5.457 -11.852,-20.598 -23.551,-41.328 -35.77,-61.691 -0.164,-0.102 -0.367,-0.11 -0.554,-0.09 z"
         style="fill:#26a269;fill-opacity:1;fill-rule:nonzero;stroke:none"
         id="path272" /><path
         d="m 367.805,395.371 c -4.805,2.586 -9.864,5.156 -14.203,8.324 -5,9.11 -10.52,18.141 -15.141,27.344 4.926,-1.937 9.367,-5.238 14.055,-7.754 5.062,-9.301 10.769,-18.508 15.355,-27.922 h -0.031 z"
         style="fill:#26a269;fill-opacity:1;fill-rule:nonzero;stroke:none"
         id="path274" /><path
         d="m 334.852,215.629 c -4.192,2.648 -9.102,4.66 -12.813,7.844 4.09,1.429 8.785,0.57 13.082,0.98 3.625,-0.687 6.703,-3.551 10.086,-5.152 1.422,-1.113 3.914,-1.844 4.813,-3.262 -4.954,-0.812 -10.161,-0.242 -15.168,-0.41 z"
         style="fill:#26a269;fill-opacity:1;fill-rule:nonzero;stroke:none"
         id="path276" /><path
         d="m 274.289,256.242 c -0.695,5.688 -0.269,11.531 -0.344,17.254 1.512,1.082 3.664,2.813 5.34,0.899 4.246,-2.68 9.133,-4.911 13.043,-7.836 -6.004,-3.43 -12,-7.047 -18.039,-10.317 z"
         style="fill:#26a269;fill-opacity:1;fill-rule:nonzero;stroke:none"
         id="path278" /><path
         d="m 114.441,186.918 c -0.394,8.121 -0.152,16.328 -0.226,24.477 0.023,2.394 -0.051,4.808 0.035,7.183 1.551,0.793 3.086,2.063 4.656,2.613 0.09,-10.578 0.094,-21.187 0.028,-31.746 -1.5,-0.828 -2.977,-1.765 -4.493,-2.527 z"
         style="fill:#26a269;fill-opacity:1;fill-rule:nonzero;stroke:none"
         id="path280" /><path
         d="m 204.977,239.363 c -0.094,3.641 0.386,7.442 0.531,11.133 0.547,7.129 0.73,14.301 1.633,21.391 -0.008,0.621 1.32,1.277 1.004,0.172 0.214,-10.364 0.156,-20.758 0.105,-31.102 -1.082,-0.512 -2.098,-1.324 -3.273,-1.594 z"
         style="fill:#26a269;fill-opacity:1;fill-rule:nonzero;stroke:none"
         id="path282" /><path
         d="m 17.969,41.898 c -5.742,9.438 -11.184,19.094 -16.356,28.86 13.133,22.945 26.438,45.836 39.641,68.758 0,12.398 0,24.796 0,37.195 -13.234,7.68 -26.598,15.246 -39.75,22.996 5.586,16.277 11.058,32.637 16.719,48.863 5.765,0.035 11.672,0.297 17.351,0.278 -2.547,-7.578 -5.441,-15.094 -7.484,-22.805 6.598,-4.348 13.633,-8.039 20.371,-12.133 0.055,-34.183 0.137,-68.371 0.172,-102.555 -6.821,-11.996 -14,-23.843 -20.52,-35.98 1.817,-4.992 5.055,-9.383 7.461,-14.07 C 29.723,54.844 24.297,47.926 18.031,41.879 Z"
         style="fill:#26a269;fill-opacity:1;fill-rule:nonzero;stroke:none"
         id="path284" /><path
         d="m 33.75,32.023 c -5.137,2.829 -10.34,5.774 -15.273,8.817 5.902,6.613 11.597,13.492 17.679,19.898 5.153,-2.851 10.387,-5.793 15.34,-8.851 C 45.594,45.277 39.914,38.398 33.812,32.004 Z"
         style="fill:#26a269;fill-opacity:1;fill-rule:nonzero;stroke:none"
         id="path286" /><path
         d="m 50.539,53.438 c -4.91,2.507 -9.609,5.421 -14.394,8.156 -0.614,1.5 -2.047,3.008 -2.196,4.578 4.805,-2.656 9.821,-5.121 14.246,-8.395 1.032,-1.226 2.114,-2.879 2.371,-4.343 z"
         style="fill:#26a269;fill-opacity:1;fill-rule:nonzero;stroke:none"
         id="path288" /><path
         d="m 31.664,69.383 c -0.512,0.726 -0.898,1.566 -1.359,2.336 -0.52,0.957 -1.098,1.89 -1.567,2.863 0.149,0.195 0.407,-0.113 0.582,-0.16 1.481,-0.863 3.016,-1.66 4.43,-2.629 0.074,-0.231 -0.27,-0.398 -0.363,-0.59 C 32.84,70.59 32.32,69.938 31.711,69.387 l -0.043,-0.004 z"
         style="fill:#26a269;fill-opacity:1;fill-rule:nonzero;stroke:none"
         id="path290" /><path
         d="m 34.027,72.055 c -1.886,1.047 -3.757,2.133 -5.593,3.265 0.136,0.492 0.515,0.926 0.738,1.399 6.375,11.066 12.734,22.136 19.144,33.183 0.102,0.106 0.246,0.536 0.411,0.317 0.093,-5.231 0.043,-10.461 0.058,-15.696 -0.015,-1.918 0.024,-3.851 -0.019,-5.765 -4.887,-5.563 -9.739,-11.16 -14.661,-16.692 -0.023,0.039 -0.054,-0.027 -0.078,-0.011 z"
         style="fill:#26a269;fill-opacity:1;fill-rule:nonzero;stroke:none"
         id="path292" /><path
         d="m 43.957,217.117 c -5.187,2.969 -10.363,5.957 -15.523,8.973 -0.082,0.297 0.171,0.629 0.214,0.933 0.981,2.977 1.969,5.957 3.012,8.918 0.074,0.293 0.371,0.145 0.528,0.016 5.113,-2.922 10.21,-5.859 15.273,-8.863 0.094,-0.274 -0.168,-0.586 -0.207,-0.867 -1.039,-3.036 -2.063,-6.079 -3.184,-9.086 -0.019,-0.039 -0.082,-0.036 -0.113,-0.024 z"
         style="fill:#26a269;fill-opacity:1;fill-rule:nonzero;stroke:none"
         id="path294" /><path
         d="m 32.918,238.891 c -0.356,-0.039 -0.074,0.386 -0.047,0.558 1.031,3.121 2.059,6.242 3.176,9.332 0.265,0.047 0.515,-0.261 0.773,-0.355 3.973,-2.262 7.93,-4.551 11.895,-6.828 0.097,-0.789 0.035,-1.629 0.07,-2.438 -0.277,-0.183 -0.746,-0.035 -1.097,-0.094 -4.922,-0.086 -9.844,-0.156 -14.77,-0.175 z"
         style="fill:#26a269;fill-opacity:1;fill-rule:nonzero;stroke:none"
         id="path296" /><path
         d="m 48.281,227.355 c -4.82,2.395 -9.453,5.172 -14.086,7.915 -0.222,0.179 -1.273,0.589 -0.625,0.859 2.844,0.332 5.75,0.113 8.618,0.211 2.199,-0.043 4.484,0.121 6.636,-0.047 -0.051,-2.969 0.098,-6.023 -0.078,-8.941 -0.156,0.003 -0.312,0 -0.465,0 z"
         style="fill:#8ff0a4;fill-opacity:1;fill-rule:nonzero;stroke:none"
         id="path298" /><path
         d="m 32.5,236.652 c -0.621,0.055 0.133,0.973 0.113,1.332 0.325,1.137 2.032,0.317 2.953,0.594 4.395,0.067 8.786,0.106 13.18,0.145 0.27,-1.063 0.238,-2.414 -1.266,-1.922 -4.992,-0.051 -9.984,-0.141 -14.98,-0.149 z"
         style="fill:#8ff0a4;fill-opacity:1;fill-rule:nonzero;stroke:none"
         id="path300" /><path
         d="m 273.973,225.348 c 0.05,2.906 -0.098,5.894 0.074,8.75 15.73,0.011 31.469,0.492 47.195,0.164 0.82,-0.422 -0.609,-2.074 -0.523,-2.848 -0.86,-1.75 -0.907,-4.551 -2.27,-5.672 -14.812,-0.304 -29.711,-0.629 -44.476,-0.394 z"
         style="fill:#8ff0a4;fill-opacity:1;fill-rule:nonzero;stroke:none"
         id="path302" /><path
         d="m 273.793,234.5 c 0.059,0.621 -0.113,1.328 0.109,1.914 15.731,0.219 31.465,0.43 47.2,0.602 0.46,-0.047 0.98,0.086 1.414,-0.067 -0.094,-0.637 -0.395,-1.254 -0.563,-1.883 -1.656,-0.175 -3.387,-0.101 -5.074,-0.156 -14.336,-0.187 -28.672,-0.316 -43.012,-0.484 z"
         style="fill:#8ff0a4;fill-opacity:1;fill-rule:nonzero;stroke:none"
         id="path304" /><path
         d="m 274.176,321.75 c -0.414,4.664 -0.18,9.461 -0.266,14.172 0.012,4.062 -0.027,8.133 0.02,12.191 16.261,18.473 32.277,37.176 48.82,55.407 0.609,0.421 0.902,-1.028 1.289,-1.332 0.754,-1.293 1.527,-2.606 2.184,-3.938 -9.785,-16.902 -19.461,-33.887 -29.321,-50.742 -7.547,-8.582 -14.98,-17.274 -22.648,-25.75 l -0.074,-0.012 z"
         style="fill:#8ff0a4;fill-opacity:1;fill-rule:nonzero;stroke:none"
         id="path306" /><path
         d="m 273.91,348.922 c -0.254,0.433 -0.031,1.039 -0.047,1.516 16.047,18.335 32.071,36.695 48.145,55.011 0.367,-0.047 0.39,-0.715 0.633,-0.957 -2.75,-3.308 -5.696,-6.531 -8.52,-9.808 -13.367,-15.254 -26.68,-30.551 -40.105,-45.75 -0.032,-0.028 -0.071,-0.032 -0.106,-0.012 z"
         style="fill:#8ff0a4;fill-opacity:1;fill-rule:nonzero;stroke:none"
         id="path308" /><path
         d="m 48.227,58.781 c -5.141,2.844 -10.239,5.785 -15.274,8.809 0.985,1.476 2.383,2.797 3.52,4.211 4.004,4.562 7.933,9.195 12.07,13.633 0.422,-0.364 0.148,-1.293 0.281,-1.84 0.055,-1.535 0.059,-3.067 0.09,-4.602 3.785,-2.23 7.676,-4.34 11.395,-6.664 -2.993,-3.855 -6.348,-7.461 -9.571,-11.137 -0.824,-0.765 -1.496,-1.918 -2.511,-2.41 z"
         style="fill:#8ff0a4;fill-opacity:1;fill-rule:nonzero;stroke:none"
         id="path310" /><path
         d="m 32.625,68.07 c -0.285,0.285 -0.414,0.703 -0.625,1.043 0.301,0.52 0.809,0.949 1.188,1.434 5.136,5.844 10.23,11.73 15.414,17.531 0.25,0.031 0.128,-0.383 0.175,-0.531 -0.023,-0.391 0.082,-0.832 -0.054,-1.192 C 43.383,80.266 38.066,74.156 32.707,68.086 32.684,68.066 32.652,68.059 32.625,68.07 Z"
         style="fill:#8ff0a4;fill-opacity:1;fill-rule:nonzero;stroke:none"
         id="path312" /><path
         d="m 73.375,256.176 c 0.023,15.207 -0.051,30.437 0.035,45.629 10.348,5.972 20.692,11.949 31.035,17.922 0.266,-1.762 0.047,-3.805 0.125,-5.676 0.008,-13.301 0.102,-26.621 0.055,-39.906 -4.785,-3.012 -9.852,-5.571 -14.574,-8.676 -0.571,-0.309 -0.262,-1.317 -1.094,-1.309 -0.477,-0.234 -0.637,0.613 -1.074,0.137 -4.86,-2.625 -9.59,-5.473 -14.399,-8.188 z"
         style="fill:#1a5fb4;fill-opacity:1;fill-rule:nonzero;stroke:none"
         id="path314" /><path
         d="m 102.578,258.289 c -3.805,2.266 -7.734,4.379 -11.41,6.84 1.609,1.266 3.574,2.191 5.324,3.305 2.875,1.617 5.68,3.421 8.668,4.8 4.598,-2.437 9.117,-5.089 13.59,-7.714 -0.02,-3.7 0.059,-7.426 -0.023,-11.11 -1.575,-0.898 -3.118,-1.898 -4.711,-2.73 -3.813,2.203 -7.625,4.406 -11.438,6.609 z"
         style="fill:#1a5fb4;fill-opacity:1;fill-rule:nonzero;stroke:none"
         id="path316" /><path
         d="m 87.641,247.477 c -4.571,2.414 -9.043,5.046 -13.422,7.789 -0.098,0.449 0.914,0.589 1.144,0.914 4.055,2.433 8.168,4.758 12.254,7.125 0.274,-1.821 0.063,-3.922 0.149,-5.856 0,-3.304 0.082,-6.613 -0.032,-9.918 -0.011,-0.043 -0.054,-0.058 -0.093,-0.054 z"
         style="fill:#1a5fb4;fill-opacity:1;fill-rule:nonzero;stroke:none"
         id="path318" /><path
         d="m 118.516,266.648 c -4.395,2.469 -8.797,4.977 -13.11,7.551 0.047,15.039 -0.121,30.082 0.149,45.117 0.84,-0.121 1.777,-0.984 2.652,-1.371 6.832,-3.961 13.727,-7.871 20.508,-11.89 -0.024,-3.836 0.051,-7.703 -0.035,-11.524 -1.942,-1.199 -4.094,-2.179 -5.879,-3.57 -1.348,-7.027 -2.922,-14.02 -3.969,-21.09 -0.172,-1.059 0.078,-2.219 -0.207,-3.242 h -0.066 z"
         style="fill:#1a5fb4;fill-opacity:1;fill-rule:nonzero;stroke:none"
         id="path320" /><path
         d="m 193.793,325.68 c -0.141,15.183 -0.051,30.363 -0.078,45.547 10.347,6.066 20.777,12.085 31.211,18.035 0.351,-0.485 0.039,-1.414 0.164,-2.035 0.109,-14.536 0.113,-29.098 0.043,-43.614 -4.891,-2.902 -9.938,-5.558 -14.719,-8.64 -0.566,-0.317 -0.359,-1.414 -1.223,-1.328 -0.386,0.152 -0.726,0.421 -1.132,0.046 -4.774,-2.589 -9.407,-5.437 -14.161,-8.066 z"
         style="fill:#1a5fb4;fill-opacity:1;fill-rule:nonzero;stroke:none"
         id="path322" /><path
         d="m 207.988,316.977 c -4.574,2.445 -9.078,5.05 -13.476,7.796 0.39,0.606 1.414,0.875 2.008,1.356 3.796,2.246 7.625,4.43 11.437,6.644 0.273,-1.824 0.063,-3.925 0.148,-5.855 0.004,-3.297 0.079,-6.594 -0.019,-9.887 -0.012,-0.043 -0.059,-0.062 -0.098,-0.054 z"
         style="fill:#1a5fb4;fill-opacity:1;fill-rule:nonzero;stroke:none"
         id="path324" /><path
         d="m 227.984,324.934 c -5.504,3.183 -11.105,6.238 -16.457,9.671 0.856,0.856 2.188,1.364 3.219,2.079 3.551,2.05 7.063,4.214 10.723,6.066 1.277,-0.469 2.453,-1.262 3.593,-1.969 0.032,-5.461 0.063,-10.918 0.094,-16.379 -0.34,-0.105 -0.816,0.418 -1.172,0.532 z"
         style="fill:#1a5fb4;fill-opacity:1;fill-rule:nonzero;stroke:none"
         id="path326" /><path
         d="m 228.906,341.914 c -0.992,0.473 -1.98,1.024 -2.886,1.617 -0.032,15.11 -0.063,30.215 -0.094,45.324 1.051,-0.367 2.176,-1.167 3.226,-1.703 -0.047,-15.066 0.114,-30.136 -0.14,-45.195 -0.016,-0.039 -0.071,-0.055 -0.106,-0.043 z"
         style="fill:#1a5fb4;fill-opacity:1;fill-rule:nonzero;stroke:none"
         id="path328" /><g
         id="g334"
         transform="scale(1,-1)"><path
           d="m 1144.152,-404.402 -49.3,56.3 m 52.8,-50 -3.5,-6.3 m -45.703,91.5 49.203,-85.2 m -121.8,127.102 24.898,-14.402 m 44.102,-25.399 3.597,-2.101 m -228.097,98.8 -20.801,-12 m 0,0 3.5,-10.3 m 0,0 17.301,-0.2 m 180.398,-60 -25.5,14.7 m 69.602,47.601 48.5,-0.5 m 0,0 -3.602,10.301 m 0,0 18,-0.203 m 0,0 16.902,-49.297 m 0,0 -39.8,-22.902 m 0,0 V -334 m 39.8,-68.801 -39.8,68.801 m 22.898,-98.703 16.902,29.902 m -34.902,-9.301 18,-20.601 m -14.398,26.902 -3.602,-6.301 m -44.898,61.7 48.5,-55.399 m -134.403,105.5 24,-13.801 m -162.597,75.2 -16.5,0.199 m 0,0 3.597,-10.399 m 0,0 -18,0.2 m 0,0 -16.898,49.402 m 0,0 39.699,22.898 m 0,37 v -37 m -39.699,105.801 39.699,-68.801 m -22.801,98.7 -16.898,-29.899 m 34.898,9.301 -18,20.598 m 14.403,-26.801 3.597,6.203 m 12.903,-25 -16.5,18.797 m -0.801,-1.399 17.301,-19.699 m -20.801,13.399 3.5,6.3 m 17.301,-42.3 -20.801,36 m 178.5,-159.801 22.699,-13.199 m 44.102,-25.399 3.597,-2.101 m 0,0 49.203,28.402 m 0,0 -3.5,10.297 m 0,0 -49.3,0.601 m 79,21.2 -16.102,-9.301 m 16.102,9.301 16.8,-49.399 m 0,0 -16,-9.199 m -18.8,58.797 -16.102,-9.297 m 16.102,9.297 18,-0.199 m -22.903,-72.301 -16.097,-9.199 m 55.8,32.101 -39.703,-22.902 M 894.352,-65.5 l -24,-13.902 m 24,13.902 20.097,-11.602 m 24,13.899 -24,-13.899 m 4,25.5 20,-11.601 m 4,25.5 -24,-13.899 m 24,13.899 200.5,-115.797 m 0,0 -24.097,-13.801 m -20,11.5 20,-11.5 m -20,11.5 -24.102,-13.902 m 0,0 20.102,-11.5 m 0,0 -24.102,-13.899 m -200.398,115.7 200.398,-115.7 m -136.301,106.399 120.301,-69.399 m 24,13.899 -24,-13.899 m -96.199,83.301 120.199,-69.402 m -120.199,69.402 -24.102,-13.902 m -4,-175.899 70.203,-40.5 m -70.203,6.899 v 33.601 m 80.203,-79.898 -80.203,46.297 M 1010.652,-327 v -17.5 m 40.098,-5.703 -40.098,23.203 m 40.098,78.699 v -101.902 m -40.098,125 40.098,-23.098 m -40.098,40.598 v -17.5 m -80.203,63.801 80.203,-46.301 m -80.203,12.601 v 33.7 m 10,-39.5 -10,5.8 m 70.203,-40.5 -60.203,34.7 m 60.203,-104.2 v 69.5 m -130.3,-75.3 v 231.5 m 200.398,-115.7 v -231.5 m 0,0 -200.398,115.7 m 140.3,-35.7 v -17.5 m -80.203,63.801 80.203,-46.301 m -80.203,37 v 9.301 m -28.097,6.899 28.097,-16.2 m -28.097,175.7 v -159.5 m 28.097,143.3 -28.097,16.2 m 28.097,-25.5 v 9.3 m 80.203,-55.5 -80.203,46.2 m 80.203,-28.801 v -17.399 m 40.098,-5.699 -40.098,23.098 m 40.098,-18.5 v -4.598 m -160.398,97.199 160.398,-92.601 m -160.398,-92.598 v 185.199 m 160.398,-277.8 -160.398,92.601 m 160.398,-87.902 v -4.699 m -40.098,27.8 40.098,-23.101 m 44.102,206 v -231.5 m 0,0 -24.102,-13.899 m 24.102,201.801 45.199,-0.5 m -125.399,39.399 -4,-2.301 m 88.2,32.402 v -23.101 m 0,0 -4,-2.301 m 24,-217.598 v 20.899 m 0,113.8 v 27.2 m 0,11.8 v 57.801 m 0,-231.5 -20,11.598 m 0,23.101 v -23.101 m 0,208.301 v -46 m 0,-11.7 v -21 m 0,-56 v -11.5 m 0,-29.898 v -9.102 m 44.097,113.899 v 13.101 m 0,14.399 v 69.203 m -11.898,-238.301 -12.199,-7 m 32.097,74.098 -16.097,-9.297 m 55.8,-59.5 -16,-9.301 m 16,9.301 -39.703,68.797 m 0,37 v -37 M 958.551,-74.801 v -23.101 m 100.199,-57.899 -100.199,57.899 m -9,-50.399 -19.102,-11.101 m 28.102,-123.7 v -3.601 m -4,5.902 4,-2.301 m 16,-6.898 v -2.301 m 0,0 48.101,-27.801 m 151.2,-103.3 -16.102,-9.301 m 16.102,9.301 16.8,29.902 m -91.8,213.5 -4,-2.301 m 4,-30.101 -4,-2.301 m -133.2,115 -4,-2.297 m 137.2,-153.301 19.597,-11.402 m 3.903,-80.598 -23.5,26.801 m -84.2,98.797 -10,-13.899 m 24,-55.601 3.399,56 m -3.399,-56 -24,-13.899 m -43.101,128 -17.102,-23.8 m 94.203,-112.301 -24,-13.797 m 40.098,4.598 -16.098,9.199 m -121.101,185.703 -11.199,-6.402 m 39.199,-9.801 -11.102,-6.399 m 24.102,-31.101 -24.102,-13.899 m 24.102,13.899 v 5.902 m 4,77.399 -4,-2.301 m -52.199,-192.098 -12,-7 m 68.199,16.199 -3.102,-1.8 m 143.403,-74.598 -4,-2.301 m 4,-2.301 -4,-2.3 m -140.301,185.101 v 0.098 m 144.101,-132.098 -3.8,-2.199 m -140.301,31.098 -24.102,-13.801 m 89.102,-23.699 -65,37.5 m 144.301,-102.801 -4,-2.297 m -224.903,331 -16.097,-9.203 m 28.398,-4.797 -12.301,14 m 48.5,-16.301 v 23.199 M 855.551,-72 l -6,-3.402 m 105,-209 v 6 m -99.102,246.8 -16,-9.3 m 34,-11.301 -16,-9.297 m 16,9.297 -18,20.601 m 121.102,-259.601 -2,-1.098 M 869.949,-58.5 l 3.5,6.297 m 65,-252.699 -8,-4.7 m -61.297,82.399 -16.101,-9.199 m 16.101,9.199 h 1.2 m -4.801,10.402 -16,-9.301 m 20.801,12 -4.801,-2.699 m 0,0 3.601,-10.402 m 1.2,-14.399 -12.903,-7.5"
           style="fill:none;stroke:#000000;stroke-width:2.25;stroke-linecap:round;stroke-linejoin:round;stroke-miterlimit:4;stroke-dasharray:none;stroke-opacity:1"
           id="path336" /></g><g
         id="g338"
         transform="scale(1,-0.99991)"><path
           d="m 48.926,-238.955 -16.465,0.199 m 0,0 3.504,-10.36 m 0,0 -18.02,0.199 m 0,0 -16.82,49.407 m 0,0 39.742,22.924 m 0,37.089 v -37.089 M 1.125,-70.67 40.867,-139.497 M 17.945,-40.687 1.125,-70.67 m 34.84,9.36 -18.02,20.623 m 14.516,-26.882 3.504,6.259 m 12.961,-25.077 -16.465,18.818 m 241.215,-166.729 48.551,-0.551 m 0,0 -3.555,10.36 m 0,0 18.019,-0.199 m 0,0 16.871,-49.407 m 0,0 -39.792,-22.975 m 0,0 v -37.038 m 39.792,-68.878 -39.792,68.878 m 22.921,-98.81 16.871,29.932 m -34.89,-9.36 18.019,-20.572 m -14.464,26.881 -3.555,-6.309 m -44.996,61.818 48.551,-55.509 m -113.676,93.649 -1.098,0.602 m 0,27.831 v -27.831 m 0,27.831 1.098,-0.649 m 114.476,-120.034 -49.351,56.411 m 52.855,-50.102 -3.504,-6.309 m -45.699,91.602 49.203,-85.293 m -49.203,85.293 -3.652,2.102 m -65.125,37.593 -1.852,1.051 m -87.543,50.555 -5.105,2.954 m -65.125,4.703 -20.77,-12.013 m 0,0 3.504,-10.36 m 0,0 17.266,-0.203 m 65.125,6.61 5.105,-2.954 M 31.66,-69.018 48.926,-88.742 m -20.77,13.466 3.504,6.258 m 17.266,-42.246 -20.77,35.988 m 249.172,-200.722 -3.652,2.106 m 3.652,-2.106 49.203,28.433 m 0,0 -3.504,10.36 m 0,0 -49.351,0.602 m 79.886,-37.492 16.016,9.263 m -32.887,40.144 16.071,9.258 m 0,0 16.816,-49.402 m -50.906,40.343 16.07,9.259 m 0,0 18.02,-0.2 m -38.992,-81.64 16.066,9.31 m 39.742,22.928 -39.742,-22.928 m -32.086,120.483 24.078,13.865 m -24.078,-13.865 -20.07,11.564 m -24.078,-13.916 24.078,13.916 m -4.004,-25.479 -20.074,11.563 m -4.004,-25.478 24.078,13.915 M 249.598,-195.107 48.926,-79.23 m 0,0 24.078,13.865 m 20.07,-11.564 -20.07,11.564 m 20.07,-11.564 24.078,13.916 m 0,0 -20.07,11.563 m 0,0 24.074,13.915 M 321.828,-153.412 121.156,-37.535 m 136.449,-106.568 -120.382,69.479 m -24.075,-13.915 24.075,13.915 m 96.308,-83.394 -120.383,69.479 m 120.383,-69.479 24.074,13.915 m -32.132,-245.616 v 46.348 m 4.054,-48.703 -4.054,2.355 m 4.054,183.048 V -392.074 M 69,-114.018 229.527,-206.671 M 69,-114.018 v -185.353 m 0,0 4.004,-2.305 m 0,0 v 46.301 m 0,0 15.117,-8.707 m 0,0 v 92.652 m 0,0 -8.008,4.653 m 0,0 v 32.437 m 0,0 138.25,-79.839 m 0,0 v -32.433 m 0,0 -8.008,4.653 m 0,-92.7 v 92.7 m 15.118,-101.412 -15.118,8.712 m 39.243,-92.153 v 231.705 M 48.926,-310.985 249.598,-426.812 M 48.926,-310.985 V -79.23 M 179.32,-305.176 v 81.085 m -60.164,-46.301 60.164,-34.784 m -60.164,115.874 v -81.09 m 0,81.09 -29.183,16.822 m 0,0 v -92.653 m 0,0 15.117,-8.759 m 0,0 v -46.352 m 88.297,-50.957 -88.297,50.957 m 88.297,-4.606 v -46.351 m 15.164,37.593 -15.164,8.758 m 15.164,-8.758 v 92.7 m 0,0 -29.231,16.817 m 70.278,-202.721 24.078,13.915 m 0,0 v 231.705 m 0,-43.649 45.297,-0.55 m -41.293,46.5 v 23.178 m -4.004,-25.479 4.004,2.301 m 20.07,-220.141 v 20.974 m 0,113.874 v 27.28 m 0,11.763 v 57.864 m -20.07,-220.141 20.07,-11.614 m -20.07,11.614 v 23.174 m 0,0 v 9.11 m 0,29.933 v 11.513 m 0,56.012 v 21.022 m 0,11.763 v 46 m 20.07,-220.141 12.164,7.059 m 11.914,141.704 v 13.115 m 0,14.466 v 69.276 m -103.465,-60.767 11.164,6.457 m -149.414,73.382 12.063,6.957 m 126.187,-119.229 11.164,6.454 m 124.035,-162.828 16.016,9.259 m -55.808,59.619 16.066,9.258 m 39.742,-68.877 -39.742,68.877 m 0,37.09 v -37.09 M 97.082,-51.45 v -23.174 m 40.141,-23.178 v 23.178 m 100.312,-81.089 -100.312,57.911 m 73.132,-236.857 19.172,11.06 m 107.164,-109.319 16.071,9.259 m 0,0 16.816,29.932 m -76.234,126.992 -19.668,11.411 m 23.523,-92.149 -23.523,26.878 m -90.301,-5.055 -4.055,20.474 m 25.18,66.572 2.953,-45.351 m 0,-27.831 -24.078,-13.864 m -10.961,202.873 4.004,2.352 m 49.055,-222.946 4.054,2.305 m -4.054,-48.653 4.054,2.301 m -36.14,62.568 15.164,8.759 m -75.332,215.988 4.004,2.301 m 136.453,-268.743 4.004,2.301 m -80.59,46.501 4.305,-2.501 M 69,-299.371 l 4.004,2.301 m 50.156,6.157 -4.004,20.521 m 4.004,-20.521 60.215,-34.737 m -26.078,211.632 4.004,2.301 m -71.328,-153.416 24.078,13.915 m 0,64.869 v -64.869 m 159.625,-138.501 4.004,2.301 M 32.461,-67.569 48.527,-58.306 M 60.84,-72.374 48.527,-58.306 m 56.563,-261.938 24.074,13.916 m 64.223,-37.094 -64.223,37.094 m -101.008,231.052 5.953,3.453 m 103.114,-234.505 v 7.305 m 0,-7.305 56.164,-32.437 M 35.965,-61.31 l 16.066,9.258 m -34.086,11.365 16.067,9.258 m 18.019,-20.623 -18.019,20.623 m 71.078,-242.463 14.066,8.106 m -5.105,14.568 5.105,-3.004 m 10.008,-40.195 v -11.911 m -80.637,248.022 3.504,6.254 m 20.973,-203.323 15.117,8.763 m -56.461,10.161 16.067,9.259 m 0,0 h 1.199 m -20.77,1.101 16.016,9.259 m 4.754,2.754 -4.754,-2.754 m 89.047,-91.801 4.004,2.305 m -93.051,89.496 3.555,-10.36 m -11.762,-21.924 12.961,7.458"
           style="fill:none;stroke:#000000;stroke-width:2.2501;stroke-linecap:round;stroke-linejoin:round;stroke-miterlimit:4;stroke-dasharray:none;stroke-opacity:1"
           id="path340" /></g></g><text
       xml:space="preserve"
       style="font-weight:bold;font-size:24px;line-height:1.25;font-family:Arial;-inkscape-font-specification:'Arial Bold';stroke-width:0.75"
       x="57.243614"
       y="25.115072"
       id="text22656"><tspan
         sodipodi:role="line"
         id="tspan22654"
         style="stroke-width:0.75"
         x="57.243614"
         y="25.115072">A: <tspan
   style="font-style:normal;font-variant:normal;font-weight:bold;font-stretch:normal;font-family:'CMU Serif';-inkscape-font-specification:'CMU Serif Bold'"
   id="tspan28161">Isometric front view</tspan></tspan></text><text
       xml:space="preserve"
       style="font-weight:bold;font-size:24px;line-height:1.25;font-family:Arial;-inkscape-font-specification:'Arial Bold';stroke-width:0.75"
       x="517.93536"
       y="25.115072"
       id="text22656-3"><tspan
         sodipodi:role="line"
         id="tspan22654-4"
         style="stroke-width:0.75"
         x="517.93536"
         y="25.115072">B: <tspan
   style="font-style:normal;font-variant:normal;font-weight:bold;font-stretch:normal;font-family:'CMU Serif';-inkscape-font-specification:'CMU Serif Bold'"
   id="tspan28161-8">front view</tspan></tspan></text><text
       xml:space="preserve"
       style="font-weight:bold;font-size:24px;line-height:1.25;font-family:Arial;-inkscape-font-specification:'Arial Bold';stroke-width:0.75"
       x="876.42035"
       y="25.185385"
       id="text22656-3-6"><tspan
         sodipodi:role="line"
         id="tspan22654-4-1"
         style="stroke-width:0.75"
         x="876.42035"
         y="25.185385">C: <tspan
   style="font-style:normal;font-variant:normal;font-weight:bold;font-stretch:normal;font-family:'CMU Serif';-inkscape-font-specification:'CMU Serif Bold'"
   id="tspan28161-8-1">Isometric back view</tspan></tspan></text></g></svg>
